<ttFont>
    <TTGlyph name="A" xMin="-20" yMin="0" xMax="539" yMax="643">
      <contour>
        <pt x="406" y="0" on="1"/>
        <pt x="400" y="83" on="1"/>
        <pt x="391" y="146" on="1"/>
        <pt x="270" y="148" on="1"/>
        <pt x="163" y="146" on="1"/>
        <pt x="139" y="90" on="1"/>
        <pt x="110" y="0" on="1"/>
        <pt x="-20" y="0" on="1"/>
        <pt x="271" y="643" on="1"/>
        <pt x="428" y="643" on="1"/>
        <pt x="539" y="0" on="1"/>
      </contour>
      <contour>
        <pt x="336" y="519" on="1"/>
        <pt x="327" y="519" on="1"/>
        <pt x="209" y="249" on="1"/>
        <pt x="291" y="247" on="1"/>
        <pt x="376" y="248" on="1"/>
      </contour>
    </TTGlyph>
    <TTGlyph name="AE" xMin="-45" yMin="0" xMax="774" yMax="643">
      <contour>
        <pt x="753" y="0" on="1"/>
        <pt x="376" y="0" on="1"/>
        <pt x="381" y="83" on="1"/>
        <pt x="382" y="223" on="1"/>
        <pt x="170" y="168" on="1"/>
        <pt x="125" y="90" on="1"/>
        <pt x="86" y="0" on="1"/>
        <pt x="-45" y="0" on="1"/>
        <pt x="335" y="643" on="1"/>
        <pt x="762" y="643" on="1"/>
        <pt x="768" y="633" on="1"/>
        <pt x="747" y="534" on="1"/>
        <pt x="596" y="539" on="1"/>
        <pt x="511" y="539" on="1"/>
        <pt x="509" y="356" on="1"/>
        <pt x="704" y="405" on="1"/>
        <pt x="713" y="397" on="1"/>
        <pt x="712" y="304" on="1"/>
        <pt x="508" y="256" on="1"/>
        <pt x="507" y="103" on="1"/>
        <pt x="607" y="103" on="1"/>
        <pt x="767" y="109" on="1"/>
        <pt x="774" y="99" on="1"/>
      </contour>
      <contour>
        <pt x="383" y="519" on="1"/>
        <pt x="375" y="519" on="1"/>
        <pt x="239" y="286" on="1"/>
        <pt x="382" y="323" on="1"/>
      </contour>
    </TTGlyph>
    <TTGlyph name="AEacute" xMin="-45" yMin="0" xMax="774" yMax="887">
      <component glyphName="AE" x="0" y="0" flags="0x1000"/>
      <component glyphName="acute.cap" x="323" y="179" flags="0x1000"/>
    </TTGlyph>
    <TTGlyph name="Aacute" xMin="-20" yMin="0" xMax="539" yMax="887">
      <component glyphName="A" x="0" y="0" flags="0x1000"/>
      <component glyphName="acute.cap" x="130" y="179" flags="0x1000"/>
    </TTGlyph>
    <TTGlyph name="Abreve" xMin="-20" yMin="0" xMax="539" yMax="867">
      <component glyphName="A" x="0" y="0" flags="0x1000"/>
      <component glyphName="breve.cap" x="118" y="179" flags="0x1000"/>
    </TTGlyph>
    <TTGlyph name="Abreveacute" xMin="-20" yMin="0" xMax="539" yMax="995">
      <component glyphName="A" x="0" y="0" flags="0x1000"/>
      <component glyphName="breveacute" x="123" y="179" flags="0x1000"/>
    </TTGlyph>
    <TTGlyph name="Abrevedotbelow" xMin="-19" yMin="-195" xMax="540" yMax="867">
      <contour>
        <pt x="303" y="721" on="0"/>
        <pt x="228" y="775" on="0"/>
        <pt x="215" y="826" on="1"/>
        <pt x="250" y="867" on="1"/>
        <pt x="269" y="867" on="1"/>
        <pt x="279" y="840" on="0"/>
        <pt x="329" y="811" on="0"/>
        <pt x="364" y="811" on="1"/>
        <pt x="436" y="811" on="0"/>
        <pt x="469" y="867" on="1"/>
        <pt x="488" y="867" on="1"/>
        <pt x="513" y="826" on="1"/>
        <pt x="465" y="721" on="0"/>
        <pt x="360" y="721" on="1"/>
      </contour>
      <contour>
        <pt x="407" y="0" on="1"/>
        <pt x="401" y="83" on="1"/>
        <pt x="392" y="146" on="1"/>
        <pt x="270" y="148" on="1"/>
        <pt x="163" y="146" on="1"/>
        <pt x="139" y="90" on="1"/>
        <pt x="111" y="0" on="1"/>
        <pt x="-19" y="0" on="1"/>
        <pt x="272" y="643" on="1"/>
        <pt x="429" y="643" on="1"/>
        <pt x="540" y="0" on="1"/>
      </contour>
      <contour>
        <pt x="337" y="519" on="1"/>
        <pt x="328" y="519" on="1"/>
        <pt x="209" y="249" on="1"/>
        <pt x="291" y="247" on="1"/>
        <pt x="377" y="248" on="1"/>
      </contour>
      <contour>
        <pt x="285" y="-56" on="0"/>
        <pt x="319" y="-91" on="0"/>
        <pt x="319" y="-122" on="1"/>
        <pt x="319" y="-156" on="0"/>
        <pt x="281" y="-195" on="0"/>
        <pt x="249" y="-195" on="1"/>
        <pt x="217" y="-195" on="0"/>
        <pt x="183" y="-160" on="0"/>
        <pt x="183" y="-128" on="1"/>
        <pt x="183" y="-95" on="0"/>
        <pt x="221" y="-56" on="0"/>
        <pt x="254" y="-56" on="1"/>
      </contour>
    </TTGlyph>
    <TTGlyph name="Abrevegrave" xMin="-20" yMin="0" xMax="539" yMax="995">
      <component glyphName="A" x="0" y="0" flags="0x1000"/>
      <component glyphName="brevegrave" x="123" y="179" flags="0x1000"/>
    </TTGlyph>
    <TTGlyph name="Abrevehookabove" xMin="-20" yMin="0" xMax="539" yMax="1050">
      <component glyphName="A" x="0" y="0" flags="0x1000"/>
      <component glyphName="brevehookabove" x="123" y="179" flags="0x1000"/>
    </TTGlyph>
    <TTGlyph name="Abrevetilde" xMin="-20" yMin="0" xMax="548" yMax="1019">
      <component glyphName="A" x="0" y="0" flags="0x1000"/>
      <component glyphName="brevetilde" x="123" y="179" flags="0x1000"/>
    </TTGlyph>
    <TTGlyph name="Acaron" xMin="-20" yMin="0" xMax="539" yMax="874">
      <component glyphName="A" x="0" y="0" flags="0x1000"/>
      <component glyphName="caron.cap" x="118" y="179" flags="0x1000"/>
    </TTGlyph>
    <TTGlyph name="Acircumflex" xMin="-20" yMin="0" xMax="539" yMax="882">
      <component glyphName="A" x="0" y="0" flags="0x1000"/>
      <component glyphName="circumflex.cap" x="124" y="179" flags="0x1000"/>
    </TTGlyph>
    <TTGlyph name="Acircumflexacute" xMin="-20" yMin="0" xMax="565" yMax="992">
      <component glyphName="A" x="0" y="0" flags="0x1000"/>
      <component glyphName="circumflexacute" x="123" y="179" flags="0x1000"/>
    </TTGlyph>
    <TTGlyph name="Acircumflexdotbelow" xMin="-19" yMin="-195" xMax="540" yMax="882">
      <contour>
        <pt x="218" y="779" on="1"/>
        <pt x="299" y="831" on="0"/>
        <pt x="358" y="882" on="1"/>
        <pt x="386" y="882" on="1"/>
        <pt x="436" y="833" on="0"/>
        <pt x="510" y="779" on="1"/>
        <pt x="480" y="727" on="1"/>
        <pt x="467" y="727" on="1"/>
        <pt x="426" y="752" on="0"/>
        <pt x="368" y="791" on="1"/>
        <pt x="333" y="771" on="0"/>
        <pt x="289" y="748" on="1"/>
        <pt x="249" y="727" on="1"/>
        <pt x="236" y="727" on="1"/>
      </contour>
      <contour>
        <pt x="407" y="0" on="1"/>
        <pt x="401" y="83" on="1"/>
        <pt x="392" y="146" on="1"/>
        <pt x="270" y="148" on="1"/>
        <pt x="163" y="146" on="1"/>
        <pt x="139" y="90" on="1"/>
        <pt x="111" y="0" on="1"/>
        <pt x="-19" y="0" on="1"/>
        <pt x="272" y="643" on="1"/>
        <pt x="429" y="643" on="1"/>
        <pt x="540" y="0" on="1"/>
      </contour>
      <contour>
        <pt x="337" y="519" on="1"/>
        <pt x="328" y="519" on="1"/>
        <pt x="209" y="249" on="1"/>
        <pt x="291" y="247" on="1"/>
        <pt x="377" y="248" on="1"/>
      </contour>
      <contour>
        <pt x="285" y="-56" on="0"/>
        <pt x="319" y="-91" on="0"/>
        <pt x="319" y="-122" on="1"/>
        <pt x="319" y="-156" on="0"/>
        <pt x="281" y="-195" on="0"/>
        <pt x="249" y="-195" on="1"/>
        <pt x="217" y="-195" on="0"/>
        <pt x="183" y="-160" on="0"/>
        <pt x="183" y="-128" on="1"/>
        <pt x="183" y="-95" on="0"/>
        <pt x="221" y="-56" on="0"/>
        <pt x="254" y="-56" on="1"/>
      </contour>
    </TTGlyph>
    <TTGlyph name="Acircumflexgrave" xMin="-20" yMin="0" xMax="539" yMax="992">
      <component glyphName="A" x="0" y="0" flags="0x1000"/>
      <component glyphName="circumflexgrave" x="123" y="179" flags="0x1000"/>
    </TTGlyph>
    <TTGlyph name="Acircumflexhookabove" xMin="-20" yMin="0" xMax="539" yMax="1036">
      <component glyphName="A" x="0" y="0" flags="0x1000"/>
      <component glyphName="circumflexhookabove" x="123" y="179" flags="0x1000"/>
    </TTGlyph>
    <TTGlyph name="Acircumflextilde" xMin="-20" yMin="0" xMax="558" yMax="1017">
      <component glyphName="A" x="0" y="0" flags="0x1000"/>
      <component glyphName="circumflextilde" x="136" y="179" flags="0x1000"/>
    </TTGlyph>
    <TTGlyph name="Adieresis" xMin="-20" yMin="0" xMax="539" yMax="859">
      <component glyphName="A" x="0" y="0" flags="0x1000"/>
      <component glyphName="dieresis" x="121" y="179" flags="0x1000"/>
    </TTGlyph>
    <TTGlyph name="Adotbelow" xMin="-20" yMin="-195" xMax="539" yMax="643">
      <component glyphName="A" x="0" y="0" flags="0x1000"/>
      <component glyphName="dotbelowcomb" x="101" y="0" flags="0x1000"/>
    </TTGlyph>
    <TTGlyph name="Agrave" xMin="-20" yMin="0" xMax="539" yMax="889">
      <component glyphName="A" x="0" y="0" flags="0x1000"/>
      <component glyphName="grave.cap" x="123" y="179" flags="0x1000"/>
    </TTGlyph>
    <TTGlyph name="Ahookabove" xMin="-20" yMin="0" xMax="539" yMax="918">
      <component glyphName="A" x="0" y="0" flags="0x1000"/>
      <component glyphName="hookabove" x="84" y="179" flags="0x1000"/>
    </TTGlyph>
    <TTGlyph name="Amacron" xMin="-20" yMin="0" xMax="539" yMax="838">
      <component glyphName="A" x="0" y="0" flags="0x1000"/>
      <component glyphName="macron" x="121" y="179" flags="0x1000"/>
    </TTGlyph>
    <TTGlyph name="Aogonek" xMin="-19" yMin="-196" xMax="540" yMax="643">
      <contour>
        <pt x="526" y="-148" on="1"/>
        <pt x="473" y="-196" on="0"/>
        <pt x="429" y="-196" on="1"/>
        <pt x="393" y="-196" on="0"/>
        <pt x="351" y="-153" on="0"/>
        <pt x="351" y="-117" on="1"/>
        <pt x="351" y="-94" on="0"/>
        <pt x="375" y="-42" on="0"/>
        <pt x="406" y="0" on="1"/>
        <pt x="407" y="0" on="1"/>
        <pt x="401" y="83" on="1"/>
        <pt x="392" y="146" on="1"/>
        <pt x="270" y="148" on="1"/>
        <pt x="163" y="146" on="1"/>
        <pt x="139" y="90" on="1"/>
        <pt x="111" y="0" on="1"/>
        <pt x="-19" y="0" on="1"/>
        <pt x="272" y="643" on="1"/>
        <pt x="429" y="643" on="1"/>
        <pt x="540" y="0" on="1"/>
        <pt x="482" y="0" on="1"/>
        <pt x="427" y="-64" on="0"/>
        <pt x="427" y="-95" on="1"/>
        <pt x="427" y="-122" on="0"/>
        <pt x="454" y="-122" on="1"/>
        <pt x="481" y="-122" on="0"/>
        <pt x="516" y="-90" on="1"/>
        <pt x="523" y="-90" on="1"/>
      </contour>
      <contour>
        <pt x="337" y="519" on="1"/>
        <pt x="328" y="519" on="1"/>
        <pt x="209" y="249" on="1"/>
        <pt x="291" y="247" on="1"/>
        <pt x="377" y="248" on="1"/>
      </contour>
    </TTGlyph>
    <TTGlyph name="Aring" xMin="-20" yMin="0" xMax="539" yMax="902">
      <component glyphName="A" x="0" y="0" flags="0x1000"/>
      <component glyphName="ring" x="121" y="179" flags="0x1000"/>
    </TTGlyph>
    <TTGlyph name="Aringacute" xMin="-6" yMin="0" xMax="553" yMax="933">
      <contour>
        <pt x="263" y="853" on="1"/>
        <pt x="373" y="889" on="0"/>
        <pt x="484" y="933" on="1"/>
        <pt x="495" y="928" on="1"/>
        <pt x="516" y="847" on="1"/>
        <pt x="511" y="836" on="1"/>
        <pt x="425" y="817" on="0"/>
        <pt x="288" y="790" on="1"/>
        <pt x="275" y="796" on="1"/>
      </contour>
      <contour>
        <pt x="420" y="0" on="1"/>
        <pt x="414" y="80" on="1"/>
        <pt x="404" y="143" on="1"/>
        <pt x="283" y="146" on="1"/>
        <pt x="175" y="143" on="1"/>
        <pt x="151" y="88" on="1"/>
        <pt x="124" y="0" on="1"/>
        <pt x="-6" y="0" on="1"/>
        <pt x="287" y="621" on="1"/>
        <pt x="270" y="644" on="0"/>
        <pt x="270" y="682" on="1"/>
        <pt x="270" y="727" on="0"/>
        <pt x="320" y="776" on="0"/>
        <pt x="367" y="776" on="1"/>
        <pt x="412" y="776" on="0"/>
        <pt x="460" y="728" on="0"/>
        <pt x="460" y="686" on="1"/>
        <pt x="460" y="642" on="0"/>
        <pt x="435" y="615" on="1"/>
        <pt x="553" y="0" on="1"/>
      </contour>
      <contour>
        <pt x="324" y="721" on="0"/>
        <pt x="324" y="683" on="1"/>
        <pt x="324" y="643" on="0"/>
        <pt x="365" y="643" on="1"/>
        <pt x="406" y="643" on="0"/>
        <pt x="406" y="681" on="1"/>
        <pt x="406" y="721" on="0"/>
        <pt x="364" y="721" on="1"/>
      </contour>
      <contour>
        <pt x="348" y="508" on="1"/>
        <pt x="339" y="508" on="1"/>
        <pt x="220" y="243" on="1"/>
        <pt x="304" y="242" on="1"/>
        <pt x="389" y="243" on="1"/>
      </contour>
    </TTGlyph>
    <TTGlyph name="Atilde" xMin="-20" yMin="0" xMax="539" yMax="878">
      <component glyphName="A" x="0" y="0" flags="0x1000"/>
      <component glyphName="tilde" x="122" y="179" flags="0x1000"/>
    </TTGlyph>
    <TTGlyph name="B" xMin="49" yMin="-5" xMax="536" yMax="644">
      <contour>
        <pt x="478" y="314" on="0"/>
        <pt x="529" y="250" on="0"/>
        <pt x="529" y="199" on="1"/>
        <pt x="529" y="-5" on="0"/>
        <pt x="222" y="-5" on="1"/>
        <pt x="133" y="-5" on="0"/>
        <pt x="50" y="0" on="1"/>
        <pt x="49" y="0" on="1"/>
        <pt x="80" y="192" on="1"/>
        <pt x="129" y="643" on="1"/>
        <pt x="345" y="644" on="1"/>
        <pt x="434" y="644" on="0"/>
        <pt x="536" y="572" on="0"/>
        <pt x="536" y="503" on="1"/>
        <pt x="536" y="446" on="0"/>
        <pt x="477" y="358" on="0"/>
        <pt x="421" y="334" on="1"/>
      </contour>
      <contour>
        <pt x="399" y="391" on="0"/>
        <pt x="399" y="480" on="1"/>
        <pt x="399" y="517" on="0"/>
        <pt x="353" y="549" on="0"/>
        <pt x="297" y="549" on="1"/>
        <pt x="247" y="549" on="1"/>
        <pt x="222" y="371" on="1"/>
        <pt x="312" y="368" on="1"/>
      </contour>
      <contour>
        <pt x="321" y="90" on="0"/>
        <pt x="395" y="147" on="0"/>
        <pt x="395" y="198" on="1"/>
        <pt x="395" y="263" on="0"/>
        <pt x="316" y="278" on="1"/>
        <pt x="208" y="276" on="1"/>
        <pt x="198" y="204" on="1"/>
        <pt x="187" y="94" on="1"/>
        <pt x="237" y="90" on="0"/>
        <pt x="254" y="90" on="1"/>
      </contour>
    </TTGlyph>
    <TTGlyph name="C" xMin="37" yMin="-9" xMax="541" yMax="651">
      <contour>
        <pt x="471" y="651" on="0"/>
        <pt x="541" y="613" on="1"/>
        <pt x="504" y="501" on="1"/>
        <pt x="493" y="497" on="1"/>
        <pt x="436" y="543" on="0"/>
        <pt x="362" y="543" on="1"/>
        <pt x="271" y="543" on="0"/>
        <pt x="177" y="409" on="0"/>
        <pt x="177" y="280" on="1"/>
        <pt x="177" y="102" on="0"/>
        <pt x="312" y="102" on="1"/>
        <pt x="390" y="102" on="0"/>
        <pt x="461" y="146" on="1"/>
        <pt x="472" y="139" on="1"/>
        <pt x="447" y="26" on="1"/>
        <pt x="370" y="-9" on="0"/>
        <pt x="293" y="-9" on="1"/>
        <pt x="170" y="-9" on="0"/>
        <pt x="37" y="130" on="0"/>
        <pt x="37" y="259" on="1"/>
        <pt x="37" y="381" on="0"/>
        <pt x="117" y="557" on="0"/>
        <pt x="269" y="651" on="0"/>
        <pt x="376" y="651" on="1"/>
      </contour>
    </TTGlyph>
    <TTGlyph name="C.ss01" xMin="-126" yMin="0" xMax="573" yMax="505">
      <contour>
        <pt x="162" y="406" on="0"/>
        <pt x="162" y="226" on="1"/>
        <pt x="162" y="100" on="0"/>
        <pt x="265" y="100" on="1"/>
        <pt x="326" y="100" on="0"/>
        <pt x="380" y="131" on="1"/>
        <pt x="390" y="125" on="1"/>
        <pt x="373" y="48" on="1"/>
        <pt x="516" y="48" on="1"/>
        <pt x="510" y="0" on="1"/>
        <pt x="-126" y="0" on="1"/>
        <pt x="-120" y="48" on="1"/>
        <pt x="97" y="48" on="1"/>
        <pt x="37" y="101" on="0"/>
        <pt x="37" y="207" on="1"/>
        <pt x="37" y="382" on="0"/>
        <pt x="152" y="457" on="1"/>
        <pt x="-69" y="457" on="1"/>
        <pt x="-63" y="505" on="1"/>
        <pt x="573" y="505" on="1"/>
        <pt x="566" y="457" on="1"/>
        <pt x="437" y="457" on="1"/>
        <pt x="411" y="376" on="1"/>
        <pt x="400" y="372" on="1"/>
        <pt x="358" y="406" on="0"/>
        <pt x="296" y="406" on="1"/>
      </contour>
    </TTGlyph>
    <TTGlyph name="Cacute" xMin="37" yMin="-9" xMax="541" yMax="887">
      <component glyphName="C" x="0" y="0" flags="0x1000"/>
      <component glyphName="acute.cap" x="125" y="179" flags="0x1000"/>
    </TTGlyph>
    <TTGlyph name="Ccaron" xMin="37" yMin="-9" xMax="541" yMax="874">
      <component glyphName="C" x="0" y="0" flags="0x1000"/>
      <component glyphName="caron.cap" x="113" y="179" flags="0x1000"/>
    </TTGlyph>
    <TTGlyph name="Ccedilla" xMin="37" yMin="-200" xMax="541" yMax="651">
      <contour>
        <pt x="471" y="651" on="0"/>
        <pt x="541" y="613" on="1"/>
        <pt x="504" y="501" on="1"/>
        <pt x="493" y="497" on="1"/>
        <pt x="435" y="543" on="0"/>
        <pt x="362" y="543" on="1"/>
        <pt x="271" y="543" on="0"/>
        <pt x="178" y="409" on="0"/>
        <pt x="178" y="280" on="1"/>
        <pt x="178" y="102" on="0"/>
        <pt x="312" y="102" on="1"/>
        <pt x="390" y="102" on="0"/>
        <pt x="461" y="146" on="1"/>
        <pt x="472" y="139" on="1"/>
        <pt x="448" y="26" on="1"/>
        <pt x="384" y="-2" on="0"/>
        <pt x="324" y="-8" on="1"/>
        <pt x="314" y="-47" on="1"/>
        <pt x="348" y="-66" on="1"/>
        <pt x="389" y="-88" on="0"/>
        <pt x="389" y="-125" on="1"/>
        <pt x="389" y="-158" on="0"/>
        <pt x="338" y="-200" on="0"/>
        <pt x="296" y="-200" on="1"/>
        <pt x="252" y="-200" on="0"/>
        <pt x="214" y="-171" on="1"/>
        <pt x="224" y="-116" on="1"/>
        <pt x="230" y="-114" on="1"/>
        <pt x="260" y="-144" on="0"/>
        <pt x="288" y="-144" on="1"/>
        <pt x="313" y="-144" on="0"/>
        <pt x="313" y="-122" on="1"/>
        <pt x="313" y="-111" on="0"/>
        <pt x="296" y="-102" on="1"/>
        <pt x="247" y="-74" on="1"/>
        <pt x="262" y="-8" on="1"/>
        <pt x="153" y="1" on="0"/>
        <pt x="37" y="139" on="0"/>
        <pt x="37" y="259" on="1"/>
        <pt x="37" y="381" on="0"/>
        <pt x="117" y="557" on="0"/>
        <pt x="269" y="651" on="0"/>
        <pt x="376" y="651" on="1"/>
      </contour>
    </TTGlyph>
    <TTGlyph name="Ccircumflex" xMin="37" yMin="-9" xMax="541" yMax="882">
      <component glyphName="C" x="0" y="0" flags="0x1000"/>
      <component glyphName="circumflex.cap" x="119" y="179" flags="0x1000"/>
    </TTGlyph>
    <TTGlyph name="Cdotaccent" xMin="37" yMin="-9" xMax="541" yMax="872">
      <component glyphName="C" x="0" y="0" flags="0x1000"/>
      <component glyphName="dotaccent" x="117" y="179" flags="0x1000"/>
    </TTGlyph>
    <TTGlyph name="D" xMin="49" yMin="-7" xMax="628" yMax="647">
      <contour>
        <pt x="495" y="647" on="0"/>
        <pt x="628" y="516" on="0"/>
        <pt x="628" y="396" on="1"/>
        <pt x="628" y="207" on="0"/>
        <pt x="444" y="-7" on="0"/>
        <pt x="274" y="-7" on="1"/>
        <pt x="161" y="-7" on="0"/>
        <pt x="49" y="0" on="1"/>
        <pt x="80" y="192" on="1"/>
        <pt x="129" y="643" on="1"/>
        <pt x="373" y="647" on="1"/>
      </contour>
      <contour>
        <pt x="392" y="95" on="0"/>
        <pt x="489" y="234" on="0"/>
        <pt x="489" y="375" on="1"/>
        <pt x="489" y="461" on="0"/>
        <pt x="424" y="542" on="0"/>
        <pt x="357" y="542" on="1"/>
        <pt x="318" y="542" on="0"/>
        <pt x="248" y="538" on="1"/>
        <pt x="200" y="204" on="1"/>
        <pt x="191" y="103" on="1"/>
        <pt x="253" y="95" on="0"/>
        <pt x="303" y="95" on="1"/>
      </contour>
    </TTGlyph>
    <TTGlyph name="D.ss01" xMin="-126" yMin="0" xMax="685" yMax="505">
      <contour>
        <pt x="461" y="457" on="1"/>
        <pt x="522" y="407" on="0"/>
        <pt x="522" y="306" on="1"/>
        <pt x="522" y="218" on="0"/>
        <pt x="462" y="86" on="0"/>
        <pt x="405" y="48" on="1"/>
        <pt x="628" y="48" on="1"/>
        <pt x="622" y="0" on="1"/>
        <pt x="-126" y="0" on="1"/>
        <pt x="-120" y="48" on="1"/>
        <pt x="58" y="48" on="1"/>
        <pt x="74" y="152" on="1"/>
        <pt x="107" y="457" on="1"/>
        <pt x="-69" y="457" on="1"/>
        <pt x="-63" y="505" on="1"/>
        <pt x="685" y="505" on="1"/>
        <pt x="679" y="457" on="1"/>
      </contour>
      <contour>
        <pt x="233" y="92" on="0"/>
        <pt x="262" y="92" on="1"/>
        <pt x="397" y="92" on="0"/>
        <pt x="397" y="285" on="1"/>
        <pt x="397" y="347" on="0"/>
        <pt x="348" y="404" on="0"/>
        <pt x="298" y="404" on="1"/>
        <pt x="253" y="404" on="0"/>
        <pt x="217" y="400" on="1"/>
        <pt x="183" y="163" on="1"/>
        <pt x="177" y="98" on="1"/>
      </contour>
    </TTGlyph>
    <TTGlyph name="Dcaron" xMin="49" yMin="-7" xMax="628" yMax="874">
      <component glyphName="D" x="0" y="0" flags="0x1000"/>
      <component glyphName="caron.cap" x="112" y="179" flags="0x1000"/>
    </TTGlyph>
    <TTGlyph name="Dcroat" xMin="49" yMin="-7" xMax="628" yMax="838">
      <component glyphName="D" x="0" y="0" flags="0x1000"/>
      <component glyphName="macron" x="115" y="179" flags="0x1000"/>
    </TTGlyph>
    <TTGlyph name="Delta" xMin="-20" yMin="0" xMax="539" yMax="643">
      <contour>
        <pt x="-20" y="0" on="1"/>
        <pt x="271" y="643" on="1"/>
        <pt x="427" y="643" on="1"/>
        <pt x="539" y="0" on="1"/>
      </contour>
      <contour>
        <pt x="144" y="101" on="1"/>
        <pt x="397" y="101" on="1"/>
        <pt x="335" y="519" on="1"/>
        <pt x="326" y="519" on="1"/>
      </contour>
    </TTGlyph>
    <TTGlyph name="E" xMin="48" yMin="0" xMax="531" yMax="643">
      <contour>
        <pt x="226" y="379" on="1"/>
        <pt x="333" y="378" on="1"/>
        <pt x="435" y="381" on="1"/>
        <pt x="442" y="371" on="1"/>
        <pt x="420" y="272" on="1"/>
        <pt x="310" y="275" on="1"/>
        <pt x="211" y="274" on="1"/>
        <pt x="201" y="204" on="1"/>
        <pt x="191" y="105" on="1"/>
        <pt x="302" y="104" on="1"/>
        <pt x="456" y="109" on="1"/>
        <pt x="461" y="99" on="1"/>
        <pt x="441" y="0" on="1"/>
        <pt x="48" y="0" on="1"/>
        <pt x="79" y="192" on="1"/>
        <pt x="129" y="643" on="1"/>
        <pt x="525" y="643" on="1"/>
        <pt x="531" y="633" on="1"/>
        <pt x="509" y="534" on="1"/>
        <pt x="360" y="539" on="1"/>
        <pt x="248" y="538" on="1"/>
      </contour>
    </TTGlyph>
    <TTGlyph name="Eacute" xMin="48" yMin="0" xMax="531" yMax="887">
      <component glyphName="E" x="0" y="0" flags="0x1000"/>
      <component glyphName="acute.cap" x="106" y="179" flags="0x1000"/>
    </TTGlyph>
    <TTGlyph name="Ebreve" xMin="48" yMin="0" xMax="531" yMax="867">
      <component glyphName="E" x="0" y="0" flags="0x1000"/>
      <component glyphName="breve.cap" x="94" y="179" flags="0x1000"/>
    </TTGlyph>
    <TTGlyph name="Ecaron" xMin="48" yMin="0" xMax="531" yMax="874">
      <component glyphName="E" x="0" y="0" flags="0x1000"/>
      <component glyphName="caron.cap" x="94" y="179" flags="0x1000"/>
    </TTGlyph>
    <TTGlyph name="Ecircumflex" xMin="48" yMin="0" xMax="531" yMax="882">
      <component glyphName="E" x="0" y="0" flags="0x1000"/>
      <component glyphName="circumflex.cap" x="101" y="179" flags="0x1000"/>
    </TTGlyph>
    <TTGlyph name="Ecircumflexacute" xMin="48" yMin="0" xMax="541" yMax="992">
      <component glyphName="E" x="0" y="0" flags="0x1000"/>
      <component glyphName="circumflexacute" x="99" y="179" flags="0x1000"/>
    </TTGlyph>
    <TTGlyph name="Ecircumflexdotbelow" xMin="48" yMin="-195" xMax="531" yMax="882">
      <component glyphName="E" x="0" y="0" flags="0x1000"/>
      <component glyphName="dotbelowcomb" x="117" y="0" flags="0x1000"/>
      <component glyphName="circumflex.cap" x="101" y="179" flags="0x1000"/>
    </TTGlyph>
    <TTGlyph name="Ecircumflexgrave" xMin="48" yMin="0" xMax="531" yMax="992">
      <component glyphName="E" x="0" y="0" flags="0x1000"/>
      <component glyphName="circumflexgrave" x="99" y="179" flags="0x1000"/>
    </TTGlyph>
    <TTGlyph name="Ecircumflexhookabove" xMin="48" yMin="0" xMax="531" yMax="1036">
      <component glyphName="E" x="0" y="0" flags="0x1000"/>
      <component glyphName="circumflexhookabove" x="99" y="179" flags="0x1000"/>
    </TTGlyph>
    <TTGlyph name="Ecircumflextilde" xMin="48" yMin="0" xMax="531" yMax="992">
      <component glyphName="E" x="0" y="0" flags="0x1000"/>
      <component glyphName="circumflexgrave" x="99" y="179" flags="0x1000"/>
    </TTGlyph>
    <TTGlyph name="Edieresis" xMin="48" yMin="0" xMax="531" yMax="859">
      <component glyphName="E" x="0" y="0" flags="0x1000"/>
      <component glyphName="dieresis" x="98" y="179" flags="0x1000"/>
    </TTGlyph>
    <TTGlyph name="Edotaccent" xMin="48" yMin="0" xMax="531" yMax="872">
      <component glyphName="E" x="0" y="0" flags="0x1000"/>
      <component glyphName="dotaccent" x="98" y="179" flags="0x1000"/>
    </TTGlyph>
    <TTGlyph name="Edotbelow" xMin="48" yMin="-195" xMax="531" yMax="643">
      <component glyphName="E" x="0" y="0" flags="0x1000"/>
      <component glyphName="dotbelowcomb" x="117" y="0" flags="0x1000"/>
    </TTGlyph>
    <TTGlyph name="Egrave" xMin="48" yMin="0" xMax="531" yMax="889">
      <component glyphName="E" x="0" y="0" flags="0x1000"/>
      <component glyphName="grave.cap" x="99" y="179" flags="0x1000"/>
    </TTGlyph>
    <TTGlyph name="Ehookabove" xMin="48" yMin="0" xMax="531" yMax="918">
      <component glyphName="E" x="0" y="0" flags="0x1000"/>
      <component glyphName="hookabove" x="60" y="179" flags="0x1000"/>
    </TTGlyph>
    <TTGlyph name="Emacron" xMin="48" yMin="0" xMax="531" yMax="838">
      <component glyphName="E" x="0" y="0" flags="0x1000"/>
      <component glyphName="macron" x="98" y="179" flags="0x1000"/>
    </TTGlyph>
    <TTGlyph name="Eng" xMin="49" yMin="-170" xMax="655" yMax="646">
      <contour>
        <pt x="579" y="56" on="1"/>
        <pt x="571" y="0" on="0"/>
        <pt x="524" y="-80" on="0"/>
        <pt x="434" y="-142" on="0"/>
        <pt x="358" y="-170" on="1"/>
        <pt x="326" y="-100" on="1"/>
        <pt x="328" y="-87" on="1"/>
        <pt x="413" y="-44" on="0"/>
        <pt x="438" y="1" on="1"/>
        <pt x="229" y="441" on="1"/>
        <pt x="220" y="441" on="1"/>
        <pt x="193" y="221" on="1"/>
        <pt x="170" y="0" on="1"/>
        <pt x="49" y="0" on="1"/>
        <pt x="80" y="190" on="1"/>
        <pt x="129" y="643" on="1"/>
        <pt x="272" y="643" on="1"/>
        <pt x="474" y="212" on="1"/>
        <pt x="483" y="212" on="1"/>
        <pt x="531" y="638" on="1"/>
        <pt x="655" y="646" on="1"/>
        <pt x="592" y="198" on="1"/>
      </contour>
    </TTGlyph>
    <TTGlyph name="Eogonek" xMin="48" yMin="-197" xMax="531" yMax="643">
      <contour>
        <pt x="225" y="379" on="1"/>
        <pt x="333" y="378" on="1"/>
        <pt x="435" y="381" on="1"/>
        <pt x="442" y="371" on="1"/>
        <pt x="421" y="272" on="1"/>
        <pt x="311" y="275" on="1"/>
        <pt x="210" y="274" on="1"/>
        <pt x="200" y="204" on="1"/>
        <pt x="190" y="105" on="1"/>
        <pt x="302" y="104" on="1"/>
        <pt x="455" y="109" on="1"/>
        <pt x="461" y="99" on="1"/>
        <pt x="440" y="0" on="1"/>
        <pt x="375" y="0" on="1"/>
        <pt x="349" y="-39" on="1"/>
        <pt x="333" y="-66" on="0"/>
        <pt x="333" y="-86" on="1"/>
        <pt x="333" y="-123" on="0"/>
        <pt x="371" y="-123" on="1"/>
        <pt x="401" y="-123" on="0"/>
        <pt x="436" y="-93" on="1"/>
        <pt x="443" y="-93" on="1"/>
        <pt x="454" y="-147" on="1"/>
        <pt x="401" y="-197" on="0"/>
        <pt x="351" y="-197" on="1"/>
        <pt x="311" y="-197" on="0"/>
        <pt x="261" y="-148" on="0"/>
        <pt x="261" y="-110" on="1"/>
        <pt x="261" y="-69" on="0"/>
        <pt x="290" y="-28" on="1"/>
        <pt x="310" y="0" on="1"/>
        <pt x="48" y="0" on="1"/>
        <pt x="79" y="192" on="1"/>
        <pt x="129" y="643" on="1"/>
        <pt x="525" y="643" on="1"/>
        <pt x="531" y="633" on="1"/>
        <pt x="510" y="534" on="1"/>
        <pt x="361" y="539" on="1"/>
        <pt x="247" y="538" on="1"/>
      </contour>
    </TTGlyph>
    <TTGlyph name="Eth" xMin="26" yMin="-7" xMax="655" yMax="647">
      <contour>
        <pt x="521" y="647" on="0"/>
        <pt x="655" y="516" on="0"/>
        <pt x="655" y="396" on="1"/>
        <pt x="655" y="207" on="0"/>
        <pt x="471" y="-7" on="0"/>
        <pt x="301" y="-7" on="1"/>
        <pt x="186" y="-7" on="0"/>
        <pt x="76" y="0" on="1"/>
        <pt x="107" y="192" on="1"/>
        <pt x="116" y="276" on="1"/>
        <pt x="31" y="276" on="1"/>
        <pt x="26" y="285" on="1"/>
        <pt x="37" y="364" on="1"/>
        <pt x="126" y="364" on="1"/>
        <pt x="156" y="643" on="1"/>
        <pt x="400" y="647" on="1"/>
      </contour>
      <contour>
        <pt x="419" y="95" on="0"/>
        <pt x="516" y="234" on="0"/>
        <pt x="516" y="375" on="1"/>
        <pt x="516" y="461" on="0"/>
        <pt x="451" y="542" on="0"/>
        <pt x="384" y="542" on="1"/>
        <pt x="344" y="542" on="0"/>
        <pt x="274" y="538" on="1"/>
        <pt x="250" y="364" on="1"/>
        <pt x="370" y="364" on="1"/>
        <pt x="375" y="355" on="1"/>
        <pt x="365" y="276" on="1"/>
        <pt x="237" y="276" on="1"/>
        <pt x="227" y="204" on="1"/>
        <pt x="218" y="103" on="1"/>
        <pt x="280" y="95" on="0"/>
        <pt x="330" y="95" on="1"/>
      </contour>
    </TTGlyph>
    <TTGlyph name="Etilde" xMin="48" yMin="0" xMax="531" yMax="878">
      <component glyphName="E" x="0" y="0" flags="0x1000"/>
      <component glyphName="tilde" x="98" y="179" flags="0x1000"/>
    </TTGlyph>
    <TTGlyph name="Euro" xMin="4" yMin="-7" xMax="484" yMax="509">
      <contour>
        <pt x="428" y="509" on="0"/>
        <pt x="484" y="480" on="1"/>
        <pt x="454" y="393" on="1"/>
        <pt x="445" y="389" on="1"/>
        <pt x="402" y="419" on="0"/>
        <pt x="342" y="419" on="1"/>
        <pt x="252" y="419" on="0"/>
        <pt x="216" y="336" on="1"/>
        <pt x="367" y="336" on="1"/>
        <pt x="373" y="330" on="1"/>
        <pt x="361" y="272" on="1"/>
        <pt x="21" y="272" on="1"/>
        <pt x="17" y="278" on="1"/>
        <pt x="28" y="336" on="1"/>
        <pt x="102" y="336" on="1"/>
        <pt x="133" y="420" on="0"/>
        <pt x="261" y="509" on="0"/>
        <pt x="355" y="509" on="1"/>
      </contour>
      <contour>
        <pt x="329" y="83" on="0"/>
        <pt x="394" y="99" on="0"/>
        <pt x="420" y="113" on="1"/>
        <pt x="429" y="106" on="1"/>
        <pt x="410" y="20" on="1"/>
        <pt x="350" y="-7" on="0"/>
        <pt x="287" y="-7" on="1"/>
        <pt x="192" y="-7" on="0"/>
        <pt x="86" y="78" on="0"/>
        <pt x="78" y="159" on="1"/>
        <pt x="8" y="159" on="1"/>
        <pt x="4" y="165" on="1"/>
        <pt x="15" y="223" on="1"/>
        <pt x="354" y="223" on="1"/>
        <pt x="358" y="217" on="1"/>
        <pt x="347" y="159" on="1"/>
        <pt x="198" y="159" on="1"/>
        <pt x="216" y="83" on="0"/>
        <pt x="302" y="83" on="1"/>
      </contour>
    </TTGlyph>
    <TTGlyph name="F" xMin="48" yMin="0" xMax="507" yMax="643">
      <contour>
        <pt x="223" y="361" on="1"/>
        <pt x="309" y="360" on="1"/>
        <pt x="417" y="363" on="1"/>
        <pt x="423" y="353" on="1"/>
        <pt x="402" y="255" on="1"/>
        <pt x="287" y="258" on="1"/>
        <pt x="209" y="257" on="1"/>
        <pt x="201" y="204" on="1"/>
        <pt x="181" y="0" on="1"/>
        <pt x="48" y="0" on="1"/>
        <pt x="79" y="192" on="1"/>
        <pt x="129" y="643" on="1"/>
        <pt x="501" y="643" on="1"/>
        <pt x="507" y="633" on="1"/>
        <pt x="485" y="533" on="1"/>
        <pt x="338" y="539" on="1"/>
        <pt x="248" y="538" on="1"/>
      </contour>
    </TTGlyph>
    <TTGlyph name="G" xMin="35" yMin="-9" xMax="587" yMax="651">
      <contour>
        <pt x="505" y="651" on="0"/>
        <pt x="587" y="613" on="1"/>
        <pt x="543" y="493" on="1"/>
        <pt x="531" y="492" on="1"/>
        <pt x="486" y="520" on="0"/>
        <pt x="415" y="544" on="0"/>
        <pt x="372" y="544" on="1"/>
        <pt x="273" y="544" on="0"/>
        <pt x="173" y="409" on="0"/>
        <pt x="173" y="257" on="1"/>
        <pt x="173" y="171" on="0"/>
        <pt x="242" y="95" on="0"/>
        <pt x="317" y="95" on="1"/>
        <pt x="351" y="95" on="0"/>
        <pt x="400" y="111" on="1"/>
        <pt x="409" y="166" on="1"/>
        <pt x="419" y="266" on="1"/>
        <pt x="542" y="274" on="1"/>
        <pt x="529" y="187" on="1"/>
        <pt x="512" y="31" on="1"/>
        <pt x="398" y="-9" on="0"/>
        <pt x="302" y="-9" on="1"/>
        <pt x="172" y="-9" on="0"/>
        <pt x="35" y="128" on="0"/>
        <pt x="35" y="252" on="1"/>
        <pt x="35" y="444" on="0"/>
        <pt x="224" y="651" on="0"/>
        <pt x="400" y="651" on="1"/>
      </contour>
    </TTGlyph>
    <TTGlyph name="Gbreve" xMin="35" yMin="-9" xMax="587" yMax="867">
      <component glyphName="G" x="0" y="0" flags="0x1000"/>
      <component glyphName="breve.cap" x="134" y="179" flags="0x1000"/>
    </TTGlyph>
    <TTGlyph name="Gcircumflex" xMin="35" yMin="-9" xMax="587" yMax="882">
      <component glyphName="G" x="0" y="0" flags="0x1000"/>
      <component glyphName="circumflex.cap" x="141" y="179" flags="0x1000"/>
    </TTGlyph>
    <TTGlyph name="Gcommaaccent" xMin="35" yMin="-273" xMax="587" yMax="651">
      <component glyphName="G" x="0" y="0" flags="0x1000"/>
      <component glyphName="commaaccentcomb" x="152" y="2" flags="0x1000"/>
    </TTGlyph>
    <TTGlyph name="Gdieresis" xMin="35" yMin="-9" xMax="587" yMax="859">
      <component glyphName="G" x="0" y="0" flags="0x1000"/>
      <component glyphName="dieresis" x="138" y="179" flags="0x1000"/>
    </TTGlyph>
    <TTGlyph name="Gdotaccent" xMin="35" yMin="-9" xMax="587" yMax="872">
      <component glyphName="G" x="0" y="0" flags="0x1000"/>
      <component glyphName="dotaccent" x="138" y="179" flags="0x1000"/>
    </TTGlyph>
    <TTGlyph name="Gtilde" xMin="35" yMin="-9" xMax="587" yMax="878">
      <component glyphName="G" x="0" y="0" flags="0x1000"/>
      <component glyphName="tilde" x="138" y="179" flags="0x1000"/>
    </TTGlyph>
    <TTGlyph name="H" xMin="48" yMin="0" xMax="653" yMax="643">
      <contour>
        <pt x="591" y="204" on="1"/>
        <pt x="571" y="0" on="1"/>
        <pt x="439" y="0" on="1"/>
        <pt x="470" y="192" on="1"/>
        <pt x="478" y="268" on="1"/>
        <pt x="336" y="271" on="1"/>
        <pt x="209" y="267" on="1"/>
        <pt x="200" y="204" on="1"/>
        <pt x="181" y="0" on="1"/>
        <pt x="48" y="0" on="1"/>
        <pt x="79" y="192" on="1"/>
        <pt x="128" y="643" on="1"/>
        <pt x="262" y="643" on="1"/>
        <pt x="225" y="378" on="1"/>
        <pt x="358" y="375" on="1"/>
        <pt x="490" y="378" on="1"/>
        <pt x="518" y="643" on="1"/>
        <pt x="653" y="643" on="1"/>
      </contour>
    </TTGlyph>
    <TTGlyph name="Hbar" xMin="61" yMin="0" xMax="717" yMax="643">
      <contour>
        <pt x="643" y="475" on="1"/>
        <pt x="605" y="204" on="1"/>
        <pt x="585" y="0" on="1"/>
        <pt x="453" y="0" on="1"/>
        <pt x="484" y="192" on="1"/>
        <pt x="492" y="268" on="1"/>
        <pt x="350" y="271" on="1"/>
        <pt x="223" y="267" on="1"/>
        <pt x="214" y="204" on="1"/>
        <pt x="195" y="0" on="1"/>
        <pt x="62" y="0" on="1"/>
        <pt x="93" y="192" on="1"/>
        <pt x="124" y="475" on="1"/>
        <pt x="66" y="475" on="1"/>
        <pt x="61" y="482" on="1"/>
        <pt x="66" y="552" on="1"/>
        <pt x="132" y="552" on="1"/>
        <pt x="142" y="643" on="1"/>
        <pt x="276" y="643" on="1"/>
        <pt x="263" y="552" on="1"/>
        <pt x="522" y="552" on="1"/>
        <pt x="532" y="643" on="1"/>
        <pt x="667" y="643" on="1"/>
        <pt x="654" y="552" on="1"/>
        <pt x="711" y="552" on="1"/>
        <pt x="717" y="544" on="1"/>
        <pt x="712" y="475" on="1"/>
      </contour>
      <contour>
        <pt x="252" y="475" on="1"/>
        <pt x="239" y="378" on="1"/>
        <pt x="372" y="375" on="1"/>
        <pt x="504" y="378" on="1"/>
        <pt x="514" y="475" on="1"/>
      </contour>
    </TTGlyph>
    <TTGlyph name="Hcircumflex" xMin="48" yMin="0" xMax="653" yMax="882">
      <component glyphName="H" x="0" y="0" flags="0x1000"/>
      <component glyphName="circumflex.cap" x="170" y="179" flags="0x1000"/>
    </TTGlyph>
    <TTGlyph name="I" xMin="48" yMin="0" xMax="262" yMax="643">
      <contour>
        <pt x="181" y="0" on="1"/>
        <pt x="48" y="0" on="1"/>
        <pt x="79" y="192" on="1"/>
        <pt x="128" y="643" on="1"/>
        <pt x="262" y="643" on="1"/>
        <pt x="200" y="204" on="1"/>
      </contour>
    </TTGlyph>
    <TTGlyph name="I.ss01" xMin="-126" yMin="0" xMax="402" yMax="505">
      <contour>
        <pt x="169" y="48" on="1"/>
        <pt x="346" y="48" on="1"/>
        <pt x="340" y="0" on="1"/>
        <pt x="-126" y="0" on="1"/>
        <pt x="-120" y="48" on="1"/>
        <pt x="50" y="48" on="1"/>
        <pt x="66" y="150" on="1"/>
        <pt x="99" y="457" on="1"/>
        <pt x="-69" y="457" on="1"/>
        <pt x="-63" y="505" on="1"/>
        <pt x="402" y="505" on="1"/>
        <pt x="397" y="457" on="1"/>
        <pt x="221" y="457" on="1"/>
        <pt x="179" y="161" on="1"/>
      </contour>
    </TTGlyph>
    <TTGlyph name="IJ" xMin="48" yMin="-106" xMax="586" yMax="643">
      <component glyphName="I" x="0" y="0" flags="0x1000"/>
      <component glyphName="J" x="289" y="0" flags="0x1000"/>
    </TTGlyph>
    <TTGlyph name="Iacute" xMin="48" yMin="0" xMax="347" yMax="887">
      <component glyphName="I" x="0" y="0" flags="0x1000"/>
      <component glyphName="acute.cap" x="-20" y="179" flags="0x1000"/>
    </TTGlyph>
    <TTGlyph name="Iacute_J.loclNLD" xMin="48" yMin="-106" xMax="633" yMax="887">
      <component glyphName="I" x="0" y="0" flags="0x1000"/>
      <component glyphName="acute.cap" x="-20" y="179" flags="0x1000"/>
      <component glyphName="J" x="289" y="0" flags="0x1000"/>
      <component glyphName="acute.cap" x="266" y="179" flags="0x1000"/>
    </TTGlyph>
    <TTGlyph name="Ibreve" xMin="48" yMin="0" xMax="362" yMax="867">
      <component glyphName="I" x="0" y="0" flags="0x1000"/>
      <component glyphName="breve.cap" x="-33" y="179" flags="0x1000"/>
    </TTGlyph>
    <TTGlyph name="Icaron" xMin="48" yMin="0" xMax="358" yMax="874">
      <component glyphName="I" x="0" y="0" flags="0x1000"/>
      <component glyphName="caron.cap" x="-33" y="179" flags="0x1000"/>
    </TTGlyph>
    <TTGlyph name="Icircumflex" xMin="48" yMin="0" xMax="360" yMax="882">
      <component glyphName="I" x="0" y="0" flags="0x1000"/>
      <component glyphName="circumflex.cap" x="-26" y="179" flags="0x1000"/>
    </TTGlyph>
    <TTGlyph name="Idieresis" xMin="48" yMin="0" xMax="350" yMax="858">
      <component glyphName="I" x="0" y="0" flags="0x1000"/>
      <component glyphName="dieresis.i" x="-29" y="179" flags="0x1000"/>
    </TTGlyph>
    <TTGlyph name="Idotaccent" xMin="48" yMin="0" xMax="281" yMax="872">
      <component glyphName="I" x="0" y="0" flags="0x1000"/>
      <component glyphName="dotaccent" x="-29" y="179" flags="0x1000"/>
    </TTGlyph>
    <TTGlyph name="Idotbelow" xMin="37" yMin="-195" xMax="262" yMax="643">
      <component glyphName="I" x="0" y="0" flags="0x1000"/>
      <component glyphName="dotbelowcomb" x="-45" y="0" flags="0x1000"/>
    </TTGlyph>
    <TTGlyph name="Igrave" xMin="48" yMin="0" xMax="340" yMax="889">
      <component glyphName="I" x="0" y="0" flags="0x1000"/>
      <component glyphName="grave.cap" x="-27" y="179" flags="0x1000"/>
    </TTGlyph>
    <TTGlyph name="Ihookabove" xMin="48" yMin="0" xMax="274" yMax="918">
      <component glyphName="I" x="0" y="0" flags="0x1000"/>
      <component glyphName="hookabove" x="-67" y="179" flags="0x1000"/>
    </TTGlyph>
    <TTGlyph name="Imacron" xMin="48" yMin="0" xMax="333" yMax="838">
      <component glyphName="I" x="0" y="0" flags="0x1000"/>
      <component glyphName="macron.i" x="-29" y="179" flags="0x1000"/>
    </TTGlyph>
    <TTGlyph name="Iogonek" xMin="-8" yMin="-197" xMax="262" yMax="643">
      <contour>
        <pt x="200" y="204" on="1"/>
        <pt x="180" y="0" on="1"/>
        <pt x="117" y="0" on="1"/>
        <pt x="64" y="-64" on="0"/>
        <pt x="64" y="-94" on="1"/>
        <pt x="64" y="-123" on="0"/>
        <pt x="95" y="-123" on="1"/>
        <pt x="127" y="-123" on="0"/>
        <pt x="155" y="-93" on="1"/>
        <pt x="162" y="-93" on="1"/>
        <pt x="175" y="-149" on="1"/>
        <pt x="122" y="-197" on="0"/>
        <pt x="76" y="-197" on="1"/>
        <pt x="39" y="-197" on="0"/>
        <pt x="-8" y="-150" on="0"/>
        <pt x="-8" y="-113" on="1"/>
        <pt x="-8" y="-90" on="0"/>
        <pt x="16" y="-41" on="0"/>
        <pt x="48" y="0" on="1"/>
        <pt x="79" y="192" on="1"/>
        <pt x="128" y="643" on="1"/>
        <pt x="262" y="643" on="1"/>
      </contour>
    </TTGlyph>
    <TTGlyph name="Itilde" xMin="48" yMin="0" xMax="367" yMax="875">
      <component glyphName="I" x="0" y="0" flags="0x1000"/>
      <component glyphName="tilde.i" x="-29" y="179" flags="0x1000"/>
    </TTGlyph>
    <TTGlyph name="J" xMin="-26" yMin="-106" xMax="297" yMax="643">
      <contour>
        <pt x="235" y="212" on="1"/>
        <pt x="227" y="120" on="1"/>
        <pt x="216" y="37" on="0"/>
        <pt x="117" y="-64" on="0"/>
        <pt x="6" y="-106" on="1"/>
        <pt x="-26" y="-36" on="1"/>
        <pt x="-25" y="-23" on="1"/>
        <pt x="40" y="9" on="0"/>
        <pt x="98" y="73" on="0"/>
        <pt x="105" y="123" on="1"/>
        <pt x="115" y="200" on="1"/>
        <pt x="152" y="546" on="1"/>
        <pt x="49" y="544" on="1"/>
        <pt x="41" y="553" on="1"/>
        <pt x="58" y="643" on="1"/>
        <pt x="297" y="643" on="1"/>
      </contour>
    </TTGlyph>
    <TTGlyph name="Jcircumflex" xMin="-26" yMin="-106" xMax="357" yMax="882">
      <component glyphName="J" x="0" y="0" flags="0x1000"/>
      <component glyphName="circumflex.cap" x="-29" y="179" flags="0x1000"/>
    </TTGlyph>
    <TTGlyph name="K" xMin="48" yMin="-10" xMax="610" yMax="643">
      <contour>
        <pt x="432" y="194" on="0"/>
        <pt x="552" y="28" on="1"/>
        <pt x="548" y="13" on="1"/>
        <pt x="488" y="-2" on="0"/>
        <pt x="416" y="-10" on="1"/>
        <pt x="403" y="-2" on="1"/>
        <pt x="285" y="197" on="0"/>
        <pt x="218" y="330" on="1"/>
        <pt x="200" y="204" on="1"/>
        <pt x="180" y="0" on="1"/>
        <pt x="48" y="0" on="1"/>
        <pt x="79" y="192" on="1"/>
        <pt x="128" y="643" on="1"/>
        <pt x="262" y="643" on="1"/>
        <pt x="220" y="345" on="1"/>
        <pt x="424" y="582" on="1"/>
        <pt x="468" y="643" on="1"/>
        <pt x="610" y="643" on="1"/>
        <pt x="352" y="335" on="1"/>
      </contour>
    </TTGlyph>
    <TTGlyph name="Kcommaaccent" xMin="48" yMin="-273" xMax="610" yMax="643">
      <component glyphName="K" x="0" y="0" flags="0x1000"/>
      <component glyphName="commaaccentcomb" x="130" y="2" flags="0x1000"/>
    </TTGlyph>
    <TTGlyph name="L" xMin="45" yMin="0" xMax="404" yMax="643">
      <contour>
        <pt x="383" y="0" on="1"/>
        <pt x="45" y="0" on="1"/>
        <pt x="76" y="192" on="1"/>
        <pt x="125" y="643" on="1"/>
        <pt x="259" y="643" on="1"/>
        <pt x="197" y="204" on="1"/>
        <pt x="188" y="109" on="1"/>
        <pt x="398" y="109" on="1"/>
        <pt x="404" y="99" on="1"/>
      </contour>
    </TTGlyph>
    <TTGlyph name="L.ss01" xMin="-127" yMin="0" xMax="506" yMax="505">
      <contour>
        <pt x="170" y="103" on="1"/>
        <pt x="338" y="103" on="1"/>
        <pt x="330" y="48" on="1"/>
        <pt x="449" y="48" on="1"/>
        <pt x="443" y="0" on="1"/>
        <pt x="-127" y="0" on="1"/>
        <pt x="-122" y="48" on="1"/>
        <pt x="49" y="48" on="1"/>
        <pt x="66" y="157" on="1"/>
        <pt x="99" y="457" on="1"/>
        <pt x="-71" y="457" on="1"/>
        <pt x="-65" y="505" on="1"/>
        <pt x="506" y="505" on="1"/>
        <pt x="500" y="457" on="1"/>
        <pt x="220" y="457" on="1"/>
        <pt x="178" y="169" on="1"/>
      </contour>
    </TTGlyph>
    <TTGlyph name="Lacute" xMin="45" yMin="0" xMax="404" yMax="887">
      <component glyphName="L" x="0" y="0" flags="0x1000"/>
      <component glyphName="acute.cap" x="-24" y="179" flags="0x1000"/>
    </TTGlyph>
    <TTGlyph name="Lcaron" xMin="45" yMin="0" xMax="470" yMax="643">
      <contour>
        <pt x="404" y="99" on="1"/>
        <pt x="383" y="0" on="1"/>
        <pt x="45" y="0" on="1"/>
        <pt x="76" y="192" on="1"/>
        <pt x="125" y="643" on="1"/>
        <pt x="259" y="643" on="1"/>
        <pt x="197" y="204" on="1"/>
        <pt x="188" y="109" on="1"/>
        <pt x="398" y="109" on="1"/>
      </contour>
      <contour>
        <pt x="414" y="384" on="1"/>
        <pt x="355" y="375" on="1"/>
        <pt x="347" y="382" on="1"/>
        <pt x="371" y="585" on="1"/>
        <pt x="463" y="590" on="1"/>
        <pt x="470" y="582" on="1"/>
      </contour>
    </TTGlyph>
    <TTGlyph name="Lcommaaccent" xMin="45" yMin="-273" xMax="404" yMax="643">
      <component glyphName="L" x="0" y="0" flags="0x1000"/>
      <component glyphName="commaaccentcomb" x="43" y="2" flags="0x1000"/>
    </TTGlyph>
    <TTGlyph name="Ldot" xMin="49" yMin="0" xMax="440" yMax="643">
      <component glyphName="L" x="4" y="0" flags="0x1000"/>
      <component glyphName="period" x="278" y="325" flags="0x1000"/>
    </TTGlyph>
    <TTGlyph name="Lslash" xMin="3" yMin="0" xMax="412" yMax="643">
      <contour>
        <pt x="391" y="0" on="1"/>
        <pt x="53" y="0" on="1"/>
        <pt x="84" y="192" on="1"/>
        <pt x="90" y="250" on="1"/>
        <pt x="28" y="219" on="1"/>
        <pt x="17" y="225" on="1"/>
        <pt x="3" y="302" on="1"/>
        <pt x="101" y="351" on="1"/>
        <pt x="133" y="643" on="1"/>
        <pt x="267" y="643" on="1"/>
        <pt x="235" y="417" on="1"/>
        <pt x="341" y="470" on="1"/>
        <pt x="353" y="464" on="1"/>
        <pt x="368" y="387" on="1"/>
        <pt x="221" y="314" on="1"/>
        <pt x="205" y="204" on="1"/>
        <pt x="196" y="109" on="1"/>
        <pt x="406" y="109" on="1"/>
        <pt x="412" y="99" on="1"/>
      </contour>
    </TTGlyph>
    <TTGlyph name="M" xMin="15" yMin="0" xMax="725" yMax="643">
      <contour>
        <pt x="584" y="0" on="1"/>
        <pt x="599" y="195" on="1"/>
        <pt x="607" y="448" on="1"/>
        <pt x="598" y="448" on="1"/>
        <pt x="411" y="68" on="1"/>
        <pt x="308" y="68" on="1"/>
        <pt x="228" y="448" on="1"/>
        <pt x="218" y="448" on="1"/>
        <pt x="165" y="207" on="1"/>
        <pt x="126" y="0" on="1"/>
        <pt x="15" y="0" on="1"/>
        <pt x="159" y="643" on="1"/>
        <pt x="310" y="643" on="1"/>
        <pt x="324" y="548" on="1"/>
        <pt x="384" y="239" on="1"/>
        <pt x="393" y="239" on="1"/>
        <pt x="536" y="549" on="1"/>
        <pt x="575" y="643" on="1"/>
        <pt x="725" y="643" on="1"/>
        <pt x="701" y="0" on="1"/>
      </contour>
    </TTGlyph>
    <TTGlyph name="M.ss01" xMin="-126" yMin="0" xMax="798" yMax="505">
      <contour>
        <pt x="577" y="48" on="1"/>
        <pt x="741" y="48" on="1"/>
        <pt x="735" y="0" on="1"/>
        <pt x="-126" y="0" on="1"/>
        <pt x="-120" y="48" on="1"/>
        <pt x="38" y="48" on="1"/>
        <pt x="131" y="457" on="1"/>
        <pt x="-69" y="457" on="1"/>
        <pt x="-63" y="505" on="1"/>
        <pt x="798" y="505" on="1"/>
        <pt x="792" y="457" on="1"/>
        <pt x="591" y="457" on="1"/>
      </contour>
      <contour>
        <pt x="278" y="457" on="1"/>
        <pt x="284" y="426" on="1"/>
        <pt x="329" y="237" on="1"/>
        <pt x="336" y="237" on="1"/>
        <pt x="431" y="425" on="1"/>
        <pt x="446" y="457" on="1"/>
      </contour>
      <contour>
        <pt x="487" y="170" on="1"/>
        <pt x="492" y="330" on="1"/>
        <pt x="485" y="330" on="1"/>
        <pt x="352" y="88" on="1"/>
        <pt x="263" y="88" on="1"/>
        <pt x="199" y="330" on="1"/>
        <pt x="192" y="330" on="1"/>
        <pt x="158" y="179" on="1"/>
        <pt x="135" y="48" on="1"/>
        <pt x="476" y="48" on="1"/>
      </contour>
    </TTGlyph>
    <TTGlyph name="N" xMin="49" yMin="0" xMax="654" yMax="646">
      <contour>
        <pt x="571" y="0" on="1"/>
        <pt x="429" y="0" on="1"/>
        <pt x="229" y="441" on="1"/>
        <pt x="220" y="441" on="1"/>
        <pt x="192" y="221" on="1"/>
        <pt x="170" y="0" on="1"/>
        <pt x="49" y="0" on="1"/>
        <pt x="79" y="190" on="1"/>
        <pt x="129" y="643" on="1"/>
        <pt x="271" y="643" on="1"/>
        <pt x="471" y="202" on="1"/>
        <pt x="480" y="202" on="1"/>
        <pt x="531" y="638" on="1"/>
        <pt x="654" y="646" on="1"/>
        <pt x="590" y="198" on="1"/>
      </contour>
    </TTGlyph>
    <TTGlyph name="Nacute" xMin="49" yMin="0" xMax="654" yMax="887">
      <component glyphName="N" x="0" y="0" flags="0x1000"/>
      <component glyphName="acute.cap" x="176" y="179" flags="0x1000"/>
    </TTGlyph>
    <TTGlyph name="Ncaron" xMin="49" yMin="0" xMax="654" yMax="874">
      <component glyphName="N" x="0" y="0" flags="0x1000"/>
      <component glyphName="caron.cap" x="164" y="179" flags="0x1000"/>
    </TTGlyph>
    <TTGlyph name="Ncommaaccent" xMin="49" yMin="-273" xMax="654" yMax="646">
      <component glyphName="N" x="0" y="0" flags="0x1000"/>
      <component glyphName="commaaccentcomb" x="149" y="2" flags="0x1000"/>
    </TTGlyph>
    <TTGlyph name="Ntilde" xMin="49" yMin="0" xMax="654" yMax="878">
      <component glyphName="N" x="0" y="0" flags="0x1000"/>
      <component glyphName="tilde" x="168" y="179" flags="0x1000"/>
    </TTGlyph>
    <TTGlyph name="O" xMin="37" yMin="-10" xMax="619" yMax="652">
      <contour>
        <pt x="488" y="652" on="0"/>
        <pt x="619" y="515" on="0"/>
        <pt x="619" y="384" on="1"/>
        <pt x="619" y="266" on="0"/>
        <pt x="541" y="88" on="0"/>
        <pt x="391" y="-10" on="0"/>
        <pt x="286" y="-10" on="1"/>
        <pt x="168" y="-10" on="0"/>
        <pt x="37" y="131" on="0"/>
        <pt x="37" y="263" on="1"/>
        <pt x="37" y="381" on="0"/>
        <pt x="114" y="557" on="0"/>
        <pt x="263" y="652" on="0"/>
        <pt x="369" y="652" on="1"/>
      </contour>
      <contour>
        <pt x="263" y="545" on="0"/>
        <pt x="174" y="412" on="0"/>
        <pt x="174" y="266" on="1"/>
        <pt x="174" y="175" on="0"/>
        <pt x="233" y="92" on="0"/>
        <pt x="299" y="92" on="1"/>
        <pt x="389" y="92" on="0"/>
        <pt x="479" y="226" on="0"/>
        <pt x="479" y="373" on="1"/>
        <pt x="479" y="464" on="0"/>
        <pt x="420" y="545" on="0"/>
        <pt x="353" y="545" on="1"/>
      </contour>
    </TTGlyph>
    <TTGlyph name="OE" xMin="36" yMin="-12" xMax="881" yMax="655">
      <contour>
        <pt x="434" y="655" on="0"/>
        <pt x="494" y="649" on="1"/>
        <pt x="548" y="643" on="0"/>
        <pt x="574" y="643" on="1"/>
        <pt x="874" y="643" on="1"/>
        <pt x="881" y="633" on="1"/>
        <pt x="859" y="534" on="1"/>
        <pt x="713" y="539" on="1"/>
        <pt x="596" y="539" on="1"/>
        <pt x="576" y="379" on="1"/>
        <pt x="679" y="378" on="1"/>
        <pt x="786" y="381" on="1"/>
        <pt x="792" y="371" on="1"/>
        <pt x="770" y="272" on="1"/>
        <pt x="657" y="275" on="1"/>
        <pt x="559" y="274" on="1"/>
        <pt x="551" y="202" on="1"/>
        <pt x="540" y="105" on="1"/>
        <pt x="647" y="104" on="1"/>
        <pt x="805" y="109" on="1"/>
        <pt x="812" y="99" on="1"/>
        <pt x="791" y="0" on="1"/>
        <pt x="494" y="0" on="1"/>
        <pt x="457" y="1" on="0"/>
        <pt x="394" y="-6" on="1"/>
        <pt x="328" y="-12" on="0"/>
        <pt x="294" y="-12" on="1"/>
        <pt x="170" y="-12" on="0"/>
        <pt x="36" y="131" on="0"/>
        <pt x="36" y="261" on="1"/>
        <pt x="36" y="382" on="0"/>
        <pt x="123" y="560" on="0"/>
        <pt x="286" y="655" on="0"/>
        <pt x="397" y="655" on="1"/>
      </contour>
      <contour>
        <pt x="272" y="548" on="0"/>
        <pt x="174" y="412" on="0"/>
        <pt x="174" y="265" on="1"/>
        <pt x="174" y="176" on="0"/>
        <pt x="244" y="90" on="0"/>
        <pt x="318" y="90" on="1"/>
        <pt x="374" y="90" on="0"/>
        <pt x="398" y="102" on="1"/>
        <pt x="420" y="112" on="0"/>
        <pt x="424" y="145" on="1"/>
        <pt x="462" y="492" on="1"/>
        <pt x="463" y="499" on="0"/>
        <pt x="463" y="510" on="1"/>
        <pt x="463" y="529" on="0"/>
        <pt x="455" y="534" on="1"/>
        <pt x="436" y="548" on="0"/>
        <pt x="372" y="548" on="1"/>
      </contour>
    </TTGlyph>
    <TTGlyph name="Oacute" xMin="37" yMin="-10" xMax="619" yMax="887">
      <component glyphName="O" x="0" y="0" flags="0x1000"/>
      <component glyphName="acute.cap" x="152" y="179" flags="0x1000"/>
    </TTGlyph>
    <TTGlyph name="Obreve" xMin="37" yMin="-10" xMax="619" yMax="867">
      <component glyphName="O" x="0" y="0" flags="0x1000"/>
      <component glyphName="breve.cap" x="139" y="179" flags="0x1000"/>
    </TTGlyph>
    <TTGlyph name="Ocaron" xMin="37" yMin="-10" xMax="619" yMax="874">
      <component glyphName="O" x="0" y="0" flags="0x1000"/>
      <component glyphName="caron.cap" x="139" y="179" flags="0x1000"/>
    </TTGlyph>
    <TTGlyph name="Ocircumflex" xMin="37" yMin="-10" xMax="619" yMax="882">
      <component glyphName="O" x="0" y="0" flags="0x1000"/>
      <component glyphName="circumflex.cap" x="146" y="179" flags="0x1000"/>
    </TTGlyph>
    <TTGlyph name="Ocircumflexacute" xMin="37" yMin="-10" xMax="619" yMax="992">
      <component glyphName="O" x="0" y="0" flags="0x1000"/>
      <component glyphName="circumflexacute" x="145" y="179" flags="0x1000"/>
    </TTGlyph>
    <TTGlyph name="Ocircumflexdotbelow" xMin="37" yMin="-195" xMax="619" yMax="882">
      <contour>
        <pt x="322" y="831" on="0"/>
        <pt x="381" y="882" on="1"/>
        <pt x="409" y="882" on="1"/>
        <pt x="459" y="833" on="0"/>
        <pt x="533" y="779" on="1"/>
        <pt x="503" y="727" on="1"/>
        <pt x="490" y="727" on="1"/>
        <pt x="449" y="752" on="0"/>
        <pt x="391" y="791" on="1"/>
        <pt x="356" y="771" on="0"/>
        <pt x="312" y="748" on="1"/>
        <pt x="272" y="727" on="1"/>
        <pt x="259" y="727" on="1"/>
        <pt x="241" y="779" on="1"/>
      </contour>
      <contour>
        <pt x="488" y="652" on="0"/>
        <pt x="619" y="515" on="0"/>
        <pt x="619" y="384" on="1"/>
        <pt x="619" y="265" on="0"/>
        <pt x="542" y="88" on="0"/>
        <pt x="392" y="-10" on="0"/>
        <pt x="286" y="-10" on="1"/>
        <pt x="168" y="-10" on="0"/>
        <pt x="37" y="131" on="0"/>
        <pt x="37" y="263" on="1"/>
        <pt x="37" y="381" on="0"/>
        <pt x="114" y="557" on="0"/>
        <pt x="264" y="652" on="0"/>
        <pt x="369" y="652" on="1"/>
      </contour>
      <contour>
        <pt x="263" y="545" on="0"/>
        <pt x="174" y="412" on="0"/>
        <pt x="174" y="266" on="1"/>
        <pt x="174" y="175" on="0"/>
        <pt x="233" y="92" on="0"/>
        <pt x="299" y="92" on="1"/>
        <pt x="389" y="92" on="0"/>
        <pt x="480" y="226" on="0"/>
        <pt x="480" y="373" on="1"/>
        <pt x="480" y="463" on="0"/>
        <pt x="421" y="545" on="0"/>
        <pt x="354" y="545" on="1"/>
      </contour>
      <contour>
        <pt x="334" y="-56" on="0"/>
        <pt x="368" y="-91" on="0"/>
        <pt x="368" y="-122" on="1"/>
        <pt x="368" y="-156" on="0"/>
        <pt x="330" y="-195" on="0"/>
        <pt x="298" y="-195" on="1"/>
        <pt x="266" y="-195" on="0"/>
        <pt x="232" y="-160" on="0"/>
        <pt x="232" y="-128" on="1"/>
        <pt x="232" y="-95" on="0"/>
        <pt x="270" y="-56" on="0"/>
        <pt x="303" y="-56" on="1"/>
      </contour>
    </TTGlyph>
    <TTGlyph name="Ocircumflexgrave" xMin="37" yMin="-10" xMax="619" yMax="992">
      <component glyphName="O" x="0" y="0" flags="0x1000"/>
      <component glyphName="circumflexgrave" x="145" y="179" flags="0x1000"/>
    </TTGlyph>
    <TTGlyph name="Ocircumflexhookabove" xMin="37" yMin="-10" xMax="619" yMax="1036">
      <component glyphName="O" x="0" y="0" flags="0x1000"/>
      <component glyphName="circumflexhookabove" x="145" y="179" flags="0x1000"/>
    </TTGlyph>
    <TTGlyph name="Ocircumflextilde" xMin="37" yMin="-10" xMax="619" yMax="1017">
      <component glyphName="O" x="0" y="0" flags="0x1000"/>
      <component glyphName="circumflextilde" x="158" y="179" flags="0x1000"/>
    </TTGlyph>
    <TTGlyph name="Odieresis" xMin="37" yMin="-10" xMax="619" yMax="859">
      <component glyphName="O" x="0" y="0" flags="0x1000"/>
      <component glyphName="dieresis" x="143" y="179" flags="0x1000"/>
    </TTGlyph>
    <TTGlyph name="Odotbelow" xMin="37" yMin="-195" xMax="619" yMax="652">
      <component glyphName="O" x="0" y="0" flags="0x1000"/>
      <component glyphName="dotbelowcomb" x="150" y="0" flags="0x1000"/>
    </TTGlyph>
    <TTGlyph name="Ograve" xMin="37" yMin="-10" xMax="619" yMax="889">
      <component glyphName="O" x="0" y="0" flags="0x1000"/>
      <component glyphName="grave.cap" x="145" y="179" flags="0x1000"/>
    </TTGlyph>
    <TTGlyph name="Ohm" xMin="-2" yMin="-6" xMax="693" yMax="652">
      <component glyphName="Omega" x="0" y="0" flags="0x1000"/>
    </TTGlyph>
    <TTGlyph name="Ohookabove" xMin="37" yMin="-10" xMax="619" yMax="918">
      <component glyphName="O" x="0" y="0" flags="0x1000"/>
      <component glyphName="hookabove" x="106" y="179" flags="0x1000"/>
    </TTGlyph>
    <TTGlyph name="Ohorn" xMin="37" yMin="-10" xMax="702" yMax="775">
      <contour>
        <pt x="670" y="775" on="0"/>
        <pt x="702" y="731" on="0"/>
        <pt x="702" y="695" on="1"/>
        <pt x="702" y="641" on="0"/>
        <pt x="628" y="569" on="0"/>
        <pt x="571" y="561" on="1"/>
        <pt x="618" y="494" on="0"/>
        <pt x="618" y="380" on="1"/>
        <pt x="618" y="266" on="0"/>
        <pt x="538" y="89" on="0"/>
        <pt x="388" y="-10" on="0"/>
        <pt x="285" y="-10" on="1"/>
        <pt x="164" y="-10" on="0"/>
        <pt x="37" y="132" on="0"/>
        <pt x="37" y="272" on="1"/>
        <pt x="37" y="385" on="0"/>
        <pt x="118" y="557" on="0"/>
        <pt x="266" y="652" on="0"/>
        <pt x="363" y="652" on="1"/>
        <pt x="415" y="652" on="0"/>
        <pt x="480" y="634" on="1"/>
        <pt x="517" y="623" on="0"/>
        <pt x="535" y="623" on="1"/>
        <pt x="564" y="623" on="0"/>
        <pt x="600" y="653" on="0"/>
        <pt x="600" y="681" on="1"/>
        <pt x="600" y="715" on="0"/>
        <pt x="577" y="740" on="1"/>
        <pt x="581" y="750" on="1"/>
        <pt x="618" y="775" on="0"/>
        <pt x="646" y="775" on="1"/>
      </contour>
      <contour>
        <pt x="174" y="545" on="0"/>
        <pt x="174" y="274" on="1"/>
        <pt x="174" y="177" on="0"/>
        <pt x="231" y="92" on="0"/>
        <pt x="301" y="92" on="1"/>
        <pt x="480" y="92" on="0"/>
        <pt x="480" y="366" on="1"/>
        <pt x="480" y="461" on="0"/>
        <pt x="423" y="545" on="0"/>
        <pt x="353" y="545" on="1"/>
      </contour>
    </TTGlyph>
    <TTGlyph name="Ohornacute" xMin="37" yMin="-10" xMax="702" yMax="887">
      <component glyphName="Ohorn" x="0" y="0" flags="0x1000"/>
      <component glyphName="acute.cap" x="152" y="179" flags="0x1000"/>
    </TTGlyph>
    <TTGlyph name="Ohorndotbelow" xMin="37" yMin="-195" xMax="702" yMax="775">
      <component glyphName="Ohorn" x="0" y="0" flags="0x1000"/>
      <component glyphName="dotbelowcomb" x="150" y="0" flags="0x1000"/>
    </TTGlyph>
    <TTGlyph name="Ohorngrave" xMin="37" yMin="-10" xMax="702" yMax="889">
      <component glyphName="Ohorn" x="0" y="0" flags="0x1000"/>
      <component glyphName="grave.cap" x="145" y="179" flags="0x1000"/>
    </TTGlyph>
    <TTGlyph name="Ohornhookabove" xMin="37" yMin="-10" xMax="702" yMax="918">
      <component glyphName="Ohorn" x="0" y="0" flags="0x1000"/>
      <component glyphName="hookabove" x="106" y="179" flags="0x1000"/>
    </TTGlyph>
    <TTGlyph name="Ohorntilde" xMin="37" yMin="-10" xMax="702" yMax="878">
      <component glyphName="Ohorn" x="0" y="0" flags="0x1000"/>
      <component glyphName="tilde" x="143" y="179" flags="0x1000"/>
    </TTGlyph>
    <TTGlyph name="Ohungarumlaut" xMin="37" yMin="-10" xMax="619" yMax="884">
      <component glyphName="O" x="0" y="0" flags="0x1000"/>
      <component glyphName="hungarumlaut.cap" x="145" y="179" flags="0x1000"/>
    </TTGlyph>
    <TTGlyph name="Omacron" xMin="37" yMin="-10" xMax="619" yMax="838">
      <component glyphName="O" x="0" y="0" flags="0x1000"/>
      <component glyphName="macron" x="143" y="179" flags="0x1000"/>
    </TTGlyph>
    <TTGlyph name="Omega" xMin="-2" yMin="-6" xMax="693" yMax="652">
      <contour>
        <pt x="541" y="652" on="0"/>
        <pt x="675" y="517" on="0"/>
        <pt x="675" y="408" on="1"/>
        <pt x="675" y="329" on="0"/>
        <pt x="600" y="171" on="0"/>
        <pt x="527" y="104" on="1"/>
        <pt x="529" y="99" on="1"/>
        <pt x="605" y="99" on="1"/>
        <pt x="687" y="108" on="1"/>
        <pt x="693" y="100" on="1"/>
        <pt x="665" y="-6" on="1"/>
        <pt x="554" y="0" on="1"/>
        <pt x="417" y="0" on="1"/>
        <pt x="380" y="-2" on="1"/>
        <pt x="375" y="3" on="1"/>
        <pt x="385" y="88" on="1"/>
        <pt x="461" y="151" on="0"/>
        <pt x="536" y="308" on="0"/>
        <pt x="536" y="390" on="1"/>
        <pt x="536" y="546" on="0"/>
        <pt x="404" y="546" on="1"/>
        <pt x="321" y="546" on="0"/>
        <pt x="231" y="426" on="0"/>
        <pt x="231" y="321" on="1"/>
        <pt x="231" y="252" on="0"/>
        <pt x="273" y="131" on="0"/>
        <pt x="313" y="88" on="1"/>
        <pt x="303" y="3" on="1"/>
        <pt x="296" y="-2" on="1"/>
        <pt x="260" y="0" on="1"/>
        <pt x="100" y="0" on="1"/>
        <pt x="5" y="-4" on="1"/>
        <pt x="-2" y="5" on="1"/>
        <pt x="27" y="106" on="1"/>
        <pt x="114" y="99" on="1"/>
        <pt x="173" y="99" on="1"/>
        <pt x="175" y="104" on="1"/>
        <pt x="95" y="199" on="0"/>
        <pt x="95" y="335" on="1"/>
        <pt x="95" y="422" on="0"/>
        <pt x="170" y="567" on="0"/>
        <pt x="314" y="652" on="0"/>
        <pt x="414" y="652" on="1"/>
      </contour>
    </TTGlyph>
    <TTGlyph name="Oogonek" xMin="37" yMin="-197" xMax="619" yMax="652">
      <contour>
        <pt x="384" y="-66" on="0"/>
        <pt x="384" y="-86" on="1"/>
        <pt x="384" y="-123" on="0"/>
        <pt x="422" y="-123" on="1"/>
        <pt x="452" y="-123" on="0"/>
        <pt x="487" y="-93" on="1"/>
        <pt x="494" y="-93" on="1"/>
        <pt x="505" y="-147" on="1"/>
        <pt x="452" y="-197" on="0"/>
        <pt x="402" y="-197" on="1"/>
        <pt x="362" y="-197" on="0"/>
        <pt x="312" y="-147" on="0"/>
        <pt x="312" y="-110" on="1"/>
        <pt x="312" y="-69" on="0"/>
        <pt x="341" y="-28" on="1"/>
        <pt x="358" y="-3" on="1"/>
        <pt x="327" y="-10" on="0"/>
        <pt x="286" y="-10" on="1"/>
        <pt x="168" y="-10" on="0"/>
        <pt x="37" y="131" on="0"/>
        <pt x="37" y="263" on="1"/>
        <pt x="37" y="381" on="0"/>
        <pt x="114" y="557" on="0"/>
        <pt x="264" y="652" on="0"/>
        <pt x="369" y="652" on="1"/>
        <pt x="488" y="652" on="0"/>
        <pt x="619" y="515" on="0"/>
        <pt x="619" y="384" on="1"/>
        <pt x="619" y="255" on="0"/>
        <pt x="528" y="69" on="0"/>
        <pt x="442" y="25" on="1"/>
        <pt x="400" y="-39" on="1"/>
      </contour>
      <contour>
        <pt x="174" y="175" on="0"/>
        <pt x="233" y="92" on="0"/>
        <pt x="299" y="92" on="1"/>
        <pt x="389" y="92" on="0"/>
        <pt x="480" y="226" on="0"/>
        <pt x="480" y="373" on="1"/>
        <pt x="480" y="463" on="0"/>
        <pt x="421" y="545" on="0"/>
        <pt x="354" y="545" on="1"/>
        <pt x="263" y="545" on="0"/>
        <pt x="174" y="412" on="0"/>
        <pt x="174" y="266" on="1"/>
      </contour>
    </TTGlyph>
    <TTGlyph name="Oslash" xMin="37" yMin="-117" xMax="619" yMax="736">
      <contour>
        <pt x="619" y="526" on="0"/>
        <pt x="619" y="384" on="1"/>
        <pt x="619" y="265" on="0"/>
        <pt x="542" y="88" on="0"/>
        <pt x="392" y="-10" on="0"/>
        <pt x="286" y="-10" on="1"/>
        <pt x="236" y="-10" on="0"/>
        <pt x="192" y="4" on="1"/>
        <pt x="121" y="-117" on="1"/>
        <pt x="52" y="-86" on="1"/>
        <pt x="48" y="-75" on="1"/>
        <pt x="119" y="45" on="1"/>
        <pt x="37" y="116" on="0"/>
        <pt x="37" y="263" on="1"/>
        <pt x="37" y="381" on="0"/>
        <pt x="114" y="557" on="0"/>
        <pt x="264" y="652" on="0"/>
        <pt x="369" y="652" on="1"/>
        <pt x="424" y="652" on="0"/>
        <pt x="467" y="637" on="1"/>
        <pt x="526" y="736" on="1"/>
        <pt x="593" y="706" on="1"/>
        <pt x="599" y="692" on="1"/>
        <pt x="541" y="595" on="1"/>
      </contour>
      <contour>
        <pt x="389" y="92" on="0"/>
        <pt x="480" y="226" on="0"/>
        <pt x="480" y="373" on="1"/>
        <pt x="480" y="463" on="0"/>
        <pt x="421" y="545" on="0"/>
        <pt x="354" y="545" on="1"/>
        <pt x="263" y="545" on="0"/>
        <pt x="174" y="412" on="0"/>
        <pt x="174" y="266" on="1"/>
        <pt x="174" y="175" on="0"/>
        <pt x="233" y="92" on="0"/>
        <pt x="299" y="92" on="1"/>
      </contour>
    </TTGlyph>
    <TTGlyph name="Oslashacute" xMin="37" yMin="-117" xMax="619" yMax="889">
      <component glyphName="Oslash" x="0" y="0" flags="0x1000"/>
      <component glyphName="acute.cap" x="140" y="181" flags="0x1000"/>
    </TTGlyph>
    <TTGlyph name="Otilde" xMin="37" yMin="-10" xMax="619" yMax="878">
      <component glyphName="O" x="0" y="0" flags="0x1000"/>
      <component glyphName="tilde" x="143" y="179" flags="0x1000"/>
    </TTGlyph>
    <TTGlyph name="P" xMin="49" yMin="0" xMax="550" yMax="644">
      <contour>
        <pt x="449" y="644" on="0"/>
        <pt x="550" y="557" on="0"/>
        <pt x="550" y="473" on="1"/>
        <pt x="550" y="396" on="0"/>
        <pt x="481" y="275" on="0"/>
        <pt x="353" y="207" on="0"/>
        <pt x="268" y="207" on="1"/>
        <pt x="201" y="207" on="1"/>
        <pt x="201" y="204" on="1"/>
        <pt x="181" y="0" on="1"/>
        <pt x="49" y="0" on="1"/>
        <pt x="80" y="192" on="1"/>
        <pt x="129" y="643" on="1"/>
        <pt x="359" y="644" on="1"/>
      </contour>
      <contour>
        <pt x="358" y="317" on="0"/>
        <pt x="412" y="395" on="0"/>
        <pt x="412" y="452" on="1"/>
        <pt x="412" y="498" on="0"/>
        <pt x="366" y="544" on="0"/>
        <pt x="315" y="547" on="1"/>
        <pt x="249" y="544" on="1"/>
        <pt x="216" y="308" on="1"/>
        <pt x="310" y="305" on="1"/>
      </contour>
    </TTGlyph>
    <TTGlyph name="Q" xMin="37" yMin="-201" xMax="688" yMax="652">
      <contour>
        <pt x="658" y="-164" on="0"/>
        <pt x="621" y="-196" on="1"/>
        <pt x="611" y="-201" on="1"/>
        <pt x="426" y="-134" on="0"/>
        <pt x="296" y="-10" on="1"/>
        <pt x="285" y="-10" on="1"/>
        <pt x="168" y="-10" on="0"/>
        <pt x="37" y="131" on="0"/>
        <pt x="37" y="263" on="1"/>
        <pt x="37" y="381" on="0"/>
        <pt x="114" y="557" on="0"/>
        <pt x="264" y="652" on="0"/>
        <pt x="370" y="652" on="1"/>
        <pt x="489" y="652" on="0"/>
        <pt x="619" y="515" on="0"/>
        <pt x="619" y="384" on="1"/>
        <pt x="619" y="248" on="0"/>
        <pt x="517" y="56" on="0"/>
        <pt x="422" y="16" on="1"/>
        <pt x="540" y="-63" on="0"/>
        <pt x="684" y="-98" on="1"/>
        <pt x="688" y="-112" on="1"/>
      </contour>
      <contour>
        <pt x="174" y="175" on="0"/>
        <pt x="233" y="92" on="0"/>
        <pt x="299" y="92" on="1"/>
        <pt x="389" y="92" on="0"/>
        <pt x="479" y="226" on="0"/>
        <pt x="479" y="373" on="1"/>
        <pt x="479" y="464" on="0"/>
        <pt x="420" y="545" on="0"/>
        <pt x="353" y="545" on="1"/>
        <pt x="263" y="545" on="0"/>
        <pt x="174" y="412" on="0"/>
        <pt x="174" y="266" on="1"/>
      </contour>
    </TTGlyph>
    <TTGlyph name="R" xMin="48" yMin="-10" xMax="551" yMax="644">
      <contour>
        <pt x="551" y="409" on="0"/>
        <pt x="475" y="290" on="0"/>
        <pt x="408" y="254" on="1"/>
        <pt x="462" y="142" on="0"/>
        <pt x="531" y="31" on="1"/>
        <pt x="528" y="16" on="1"/>
        <pt x="460" y="-6" on="0"/>
        <pt x="395" y="-10" on="1"/>
        <pt x="383" y="0" on="1"/>
        <pt x="334" y="113" on="0"/>
        <pt x="295" y="219" on="1"/>
        <pt x="202" y="219" on="1"/>
        <pt x="200" y="204" on="1"/>
        <pt x="181" y="0" on="1"/>
        <pt x="48" y="0" on="1"/>
        <pt x="79" y="192" on="1"/>
        <pt x="129" y="643" on="1"/>
        <pt x="361" y="644" on="1"/>
        <pt x="450" y="644" on="0"/>
        <pt x="551" y="559" on="0"/>
        <pt x="551" y="481" on="1"/>
      </contour>
      <contour>
        <pt x="312" y="317" on="1"/>
        <pt x="412" y="351" on="0"/>
        <pt x="412" y="459" on="1"/>
        <pt x="412" y="542" on="0"/>
        <pt x="315" y="547" on="1"/>
        <pt x="249" y="544" on="1"/>
        <pt x="217" y="321" on="1"/>
      </contour>
    </TTGlyph>
    <TTGlyph name="Racute" xMin="48" yMin="-10" xMax="551" yMax="901">
      <component glyphName="R" x="0" y="0" flags="0x1000"/>
      <component glyphName="acute" x="117" y="179" flags="0x1000"/>
    </TTGlyph>
    <TTGlyph name="Rcaron" xMin="48" yMin="-10" xMax="551" yMax="893">
      <component glyphName="R" x="0" y="0" flags="0x1000"/>
      <component glyphName="caron" x="109" y="179" flags="0x1000"/>
    </TTGlyph>
    <TTGlyph name="Rcommaaccent" xMin="48" yMin="-273" xMax="551" yMax="644">
      <component glyphName="R" x="0" y="0" flags="0x1000"/>
      <component glyphName="commaaccentcomb" x="96" y="2" flags="0x1000"/>
    </TTGlyph>
    <TTGlyph name="S" xMin="9" yMin="-9" xMax="483" yMax="652">
      <contour>
        <pt x="403" y="652" on="0"/>
        <pt x="483" y="619" on="1"/>
        <pt x="448" y="505" on="1"/>
        <pt x="428" y="497" on="1"/>
        <pt x="363" y="548" on="0"/>
        <pt x="299" y="548" on="1"/>
        <pt x="258" y="548" on="0"/>
        <pt x="206" y="505" on="0"/>
        <pt x="206" y="475" on="1"/>
        <pt x="206" y="447" on="0"/>
        <pt x="252" y="407" on="0"/>
        <pt x="302" y="379" on="1"/>
        <pt x="348" y="353" on="0"/>
        <pt x="408" y="310" on="0"/>
        <pt x="450" y="243" on="0"/>
        <pt x="450" y="198" on="1"/>
        <pt x="450" y="141" on="0"/>
        <pt x="385" y="47" on="0"/>
        <pt x="269" y="-9" on="0"/>
        <pt x="197" y="-9" on="1"/>
        <pt x="98" y="-9" on="0"/>
        <pt x="9" y="33" on="1"/>
        <pt x="41" y="155" on="1"/>
        <pt x="56" y="163" on="1"/>
        <pt x="92" y="128" on="0"/>
        <pt x="179" y="92" on="0"/>
        <pt x="217" y="92" on="1"/>
        <pt x="262" y="92" on="0"/>
        <pt x="315" y="136" on="0"/>
        <pt x="315" y="168" on="1"/>
        <pt x="315" y="198" on="0"/>
        <pt x="268" y="239" on="0"/>
        <pt x="218" y="267" on="1"/>
        <pt x="173" y="292" on="0"/>
        <pt x="115" y="334" on="0"/>
        <pt x="74" y="400" on="0"/>
        <pt x="74" y="446" on="1"/>
        <pt x="74" y="503" on="0"/>
        <pt x="138" y="598" on="0"/>
        <pt x="251" y="652" on="0"/>
        <pt x="321" y="652" on="1"/>
      </contour>
    </TTGlyph>
    <TTGlyph name="Sacute" xMin="9" yMin="-9" xMax="483" yMax="901">
      <component glyphName="S" x="0" y="0" flags="0x1000"/>
      <component glyphName="acute" x="75" y="179" flags="0x1000"/>
    </TTGlyph>
    <TTGlyph name="Scaron" xMin="9" yMin="-9" xMax="483" yMax="893">
      <component glyphName="S" x="0" y="0" flags="0x1000"/>
      <component glyphName="caron" x="68" y="179" flags="0x1000"/>
    </TTGlyph>
    <TTGlyph name="Scedilla" xMin="9" yMin="-200" xMax="483" yMax="652">
      <contour>
        <pt x="206" y="447" on="0"/>
        <pt x="252" y="407" on="0"/>
        <pt x="302" y="379" on="1"/>
        <pt x="348" y="353" on="0"/>
        <pt x="408" y="310" on="0"/>
        <pt x="450" y="243" on="0"/>
        <pt x="450" y="198" on="1"/>
        <pt x="450" y="145" on="0"/>
        <pt x="394" y="55" on="0"/>
        <pt x="292" y="-2" on="0"/>
        <pt x="227" y="-8" on="1"/>
        <pt x="217" y="-47" on="1"/>
        <pt x="251" y="-66" on="1"/>
        <pt x="292" y="-88" on="0"/>
        <pt x="292" y="-125" on="1"/>
        <pt x="292" y="-158" on="0"/>
        <pt x="241" y="-200" on="0"/>
        <pt x="199" y="-200" on="1"/>
        <pt x="155" y="-200" on="0"/>
        <pt x="117" y="-171" on="1"/>
        <pt x="127" y="-116" on="1"/>
        <pt x="133" y="-114" on="1"/>
        <pt x="163" y="-144" on="0"/>
        <pt x="191" y="-144" on="1"/>
        <pt x="216" y="-144" on="0"/>
        <pt x="216" y="-122" on="1"/>
        <pt x="216" y="-111" on="0"/>
        <pt x="199" y="-102" on="1"/>
        <pt x="150" y="-74" on="1"/>
        <pt x="165" y="-8" on="1"/>
        <pt x="83" y="-2" on="0"/>
        <pt x="9" y="33" on="1"/>
        <pt x="42" y="155" on="1"/>
        <pt x="57" y="163" on="1"/>
        <pt x="92" y="128" on="0"/>
        <pt x="179" y="92" on="0"/>
        <pt x="217" y="92" on="1"/>
        <pt x="262" y="92" on="0"/>
        <pt x="315" y="136" on="0"/>
        <pt x="315" y="168" on="1"/>
        <pt x="315" y="198" on="0"/>
        <pt x="269" y="239" on="0"/>
        <pt x="219" y="267" on="1"/>
        <pt x="174" y="292" on="0"/>
        <pt x="116" y="334" on="0"/>
        <pt x="75" y="400" on="0"/>
        <pt x="75" y="446" on="1"/>
        <pt x="75" y="503" on="0"/>
        <pt x="139" y="598" on="0"/>
        <pt x="251" y="652" on="0"/>
        <pt x="321" y="652" on="1"/>
        <pt x="403" y="652" on="0"/>
        <pt x="483" y="619" on="1"/>
        <pt x="449" y="505" on="1"/>
        <pt x="428" y="497" on="1"/>
        <pt x="363" y="548" on="0"/>
        <pt x="299" y="548" on="1"/>
        <pt x="258" y="548" on="0"/>
        <pt x="206" y="505" on="0"/>
        <pt x="206" y="475" on="1"/>
      </contour>
    </TTGlyph>
    <TTGlyph name="Scircumflex" xMin="9" yMin="-9" xMax="483" yMax="895">
      <component glyphName="S" x="0" y="0" flags="0x1000"/>
      <component glyphName="circumflex" x="79" y="179" flags="0x1000"/>
    </TTGlyph>
    <TTGlyph name="Scommaaccent" xMin="9" yMin="-273" xMax="483" yMax="652">
      <component glyphName="S" x="0" y="0" flags="0x1000"/>
      <component glyphName="commaaccentcomb" x="52" y="2" flags="0x1000"/>
    </TTGlyph>
    <TTGlyph name="T" xMin="54" yMin="0" xMax="525" yMax="643">
      <contour>
        <pt x="505" y="535" on="1"/>
        <pt x="388" y="541" on="1"/>
        <pt x="350" y="541" on="1"/>
        <pt x="303" y="204" on="1"/>
        <pt x="283" y="0" on="1"/>
        <pt x="151" y="0" on="1"/>
        <pt x="183" y="192" on="1"/>
        <pt x="221" y="541" on="1"/>
        <pt x="182" y="541" on="1"/>
        <pt x="61" y="535" on="1"/>
        <pt x="54" y="545" on="1"/>
        <pt x="76" y="643" on="1"/>
        <pt x="519" y="643" on="1"/>
        <pt x="525" y="633" on="1"/>
      </contour>
    </TTGlyph>
    <TTGlyph name="Tbar" xMin="54" yMin="0" xMax="525" yMax="643">
      <contour>
        <pt x="321" y="341" on="1"/>
        <pt x="411" y="341" on="1"/>
        <pt x="420" y="332" on="1"/>
        <pt x="414" y="269" on="1"/>
        <pt x="311" y="269" on="1"/>
        <pt x="302" y="204" on="1"/>
        <pt x="283" y="0" on="1"/>
        <pt x="151" y="0" on="1"/>
        <pt x="183" y="192" on="1"/>
        <pt x="191" y="269" on="1"/>
        <pt x="106" y="269" on="1"/>
        <pt x="98" y="277" on="1"/>
        <pt x="103" y="341" on="1"/>
        <pt x="199" y="341" on="1"/>
        <pt x="221" y="541" on="1"/>
        <pt x="181" y="541" on="1"/>
        <pt x="61" y="535" on="1"/>
        <pt x="54" y="545" on="1"/>
        <pt x="75" y="643" on="1"/>
        <pt x="519" y="643" on="1"/>
        <pt x="525" y="633" on="1"/>
        <pt x="504" y="535" on="1"/>
        <pt x="388" y="541" on="1"/>
        <pt x="349" y="541" on="1"/>
      </contour>
    </TTGlyph>
    <TTGlyph name="Tcaron" xMin="54" yMin="0" xMax="525" yMax="893">
      <component glyphName="T" x="0" y="0" flags="0x1000"/>
      <component glyphName="caron" x="67" y="179" flags="0x1000"/>
    </TTGlyph>
    <TTGlyph name="Tcedilla" xMin="54" yMin="-193" xMax="525" yMax="643">
      <contour>
        <pt x="504" y="535" on="1"/>
        <pt x="388" y="541" on="1"/>
        <pt x="349" y="541" on="1"/>
        <pt x="302" y="204" on="1"/>
        <pt x="283" y="0" on="1"/>
        <pt x="245" y="0" on="1"/>
        <pt x="235" y="-46" on="1"/>
        <pt x="266" y="-65" on="1"/>
        <pt x="305" y="-89" on="0"/>
        <pt x="305" y="-122" on="1"/>
        <pt x="305" y="-153" on="0"/>
        <pt x="256" y="-193" on="0"/>
        <pt x="217" y="-193" on="1"/>
        <pt x="180" y="-193" on="0"/>
        <pt x="141" y="-166" on="1"/>
        <pt x="150" y="-114" on="1"/>
        <pt x="156" y="-112" on="1"/>
        <pt x="183" y="-141" on="0"/>
        <pt x="210" y="-141" on="1"/>
        <pt x="232" y="-141" on="0"/>
        <pt x="232" y="-120" on="1"/>
        <pt x="232" y="-107" on="0"/>
        <pt x="218" y="-98" on="1"/>
        <pt x="172" y="-71" on="1"/>
        <pt x="188" y="0" on="1"/>
        <pt x="151" y="0" on="1"/>
        <pt x="183" y="192" on="1"/>
        <pt x="221" y="541" on="1"/>
        <pt x="181" y="541" on="1"/>
        <pt x="61" y="535" on="1"/>
        <pt x="54" y="545" on="1"/>
        <pt x="75" y="643" on="1"/>
        <pt x="519" y="643" on="1"/>
        <pt x="525" y="633" on="1"/>
      </contour>
    </TTGlyph>
    <TTGlyph name="Thorn" xMin="49" yMin="0" xMax="543" yMax="643">
      <contour>
        <pt x="442" y="542" on="0"/>
        <pt x="543" y="455" on="0"/>
        <pt x="543" y="372" on="1"/>
        <pt x="543" y="296" on="0"/>
        <pt x="474" y="176" on="0"/>
        <pt x="347" y="108" on="0"/>
        <pt x="263" y="108" on="1"/>
        <pt x="192" y="108" on="1"/>
        <pt x="182" y="0" on="1"/>
        <pt x="49" y="0" on="1"/>
        <pt x="79" y="192" on="1"/>
        <pt x="129" y="643" on="1"/>
        <pt x="263" y="643" on="1"/>
        <pt x="249" y="542" on="1"/>
        <pt x="353" y="542" on="1"/>
      </contour>
      <contour>
        <pt x="352" y="217" on="0"/>
        <pt x="406" y="294" on="0"/>
        <pt x="406" y="352" on="1"/>
        <pt x="406" y="397" on="0"/>
        <pt x="361" y="442" on="0"/>
        <pt x="310" y="445" on="1"/>
        <pt x="235" y="441" on="1"/>
        <pt x="202" y="209" on="1"/>
        <pt x="304" y="205" on="1"/>
      </contour>
    </TTGlyph>
    <TTGlyph name="U" xMin="58" yMin="-9" xMax="613" yMax="643">
      <contour>
        <pt x="557" y="233" on="1"/>
        <pt x="544" y="116" on="0"/>
        <pt x="404" y="-9" on="0"/>
        <pt x="283" y="-9" on="1"/>
        <pt x="178" y="-9" on="0"/>
        <pt x="58" y="88" on="0"/>
        <pt x="58" y="178" on="1"/>
        <pt x="58" y="204" on="0"/>
        <pt x="62" y="227" on="1"/>
        <pt x="75" y="320" on="1"/>
        <pt x="111" y="643" on="1"/>
        <pt x="243" y="643" on="1"/>
        <pt x="188" y="245" on="1"/>
        <pt x="185" y="224" on="0"/>
        <pt x="185" y="207" on="1"/>
        <pt x="185" y="100" on="0"/>
        <pt x="293" y="100" on="1"/>
        <pt x="420" y="100" on="0"/>
        <pt x="436" y="238" on="1"/>
        <pt x="480" y="643" on="1"/>
        <pt x="613" y="643" on="1"/>
        <pt x="568" y="317" on="1"/>
      </contour>
    </TTGlyph>
    <TTGlyph name="Uacute" xMin="58" yMin="-9" xMax="613" yMax="887">
      <component glyphName="U" x="0" y="0" flags="0x1000"/>
      <component glyphName="acute.cap" x="148" y="179" flags="0x1000"/>
    </TTGlyph>
    <TTGlyph name="Ubreve" xMin="58" yMin="-9" xMax="613" yMax="877">
      <component glyphName="U" x="0" y="0" flags="0x1000"/>
      <component glyphName="breve" x="134" y="179" flags="0x1000"/>
    </TTGlyph>
    <TTGlyph name="Ucaron" xMin="58" yMin="-9" xMax="613" yMax="893">
      <component glyphName="U" x="0" y="0" flags="0x1000"/>
      <component glyphName="caron" x="134" y="179" flags="0x1000"/>
    </TTGlyph>
    <TTGlyph name="Ucircumflex" xMin="58" yMin="-9" xMax="613" yMax="882">
      <component glyphName="U" x="0" y="0" flags="0x1000"/>
      <component glyphName="circumflex.cap" x="142" y="179" flags="0x1000"/>
    </TTGlyph>
    <TTGlyph name="Udieresis" xMin="58" yMin="-9" xMax="613" yMax="859">
      <component glyphName="U" x="0" y="0" flags="0x1000"/>
      <component glyphName="dieresis" x="139" y="179" flags="0x1000"/>
    </TTGlyph>
    <TTGlyph name="Udieresisacute" xMin="58" yMin="-9" xMax="613" yMax="1021">
      <component glyphName="U" x="0" y="0" flags="0x1000"/>
      <component glyphName="dieresisacute" x="141" y="179" flags="0x1000"/>
    </TTGlyph>
    <TTGlyph name="Udieresiscaron" xMin="58" yMin="-9" xMax="613" yMax="1007">
      <component glyphName="U" x="0" y="0" flags="0x1000"/>
      <component glyphName="dieresiscaron" x="141" y="179" flags="0x1000"/>
    </TTGlyph>
    <TTGlyph name="Udieresisgrave" xMin="58" yMin="-9" xMax="613" yMax="1021">
      <component glyphName="U" x="0" y="0" flags="0x1000"/>
      <component glyphName="dieresisgrave" x="135" y="179" flags="0x1000"/>
    </TTGlyph>
    <TTGlyph name="Udieresismacron" xMin="58" yMin="-9" xMax="613" yMax="977">
      <component glyphName="U" x="0" y="0" flags="0x1000"/>
      <component glyphName="dieresismacron" x="141" y="179" flags="0x1000"/>
    </TTGlyph>
    <TTGlyph name="Udotbelow" xMin="58" yMin="-195" xMax="613" yMax="643">
      <component glyphName="U" x="0" y="0" flags="0x1000"/>
      <component glyphName="dotbelowcomb" x="129" y="0" flags="0x1000"/>
    </TTGlyph>
    <TTGlyph name="Ugrave" xMin="58" yMin="-9" xMax="613" yMax="889">
      <component glyphName="U" x="0" y="0" flags="0x1000"/>
      <component glyphName="grave.cap" x="141" y="179" flags="0x1000"/>
    </TTGlyph>
    <TTGlyph name="Uhookabove" xMin="58" yMin="-9" xMax="613" yMax="918">
      <component glyphName="U" x="0" y="0" flags="0x1000"/>
      <component glyphName="hookabove" x="101" y="179" flags="0x1000"/>
    </TTGlyph>
    <TTGlyph name="Uhorn" xMin="58" yMin="-9" xMax="688" yMax="788">
      <contour>
        <pt x="688" y="669" on="0"/>
        <pt x="644" y="611" on="0"/>
        <pt x="606" y="594" on="1"/>
        <pt x="568" y="317" on="1"/>
        <pt x="557" y="233" on="1"/>
        <pt x="544" y="116" on="0"/>
        <pt x="404" y="-9" on="0"/>
        <pt x="283" y="-9" on="1"/>
        <pt x="177" y="-9" on="0"/>
        <pt x="58" y="88" on="0"/>
        <pt x="58" y="178" on="1"/>
        <pt x="58" y="204" on="0"/>
        <pt x="62" y="227" on="1"/>
        <pt x="75" y="320" on="1"/>
        <pt x="111" y="643" on="1"/>
        <pt x="242" y="643" on="1"/>
        <pt x="187" y="245" on="1"/>
        <pt x="185" y="217" on="0"/>
        <pt x="185" y="207" on="1"/>
        <pt x="185" y="100" on="0"/>
        <pt x="293" y="100" on="1"/>
        <pt x="420" y="100" on="0"/>
        <pt x="436" y="238" on="1"/>
        <pt x="480" y="643" on="1"/>
        <pt x="528" y="643" on="1"/>
        <pt x="588" y="643" on="0"/>
        <pt x="588" y="693" on="1"/>
        <pt x="588" y="724" on="0"/>
        <pt x="558" y="753" on="1"/>
        <pt x="561" y="763" on="1"/>
        <pt x="597" y="788" on="0"/>
        <pt x="623" y="788" on="1"/>
        <pt x="649" y="788" on="0"/>
        <pt x="688" y="740" on="0"/>
        <pt x="688" y="704" on="1"/>
      </contour>
    </TTGlyph>
    <TTGlyph name="Uhornacute" xMin="58" yMin="-9" xMax="688" yMax="887">
      <component glyphName="Uhorn" x="0" y="0" flags="0x1000"/>
      <component glyphName="acute.cap" x="134" y="179" flags="0x1000"/>
    </TTGlyph>
    <TTGlyph name="Uhorndotbelow" xMin="58" yMin="-195" xMax="688" yMax="788">
      <component glyphName="Uhorn" x="0" y="0" flags="0x1000"/>
      <component glyphName="dotbelowcomb" x="131" y="0" flags="0x1000"/>
    </TTGlyph>
    <TTGlyph name="Uhorngrave" xMin="58" yMin="-9" xMax="688" yMax="889">
      <component glyphName="Uhorn" x="0" y="0" flags="0x1000"/>
      <component glyphName="grave.cap" x="126" y="179" flags="0x1000"/>
    </TTGlyph>
    <TTGlyph name="Uhornhookabove" xMin="58" yMin="-9" xMax="688" yMax="918">
      <component glyphName="Uhorn" x="0" y="0" flags="0x1000"/>
      <component glyphName="hookabove" x="87" y="179" flags="0x1000"/>
    </TTGlyph>
    <TTGlyph name="Uhorntilde" xMin="58" yMin="-9" xMax="688" yMax="878">
      <component glyphName="Uhorn" x="0" y="0" flags="0x1000"/>
      <component glyphName="tilde" x="125" y="179" flags="0x1000"/>
    </TTGlyph>
    <TTGlyph name="Uhungarumlaut" xMin="58" yMin="-9" xMax="613" yMax="884">
      <component glyphName="U" x="0" y="0" flags="0x1000"/>
      <component glyphName="hungarumlaut.cap" x="141" y="179" flags="0x1000"/>
    </TTGlyph>
    <TTGlyph name="Umacron" xMin="58" yMin="-9" xMax="613" yMax="838">
      <component glyphName="U" x="0" y="0" flags="0x1000"/>
      <component glyphName="macron" x="139" y="179" flags="0x1000"/>
    </TTGlyph>
    <TTGlyph name="Uogonek" xMin="58" yMin="-197" xMax="613" yMax="643">
      <contour>
        <pt x="568" y="317" on="1"/>
        <pt x="557" y="233" on="1"/>
        <pt x="542" y="97" on="0"/>
        <pt x="451" y="36" on="1"/>
        <pt x="403" y="-43" on="1"/>
        <pt x="386" y="-69" on="0"/>
        <pt x="386" y="-91" on="1"/>
        <pt x="386" y="-124" on="0"/>
        <pt x="421" y="-124" on="1"/>
        <pt x="455" y="-124" on="0"/>
        <pt x="486" y="-94" on="1"/>
        <pt x="493" y="-94" on="1"/>
        <pt x="505" y="-147" on="1"/>
        <pt x="450" y="-197" on="0"/>
        <pt x="403" y="-197" on="1"/>
        <pt x="364" y="-197" on="0"/>
        <pt x="316" y="-148" on="0"/>
        <pt x="316" y="-110" on="1"/>
        <pt x="316" y="-72" on="0"/>
        <pt x="342" y="-33" on="1"/>
        <pt x="364" y="-1" on="1"/>
        <pt x="324" y="-9" on="0"/>
        <pt x="283" y="-9" on="1"/>
        <pt x="177" y="-9" on="0"/>
        <pt x="58" y="88" on="0"/>
        <pt x="58" y="178" on="1"/>
        <pt x="58" y="204" on="0"/>
        <pt x="62" y="227" on="1"/>
        <pt x="75" y="320" on="1"/>
        <pt x="111" y="643" on="1"/>
        <pt x="242" y="643" on="1"/>
        <pt x="187" y="245" on="1"/>
        <pt x="185" y="217" on="0"/>
        <pt x="185" y="207" on="1"/>
        <pt x="185" y="100" on="0"/>
        <pt x="293" y="100" on="1"/>
        <pt x="420" y="100" on="0"/>
        <pt x="436" y="238" on="1"/>
        <pt x="480" y="643" on="1"/>
        <pt x="613" y="643" on="1"/>
      </contour>
    </TTGlyph>
    <TTGlyph name="Uring" xMin="58" yMin="-9" xMax="613" yMax="902">
      <component glyphName="U" x="0" y="0" flags="0x1000"/>
      <component glyphName="ring" x="138" y="179" flags="0x1000"/>
    </TTGlyph>
    <TTGlyph name="Utilde" xMin="58" yMin="-9" xMax="613" yMax="878">
      <component glyphName="U" x="0" y="0" flags="0x1000"/>
      <component glyphName="tilde" x="139" y="179" flags="0x1000"/>
    </TTGlyph>
    <TTGlyph name="V" xMin="60" yMin="0" xMax="619" yMax="643">
      <contour>
        <pt x="173" y="0" on="1"/>
        <pt x="60" y="643" on="1"/>
        <pt x="194" y="643" on="1"/>
        <pt x="200" y="560" on="1"/>
        <pt x="265" y="124" on="1"/>
        <pt x="273" y="124" on="1"/>
        <pt x="461" y="553" on="1"/>
        <pt x="490" y="643" on="1"/>
        <pt x="619" y="643" on="1"/>
        <pt x="330" y="0" on="1"/>
      </contour>
    </TTGlyph>
    <TTGlyph name="V.ss01" xMin="-126" yMin="0" xMax="634" yMax="505">
      <contour>
        <pt x="311" y="48" on="1"/>
        <pt x="578" y="48" on="1"/>
        <pt x="571" y="0" on="1"/>
        <pt x="-126" y="0" on="1"/>
        <pt x="-120" y="48" on="1"/>
        <pt x="144" y="48" on="1"/>
        <pt x="68" y="457" on="1"/>
        <pt x="-69" y="457" on="1"/>
        <pt x="-63" y="505" on="1"/>
        <pt x="634" y="505" on="1"/>
        <pt x="628" y="457" on="1"/>
        <pt x="501" y="457" on="1"/>
      </contour>
      <contour>
        <pt x="183" y="457" on="1"/>
        <pt x="185" y="426" on="1"/>
        <pt x="233" y="116" on="1"/>
        <pt x="241" y="116" on="1"/>
        <pt x="379" y="419" on="1"/>
        <pt x="390" y="457" on="1"/>
      </contour>
    </TTGlyph>
    <TTGlyph name="W" xMin="70" yMin="0" xMax="924" yMax="643">
      <contour>
        <pt x="500" y="0" on="1"/>
        <pt x="446" y="312" on="1"/>
        <pt x="437" y="312" on="1"/>
        <pt x="305" y="0" on="1"/>
        <pt x="164" y="0" on="1"/>
        <pt x="70" y="643" on="1"/>
        <pt x="199" y="643" on="1"/>
        <pt x="199" y="565" on="1"/>
        <pt x="257" y="137" on="1"/>
        <pt x="265" y="137" on="1"/>
        <pt x="414" y="487" on="1"/>
        <pt x="389" y="643" on="1"/>
        <pt x="524" y="643" on="1"/>
        <pt x="527" y="552" on="1"/>
        <pt x="588" y="137" on="1"/>
        <pt x="597" y="137" on="1"/>
        <pt x="775" y="558" on="1"/>
        <pt x="801" y="643" on="1"/>
        <pt x="924" y="643" on="1"/>
        <pt x="638" y="0" on="1"/>
      </contour>
    </TTGlyph>
    <TTGlyph name="Wacute" xMin="70" yMin="0" xMax="924" yMax="887">
      <component glyphName="W" x="0" y="0" flags="0x1000"/>
      <component glyphName="acute.cap" x="254" y="179" flags="0x1000"/>
    </TTGlyph>
    <TTGlyph name="Wcircumflex" xMin="70" yMin="0" xMax="924" yMax="882">
      <component glyphName="W" x="0" y="0" flags="0x1000"/>
      <component glyphName="circumflex.cap" x="248" y="179" flags="0x1000"/>
    </TTGlyph>
    <TTGlyph name="Wdieresis" xMin="70" yMin="0" xMax="924" yMax="859">
      <component glyphName="W" x="0" y="0" flags="0x1000"/>
      <component glyphName="dieresis" x="245" y="179" flags="0x1000"/>
    </TTGlyph>
    <TTGlyph name="Wgrave" xMin="70" yMin="0" xMax="924" yMax="889">
      <component glyphName="W" x="0" y="0" flags="0x1000"/>
      <component glyphName="grave.cap" x="247" y="179" flags="0x1000"/>
    </TTGlyph>
    <TTGlyph name="X" xMin="-14" yMin="0" xMax="620" yMax="643">
      <contour>
        <pt x="549" y="0" on="1"/>
        <pt x="395" y="0" on="1"/>
        <pt x="374" y="64" on="1"/>
        <pt x="291" y="233" on="1"/>
        <pt x="156" y="56" on="1"/>
        <pt x="121" y="0" on="1"/>
        <pt x="-14" y="0" on="1"/>
        <pt x="224" y="325" on="1"/>
        <pt x="70" y="643" on="1"/>
        <pt x="225" y="643" on="1"/>
        <pt x="246" y="580" on="1"/>
        <pt x="324" y="419" on="1"/>
        <pt x="446" y="585" on="1"/>
        <pt x="481" y="643" on="1"/>
        <pt x="620" y="643" on="1"/>
        <pt x="393" y="330" on="1"/>
      </contour>
    </TTGlyph>
    <TTGlyph name="X.ss01" xMin="-126" yMin="0" xMax="652" yMax="505">
      <contour>
        <pt x="447" y="48" on="1"/>
        <pt x="595" y="48" on="1"/>
        <pt x="589" y="0" on="1"/>
        <pt x="-126" y="0" on="1"/>
        <pt x="-120" y="48" on="1"/>
        <pt x="36" y="48" on="1"/>
        <pt x="196" y="252" on="1"/>
        <pt x="87" y="457" on="1"/>
        <pt x="-69" y="457" on="1"/>
        <pt x="-63" y="505" on="1"/>
        <pt x="652" y="505" on="1"/>
        <pt x="646" y="457" on="1"/>
        <pt x="487" y="457" on="1"/>
        <pt x="338" y="263" on="1"/>
      </contour>
      <contour>
        <pt x="224" y="434" on="1"/>
        <pt x="280" y="332" on="1"/>
        <pt x="364" y="439" on="1"/>
        <pt x="374" y="457" on="1"/>
        <pt x="216" y="457" on="1"/>
      </contour>
      <contour>
        <pt x="310" y="73" on="1"/>
        <pt x="252" y="181" on="1"/>
        <pt x="158" y="68" on="1"/>
        <pt x="146" y="48" on="1"/>
        <pt x="319" y="48" on="1"/>
      </contour>
    </TTGlyph>
    <TTGlyph name="Y" xMin="56" yMin="0" xMax="596" yMax="643">
      <contour>
        <pt x="317" y="180" on="1"/>
        <pt x="300" y="0" on="1"/>
        <pt x="168" y="0" on="1"/>
        <pt x="198" y="180" on="1"/>
        <pt x="202" y="221" on="1"/>
        <pt x="56" y="643" on="1"/>
        <pt x="193" y="643" on="1"/>
        <pt x="201" y="600" on="1"/>
        <pt x="277" y="352" on="1"/>
        <pt x="286" y="352" on="1"/>
        <pt x="434" y="596" on="1"/>
        <pt x="458" y="643" on="1"/>
        <pt x="596" y="643" on="1"/>
        <pt x="324" y="220" on="1"/>
      </contour>
    </TTGlyph>
    <TTGlyph name="Yacute" xMin="56" yMin="0" xMax="596" yMax="887">
      <component glyphName="Y" x="0" y="0" flags="0x1000"/>
      <component glyphName="acute.cap" x="109" y="179" flags="0x1000"/>
    </TTGlyph>
    <TTGlyph name="Ycircumflex" xMin="56" yMin="0" xMax="596" yMax="882">
      <component glyphName="Y" x="0" y="0" flags="0x1000"/>
      <component glyphName="circumflex.cap" x="103" y="179" flags="0x1000"/>
    </TTGlyph>
    <TTGlyph name="Ydieresis" xMin="56" yMin="0" xMax="596" yMax="859">
      <component glyphName="Y" x="0" y="0" flags="0x1000"/>
      <component glyphName="dieresis" x="100" y="179" flags="0x1000"/>
    </TTGlyph>
    <TTGlyph name="Ydotbelow" xMin="56" yMin="-195" xMax="596" yMax="643">
      <component glyphName="Y" x="0" y="0" flags="0x1000"/>
      <component glyphName="dotbelowcomb" x="74" y="0" flags="0x1000"/>
    </TTGlyph>
    <TTGlyph name="Ygrave" xMin="56" yMin="0" xMax="596" yMax="889">
      <component glyphName="Y" x="0" y="0" flags="0x1000"/>
      <component glyphName="grave.cap" x="101" y="179" flags="0x1000"/>
    </TTGlyph>
    <TTGlyph name="Yhookabove" xMin="56" yMin="0" xMax="596" yMax="918">
      <component glyphName="Y" x="0" y="0" flags="0x1000"/>
      <component glyphName="hookabove" x="62" y="179" flags="0x1000"/>
    </TTGlyph>
    <TTGlyph name="Ytilde" xMin="56" yMin="0" xMax="596" yMax="878">
      <component glyphName="Y" x="0" y="0" flags="0x1000"/>
      <component glyphName="tilde" x="100" y="179" flags="0x1000"/>
    </TTGlyph>
    <TTGlyph name="Z" xMin="1" yMin="-4" xMax="549" yMax="645">
      <contour>
        <pt x="170" y="101" on="1"/>
        <pt x="380" y="101" on="1"/>
        <pt x="486" y="109" on="1"/>
        <pt x="490" y="102" on="1"/>
        <pt x="467" y="-3" on="1"/>
        <pt x="326" y="0" on="1"/>
        <pt x="77" y="0" on="1"/>
        <pt x="1" y="-4" on="1"/>
        <pt x="13" y="91" on="1"/>
        <pt x="383" y="542" on="1"/>
        <pt x="185" y="542" on="1"/>
        <pt x="78" y="533" on="1"/>
        <pt x="73" y="540" on="1"/>
        <pt x="97" y="645" on="1"/>
        <pt x="223" y="643" on="1"/>
        <pt x="489" y="643" on="1"/>
        <pt x="549" y="644" on="1"/>
        <pt x="537" y="548" on="1"/>
      </contour>
    </TTGlyph>
    <TTGlyph name="Zacute" xMin="1" yMin="-4" xMax="549" yMax="887">
      <component glyphName="Z" x="0" y="0" flags="0x1000"/>
      <component glyphName="acute.cap" x="64" y="179" flags="0x1000"/>
    </TTGlyph>
    <TTGlyph name="Zcaron" xMin="1" yMin="-4" xMax="549" yMax="874">
      <component glyphName="Z" x="0" y="0" flags="0x1000"/>
      <component glyphName="caron.cap" x="51" y="179" flags="0x1000"/>
    </TTGlyph>
    <TTGlyph name="Zdotaccent" xMin="1" yMin="-4" xMax="549" yMax="872">
      <component glyphName="Z" x="0" y="0" flags="0x1000"/>
      <component glyphName="dotaccent" x="55" y="179" flags="0x1000"/>
    </TTGlyph>
    <TTGlyph name="a" xMin="-12" yMin="0" xMax="464" yMax="505">
      <contour>
        <pt x="341" y="0" on="1"/>
        <pt x="338" y="71" on="1"/>
        <pt x="333" y="103" on="1"/>
        <pt x="232" y="105" on="1"/>
        <pt x="144" y="103" on="1"/>
        <pt x="132" y="78" on="1"/>
        <pt x="107" y="0" on="1"/>
        <pt x="-12" y="0" on="1"/>
        <pt x="225" y="505" on="1"/>
        <pt x="369" y="505" on="1"/>
        <pt x="464" y="0" on="1"/>
      </contour>
      <contour>
        <pt x="284" y="393" on="1"/>
        <pt x="276" y="393" on="1"/>
        <pt x="186" y="196" on="1"/>
        <pt x="251" y="195" on="1"/>
        <pt x="317" y="196" on="1"/>
      </contour>
    </TTGlyph>
    <TTGlyph name="a.sups" xMin="51" yMin="323" xMax="333" yMax="650">
      <contour>
        <pt x="300" y="404" on="1"/>
        <pt x="296" y="331" on="1"/>
        <pt x="212" y="325" on="1"/>
        <pt x="227" y="441" on="1"/>
        <pt x="218" y="441" on="1"/>
        <pt x="178" y="364" on="0"/>
        <pt x="137" y="323" on="1"/>
        <pt x="124" y="323" on="1"/>
        <pt x="83" y="337" on="0"/>
        <pt x="51" y="387" on="0"/>
        <pt x="51" y="430" on="1"/>
        <pt x="51" y="505" on="0"/>
        <pt x="133" y="627" on="0"/>
        <pt x="211" y="646" on="1"/>
        <pt x="216" y="646" on="1"/>
        <pt x="272" y="638" on="1"/>
        <pt x="325" y="650" on="1"/>
        <pt x="333" y="645" on="1"/>
      </contour>
      <contour>
        <pt x="159" y="400" on="0"/>
        <pt x="210" y="476" on="0"/>
        <pt x="240" y="542" on="1"/>
        <pt x="243" y="567" on="1"/>
        <pt x="244" y="576" on="1"/>
        <pt x="199" y="585" on="1"/>
        <pt x="166" y="584" on="0"/>
        <pt x="130" y="517" on="0"/>
        <pt x="130" y="463" on="1"/>
        <pt x="130" y="431" on="0"/>
        <pt x="141" y="400" on="0"/>
        <pt x="148" y="400" on="1"/>
      </contour>
    </TTGlyph>
    <TTGlyph name="aacute" xMin="-12" yMin="0" xMax="464" yMax="762">
      <component glyphName="a" x="0" y="0" flags="0x1000"/>
      <component glyphName="acute" x="71" y="40" flags="0x1000"/>
    </TTGlyph>
    <TTGlyph name="abreve" xMin="-12" yMin="0" xMax="464" yMax="738">
      <component glyphName="a" x="0" y="0" flags="0x1000"/>
      <component glyphName="breve" x="64" y="40" flags="0x1000"/>
    </TTGlyph>
    <TTGlyph name="abreveacute" xMin="-12" yMin="0" xMax="464" yMax="856">
      <component glyphName="a" x="0" y="0" flags="0x1000"/>
      <component glyphName="breveacute" x="71" y="40" flags="0x1000"/>
    </TTGlyph>
    <TTGlyph name="abrevedotbelow" xMin="-11" yMin="-195" xMax="465" yMax="738">
      <contour>
        <pt x="235" y="570" on="0"/>
        <pt x="168" y="638" on="0"/>
        <pt x="161" y="694" on="1"/>
        <pt x="196" y="738" on="1"/>
        <pt x="215" y="738" on="1"/>
        <pt x="230" y="661" on="0"/>
        <pt x="306" y="661" on="1"/>
        <pt x="382" y="661" on="0"/>
        <pt x="415" y="738" on="1"/>
        <pt x="434" y="738" on="1"/>
        <pt x="458" y="694" on="1"/>
        <pt x="438" y="638" on="0"/>
        <pt x="358" y="570" on="0"/>
        <pt x="300" y="570" on="1"/>
      </contour>
      <contour>
        <pt x="342" y="0" on="1"/>
        <pt x="339" y="71" on="1"/>
        <pt x="334" y="103" on="1"/>
        <pt x="231" y="105" on="1"/>
        <pt x="145" y="103" on="1"/>
        <pt x="133" y="78" on="1"/>
        <pt x="108" y="0" on="1"/>
        <pt x="-11" y="0" on="1"/>
        <pt x="226" y="505" on="1"/>
        <pt x="370" y="505" on="1"/>
        <pt x="465" y="0" on="1"/>
      </contour>
      <contour>
        <pt x="285" y="393" on="1"/>
        <pt x="277" y="393" on="1"/>
        <pt x="187" y="196" on="1"/>
        <pt x="250" y="195" on="1"/>
        <pt x="318" y="196" on="1"/>
      </contour>
      <contour>
        <pt x="260" y="-56" on="0"/>
        <pt x="294" y="-91" on="0"/>
        <pt x="294" y="-122" on="1"/>
        <pt x="294" y="-156" on="0"/>
        <pt x="256" y="-195" on="0"/>
        <pt x="224" y="-195" on="1"/>
        <pt x="192" y="-195" on="0"/>
        <pt x="158" y="-160" on="0"/>
        <pt x="158" y="-128" on="1"/>
        <pt x="158" y="-95" on="0"/>
        <pt x="196" y="-56" on="0"/>
        <pt x="229" y="-56" on="1"/>
      </contour>
    </TTGlyph>
    <TTGlyph name="abrevegrave" xMin="-12" yMin="0" xMax="464" yMax="856">
      <component glyphName="a" x="0" y="0" flags="0x1000"/>
      <component glyphName="brevegrave" x="71" y="40" flags="0x1000"/>
    </TTGlyph>
    <TTGlyph name="abrevehookabove" xMin="-12" yMin="0" xMax="464" yMax="911">
      <component glyphName="a" x="0" y="0" flags="0x1000"/>
      <component glyphName="brevehookabove" x="71" y="40" flags="0x1000"/>
    </TTGlyph>
    <TTGlyph name="abrevetilde" xMin="-12" yMin="0" xMax="496" yMax="880">
      <component glyphName="a" x="0" y="0" flags="0x1000"/>
      <component glyphName="brevetilde" x="71" y="40" flags="0x1000"/>
    </TTGlyph>
    <TTGlyph name="acaron" xMin="-12" yMin="0" xMax="465" yMax="754">
      <component glyphName="a" x="0" y="0" flags="0x1000"/>
      <component glyphName="caron" x="64" y="40" flags="0x1000"/>
    </TTGlyph>
    <TTGlyph name="acircumflex" xMin="-12" yMin="0" xMax="464" yMax="756">
      <component glyphName="a" x="0" y="0" flags="0x1000"/>
      <component glyphName="circumflex" x="74" y="40" flags="0x1000"/>
    </TTGlyph>
    <TTGlyph name="acircumflexacute" xMin="-12" yMin="0" xMax="513" yMax="853">
      <component glyphName="a" x="0" y="0" flags="0x1000"/>
      <component glyphName="circumflexacute" x="71" y="40" flags="0x1000"/>
    </TTGlyph>
    <TTGlyph name="acircumflexdotbelow" xMin="-11" yMin="-195" xMax="465" yMax="756">
      <contour>
        <pt x="158" y="615" on="1"/>
        <pt x="200" y="651" on="0"/>
        <pt x="289" y="734" on="1"/>
        <pt x="313" y="756" on="1"/>
        <pt x="341" y="756" on="1"/>
        <pt x="395" y="686" on="0"/>
        <pt x="464" y="615" on="1"/>
        <pt x="425" y="566" on="1"/>
        <pt x="412" y="566" on="1"/>
        <pt x="349" y="622" on="0"/>
        <pt x="316" y="659" on="1"/>
        <pt x="277" y="624" on="0"/>
        <pt x="197" y="566" on="1"/>
        <pt x="184" y="566" on="1"/>
      </contour>
      <contour>
        <pt x="342" y="0" on="1"/>
        <pt x="339" y="71" on="1"/>
        <pt x="334" y="103" on="1"/>
        <pt x="231" y="105" on="1"/>
        <pt x="145" y="103" on="1"/>
        <pt x="133" y="78" on="1"/>
        <pt x="108" y="0" on="1"/>
        <pt x="-11" y="0" on="1"/>
        <pt x="226" y="505" on="1"/>
        <pt x="370" y="505" on="1"/>
        <pt x="465" y="0" on="1"/>
      </contour>
      <contour>
        <pt x="285" y="393" on="1"/>
        <pt x="277" y="393" on="1"/>
        <pt x="187" y="196" on="1"/>
        <pt x="250" y="195" on="1"/>
        <pt x="318" y="196" on="1"/>
      </contour>
      <contour>
        <pt x="260" y="-56" on="0"/>
        <pt x="294" y="-91" on="0"/>
        <pt x="294" y="-122" on="1"/>
        <pt x="294" y="-156" on="0"/>
        <pt x="256" y="-195" on="0"/>
        <pt x="224" y="-195" on="1"/>
        <pt x="192" y="-195" on="0"/>
        <pt x="158" y="-160" on="0"/>
        <pt x="158" y="-128" on="1"/>
        <pt x="158" y="-95" on="0"/>
        <pt x="196" y="-56" on="0"/>
        <pt x="229" y="-56" on="1"/>
      </contour>
    </TTGlyph>
    <TTGlyph name="acircumflexgrave" xMin="-12" yMin="0" xMax="468" yMax="853">
      <component glyphName="a" x="0" y="0" flags="0x1000"/>
      <component glyphName="circumflexgrave" x="71" y="40" flags="0x1000"/>
    </TTGlyph>
    <TTGlyph name="acircumflexhookabove" xMin="-12" yMin="0" xMax="482" yMax="897">
      <component glyphName="a" x="0" y="0" flags="0x1000"/>
      <component glyphName="circumflexhookabove" x="71" y="40" flags="0x1000"/>
    </TTGlyph>
    <TTGlyph name="acircumflextilde" xMin="-12" yMin="0" xMax="506" yMax="878">
      <component glyphName="a" x="0" y="0" flags="0x1000"/>
      <component glyphName="circumflextilde" x="84" y="40" flags="0x1000"/>
    </TTGlyph>
    <TTGlyph name="acute" xMin="121" yMin="520" xMax="361" yMax="722">
      <contour>
        <pt x="361" y="651" on="1"/>
        <pt x="358" y="639" on="1"/>
        <pt x="250" y="569" on="0"/>
        <pt x="165" y="520" on="1"/>
        <pt x="153" y="521" on="1"/>
        <pt x="121" y="570" on="1"/>
        <pt x="216" y="644" on="0"/>
        <pt x="301" y="722" on="1"/>
        <pt x="314" y="721" on="1"/>
      </contour>
    </TTGlyph>
    <TTGlyph name="acute.cap" xMin="115" yMin="538" xMax="367" yMax="708">
      <contour>
        <pt x="367" y="628" on="1"/>
        <pt x="363" y="616" on="1"/>
        <pt x="274" y="581" on="0"/>
        <pt x="149" y="538" on="1"/>
        <pt x="136" y="542" on="1"/>
        <pt x="115" y="596" on="1"/>
        <pt x="223" y="650" on="0"/>
        <pt x="322" y="708" on="1"/>
        <pt x="334" y="705" on="1"/>
      </contour>
    </TTGlyph>
    <TTGlyph name="adieresis" xMin="-12" yMin="0" xMax="464" yMax="720">
      <component glyphName="a" x="0" y="0" flags="0x1000"/>
      <component glyphName="dieresis" x="69" y="40" flags="0x1000"/>
    </TTGlyph>
    <TTGlyph name="adotbelow" xMin="-12" yMin="-195" xMax="464" yMax="505">
      <component glyphName="a" x="0" y="0" flags="0x1000"/>
      <component glyphName="dotbelowcomb" x="76" y="0" flags="0x1000"/>
    </TTGlyph>
    <TTGlyph name="ae" xMin="-32" yMin="0" xMax="664" yMax="504">
      <contour>
        <pt x="646" y="0" on="1"/>
        <pt x="324" y="0" on="1"/>
        <pt x="330" y="68" on="1"/>
        <pt x="329" y="165" on="1"/>
        <pt x="140" y="117" on="1"/>
        <pt x="114" y="75" on="1"/>
        <pt x="81" y="0" on="1"/>
        <pt x="-32" y="0" on="1"/>
        <pt x="284" y="504" on="1"/>
        <pt x="650" y="504" on="1"/>
        <pt x="656" y="495" on="1"/>
        <pt x="636" y="409" on="1"/>
        <pt x="508" y="415" on="1"/>
        <pt x="437" y="415" on="1"/>
        <pt x="438" y="280" on="1"/>
        <pt x="602" y="321" on="1"/>
        <pt x="610" y="314" on="1"/>
        <pt x="608" y="229" on="1"/>
        <pt x="438" y="192" on="1"/>
        <pt x="439" y="91" on="1"/>
        <pt x="522" y="91" on="1"/>
        <pt x="658" y="96" on="1"/>
        <pt x="664" y="87" on="1"/>
      </contour>
      <contour>
        <pt x="327" y="398" on="1"/>
        <pt x="319" y="398" on="1"/>
        <pt x="207" y="222" on="1"/>
        <pt x="328" y="253" on="1"/>
      </contour>
    </TTGlyph>
    <TTGlyph name="aeacute" xMin="-32" yMin="0" xMax="664" yMax="762">
      <component glyphName="ae" x="0" y="0" flags="0x1000"/>
      <component glyphName="acute" x="228" y="40" flags="0x1000"/>
    </TTGlyph>
    <TTGlyph name="agrave" xMin="-12" yMin="0" xMax="464" yMax="762">
      <component glyphName="a" x="0" y="0" flags="0x1000"/>
      <component glyphName="grave" x="57" y="40" flags="0x1000"/>
    </TTGlyph>
    <TTGlyph name="ahookabove" xMin="-12" yMin="0" xMax="464" yMax="779">
      <component glyphName="a" x="0" y="0" flags="0x1000"/>
      <component glyphName="hookabove" x="31" y="40" flags="0x1000"/>
    </TTGlyph>
    <TTGlyph name="amacron" xMin="-12" yMin="0" xMax="464" yMax="699">
      <component glyphName="a" x="0" y="0" flags="0x1000"/>
      <component glyphName="macron" x="69" y="40" flags="0x1000"/>
    </TTGlyph>
    <TTGlyph name="ampersand" xMin="31" yMin="-12" xMax="694" yMax="711">
      <contour>
        <pt x="692" y="274" on="1"/>
        <pt x="680" y="193" on="1"/>
        <pt x="552" y="193" on="1"/>
        <pt x="529" y="94" on="0"/>
        <pt x="397" y="-12" on="0"/>
        <pt x="294" y="-12" on="1"/>
        <pt x="172" y="-12" on="0"/>
        <pt x="31" y="130" on="0"/>
        <pt x="31" y="255" on="1"/>
        <pt x="31" y="332" on="0"/>
        <pt x="86" y="449" on="0"/>
        <pt x="185" y="513" on="0"/>
        <pt x="250" y="513" on="1"/>
        <pt x="311" y="513" on="0"/>
        <pt x="376" y="460" on="0"/>
        <pt x="376" y="418" on="1"/>
        <pt x="375" y="406" on="1"/>
        <pt x="556" y="543" on="0"/>
        <pt x="632" y="711" on="1"/>
        <pt x="643" y="711" on="1"/>
        <pt x="681" y="676" on="0"/>
        <pt x="694" y="628" on="1"/>
        <pt x="664" y="558" on="0"/>
        <pt x="496" y="385" on="0"/>
        <pt x="268" y="227" on="0"/>
        <pt x="154" y="179" on="1"/>
        <pt x="188" y="80" on="0"/>
        <pt x="303" y="80" on="1"/>
        <pt x="383" y="80" on="0"/>
        <pt x="472" y="183" on="0"/>
        <pt x="473" y="274" on="1"/>
        <pt x="481" y="284" on="1"/>
        <pt x="684" y="284" on="1"/>
      </contour>
      <contour>
        <pt x="198" y="430" on="0"/>
        <pt x="141" y="344" on="0"/>
        <pt x="140" y="269" on="1"/>
        <pt x="204" y="296" on="0"/>
        <pt x="264" y="331" on="1"/>
        <pt x="296" y="355" on="0"/>
        <pt x="296" y="389" on="1"/>
        <pt x="296" y="430" on="0"/>
        <pt x="247" y="430" on="1"/>
      </contour>
    </TTGlyph>
    <TTGlyph name="aogonek" xMin="-11" yMin="-196" xMax="465" yMax="505">
      <contour>
        <pt x="453" y="-148" on="1"/>
        <pt x="400" y="-196" on="0"/>
        <pt x="354" y="-196" on="1"/>
        <pt x="319" y="-196" on="0"/>
        <pt x="276" y="-156" on="0"/>
        <pt x="276" y="-122" on="1"/>
        <pt x="276" y="-96" on="0"/>
        <pt x="303" y="-43" on="0"/>
        <pt x="339" y="0" on="1"/>
        <pt x="342" y="0" on="1"/>
        <pt x="339" y="71" on="1"/>
        <pt x="334" y="103" on="1"/>
        <pt x="231" y="105" on="1"/>
        <pt x="145" y="103" on="1"/>
        <pt x="133" y="78" on="1"/>
        <pt x="108" y="0" on="1"/>
        <pt x="-11" y="0" on="1"/>
        <pt x="226" y="505" on="1"/>
        <pt x="370" y="505" on="1"/>
        <pt x="465" y="0" on="1"/>
        <pt x="415" y="0" on="1"/>
        <pt x="379" y="-37" on="0"/>
        <pt x="352" y="-79" on="0"/>
        <pt x="352" y="-95" on="1"/>
        <pt x="352" y="-122" on="0"/>
        <pt x="379" y="-122" on="1"/>
        <pt x="406" y="-122" on="0"/>
        <pt x="443" y="-90" on="1"/>
        <pt x="450" y="-90" on="1"/>
      </contour>
      <contour>
        <pt x="285" y="393" on="1"/>
        <pt x="277" y="393" on="1"/>
        <pt x="187" y="196" on="1"/>
        <pt x="250" y="195" on="1"/>
        <pt x="318" y="196" on="1"/>
      </contour>
    </TTGlyph>
    <TTGlyph name="approxequal" xMin="34" yMin="90" xMax="483" yMax="430">
      <component glyphName="asciitilde" x="26" y="94" flags="0x1000"/>
      <component glyphName="asciitilde" x="4" y="-92" flags="0x1000"/>
    </TTGlyph>
    <TTGlyph name="aring" xMin="-12" yMin="0" xMax="464" yMax="763">
      <component glyphName="a" x="0" y="0" flags="0x1000"/>
      <component glyphName="ring" x="68" y="40" flags="0x1000"/>
    </TTGlyph>
    <TTGlyph name="aringacute" xMin="-12" yMin="0" xMax="464" yMax="898">
      <component glyphName="a" x="0" y="0" flags="0x1000"/>
      <component glyphName="newGlyph#3" x="71" y="40" flags="0x1000"/>
    </TTGlyph>
    <TTGlyph name="arrowdown" xMin="53" yMin="-7" xMax="478" yMax="473">
      <contour>
        <pt x="276" y="-7" on="1"/>
        <pt x="256" y="-7" on="1"/>
        <pt x="53" y="190" on="1"/>
        <pt x="69" y="260" on="1"/>
        <pt x="87" y="260" on="1"/>
        <pt x="226" y="127" on="1"/>
        <pt x="220" y="464" on="1"/>
        <pt x="229" y="473" on="1"/>
        <pt x="310" y="468" on="1"/>
        <pt x="305" y="128" on="1"/>
        <pt x="444" y="260" on="1"/>
        <pt x="462" y="260" on="1"/>
        <pt x="478" y="190" on="1"/>
      </contour>
    </TTGlyph>
    <TTGlyph name="arrowdownleft" xMin="92" yMin="52" xMax="472" yMax="429">
      <component glyphName="arrowdown" x="-79" y="256" scalex="0.706970214844" scale01="-0.706970214844" scale10="0.706970214844" scaley="0.706970214844" flags="0x1000"/>
    </TTGlyph>
    <TTGlyph name="arrowdownright" xMin="60" yMin="48" xMax="437" yMax="428">
      <component glyphName="arrowdown" x="233" y="-123" scalex="0.706970214844" scale01="0.706970214844" scale10="-0.706970214844" scaley="0.706970214844" flags="0x1000"/>
    </TTGlyph>
    <TTGlyph name="arrowleft" xMin="24" yMin="23" xMax="504" yMax="448">
      <component glyphName="arrowdown" x="31" y="501" scalex="0.0" scale01="-1.0" scale10="1.0" scaley="0.0" flags="0x1000"/>
    </TTGlyph>
    <TTGlyph name="arrowright" xMin="25" yMin="25" xMax="505" yMax="450">
      <component glyphName="arrowdown" x="498" y="-28" scalex="0.0" scale01="1.0" scale10="-1.0" scaley="0.0" flags="0x1000"/>
    </TTGlyph>
    <TTGlyph name="arrowup" xMin="53" yMin="-1" xMax="478" yMax="479">
      <component glyphName="arrowdown" x="531" y="472" scale="-1.0" flags="0x1000"/>
    </TTGlyph>
    <TTGlyph name="arrowupleft" xMin="91" yMin="40" xMax="468" yMax="420">
      <component glyphName="arrowdown" x="295" y="591" scalex="-0.706970214844" scale01="-0.706970214844" scale10="0.706970214844" scaley="-0.706970214844" flags="0x1000"/>
    </TTGlyph>
    <TTGlyph name="arrowupright" xMin="58" yMin="47" xMax="438" yMax="424">
      <component glyphName="arrowdown" x="609" y="220" scalex="-0.706970214844" scale01="0.706970214844" scale10="-0.706970214844" scaley="-0.706970214844" flags="0x1000"/>
    </TTGlyph>
    <TTGlyph name="asciicircum" xMin="6" yMin="112" xMax="413" yMax="496">
      <contour>
        <pt x="402" y="134" on="1"/>
        <pt x="328" y="117" on="1"/>
        <pt x="249" y="405" on="1"/>
        <pt x="241" y="405" on="1"/>
        <pt x="87" y="117" on="1"/>
        <pt x="76" y="112" on="1"/>
        <pt x="6" y="139" on="1"/>
        <pt x="194" y="489" on="1"/>
        <pt x="207" y="496" on="1"/>
        <pt x="312" y="496" on="1"/>
        <pt x="413" y="146" on="1"/>
      </contour>
    </TTGlyph>
    <TTGlyph name="asciitilde" xMin="30" yMin="182" xMax="457" yMax="336">
      <contour>
        <pt x="138" y="238" on="0"/>
        <pt x="112" y="219" on="0"/>
        <pt x="87" y="196" on="1"/>
        <pt x="72" y="182" on="1"/>
        <pt x="60" y="182" on="1"/>
        <pt x="30" y="225" on="1"/>
        <pt x="32" y="237" on="1"/>
        <pt x="125" y="328" on="1"/>
        <pt x="138" y="334" on="1"/>
        <pt x="165" y="329" on="0"/>
        <pt x="231" y="308" on="1"/>
        <pt x="318" y="281" on="0"/>
        <pt x="338" y="281" on="1"/>
        <pt x="350" y="281" on="0"/>
        <pt x="377" y="300" on="0"/>
        <pt x="409" y="329" on="0"/>
        <pt x="417" y="336" on="1"/>
        <pt x="429" y="336" on="1"/>
        <pt x="457" y="294" on="1"/>
        <pt x="456" y="282" on="1"/>
        <pt x="364" y="190" on="1"/>
        <pt x="350" y="186" on="1"/>
        <pt x="324" y="189" on="0"/>
        <pt x="245" y="214" on="1"/>
        <pt x="165" y="238" on="0"/>
        <pt x="150" y="238" on="1"/>
      </contour>
    </TTGlyph>
    <TTGlyph name="asterisk" xMin="75" yMin="388" xMax="413" yMax="741">
      <contour>
        <pt x="259" y="610" on="1"/>
        <pt x="218" y="606" on="1"/>
        <pt x="210" y="613" on="1"/>
        <pt x="207" y="729" on="1"/>
        <pt x="242" y="741" on="0"/>
        <pt x="283" y="741" on="1"/>
        <pt x="288" y="733" on="1"/>
      </contour>
      <contour>
        <pt x="191" y="558" on="1"/>
        <pt x="181" y="554" on="1"/>
        <pt x="75" y="586" on="1"/>
        <pt x="75" y="629" on="0"/>
        <pt x="86" y="663" on="1"/>
        <pt x="95" y="666" on="1"/>
        <pt x="197" y="600" on="1"/>
      </contour>
      <contour>
        <pt x="402" y="606" on="0"/>
        <pt x="413" y="571" on="1"/>
        <pt x="408" y="564" on="1"/>
        <pt x="288" y="554" on="1"/>
        <pt x="270" y="591" on="1"/>
        <pt x="274" y="601" on="1"/>
        <pt x="378" y="640" on="1"/>
      </contour>
      <contour>
        <pt x="351" y="444" on="1"/>
        <pt x="335" y="419" on="0"/>
        <pt x="297" y="388" on="1"/>
        <pt x="288" y="390" on="1"/>
        <pt x="243" y="509" on="1"/>
        <pt x="273" y="536" on="1"/>
        <pt x="283" y="535" on="1"/>
      </contour>
      <contour>
        <pt x="225" y="506" on="1"/>
        <pt x="165" y="410" on="1"/>
        <pt x="135" y="419" on="0"/>
        <pt x="94" y="444" on="1"/>
        <pt x="95" y="453" on="1"/>
        <pt x="187" y="535" on="1"/>
        <pt x="224" y="516" on="1"/>
      </contour>
    </TTGlyph>
    <TTGlyph name="at" xMin="29" yMin="-210" xMax="821" yMax="633">
      <contour>
        <pt x="821" y="163" on="0"/>
        <pt x="627" y="2" on="0"/>
        <pt x="447" y="-2" on="1"/>
        <pt x="469" y="159" on="1"/>
        <pt x="457" y="159" on="1"/>
        <pt x="400" y="59" on="0"/>
        <pt x="335" y="-7" on="1"/>
        <pt x="317" y="-7" on="1"/>
        <pt x="264" y="13" on="0"/>
        <pt x="218" y="92" on="0"/>
        <pt x="218" y="153" on="1"/>
        <pt x="218" y="219" on="0"/>
        <pt x="270" y="348" on="0"/>
        <pt x="376" y="444" on="0"/>
        <pt x="452" y="462" on="1"/>
        <pt x="457" y="462" on="1"/>
        <pt x="534" y="442" on="1"/>
        <pt x="604" y="464" on="1"/>
        <pt x="614" y="458" on="1"/>
        <pt x="566" y="112" on="1"/>
        <pt x="565" y="88" on="1"/>
        <pt x="645" y="101" on="0"/>
        <pt x="736" y="218" on="0"/>
        <pt x="736" y="307" on="1"/>
        <pt x="736" y="380" on="0"/>
        <pt x="671" y="491" on="0"/>
        <pt x="550" y="552" on="0"/>
        <pt x="469" y="552" on="1"/>
        <pt x="364" y="552" on="0"/>
        <pt x="203" y="462" on="0"/>
        <pt x="115" y="302" on="0"/>
        <pt x="115" y="200" on="1"/>
        <pt x="115" y="95" on="0"/>
        <pt x="209" y="-56" on="0"/>
        <pt x="381" y="-136" on="0"/>
        <pt x="496" y="-136" on="1"/>
        <pt x="501" y="-149" on="1"/>
        <pt x="465" y="-210" on="1"/>
        <pt x="334" y="-209" on="0"/>
        <pt x="137" y="-115" on="0"/>
        <pt x="29" y="62" on="0"/>
        <pt x="29" y="185" on="1"/>
        <pt x="29" y="313" on="0"/>
        <pt x="139" y="517" on="0"/>
        <pt x="340" y="633" on="0"/>
        <pt x="472" y="633" on="1"/>
        <pt x="577" y="633" on="0"/>
        <pt x="735" y="555" on="0"/>
        <pt x="821" y="409" on="0"/>
        <pt x="821" y="311" on="1"/>
      </contour>
      <contour>
        <pt x="361" y="108" on="0"/>
        <pt x="405" y="159" on="0"/>
        <pt x="462" y="259" on="0"/>
        <pt x="492" y="328" on="1"/>
        <pt x="495" y="348" on="1"/>
        <pt x="495" y="353" on="1"/>
        <pt x="432" y="374" on="1"/>
        <pt x="382" y="374" on="0"/>
        <pt x="324" y="273" on="0"/>
        <pt x="324" y="194" on="1"/>
        <pt x="324" y="108" on="0"/>
        <pt x="350" y="108" on="1"/>
      </contour>
    </TTGlyph>
    <TTGlyph name="atilde" xMin="-12" yMin="0" xMax="485" yMax="739">
      <component glyphName="a" x="0" y="0" flags="0x1000"/>
      <component glyphName="tilde" x="69" y="40" flags="0x1000"/>
    </TTGlyph>
    <TTGlyph name="b" xMin="44" yMin="-4" xMax="464" yMax="505">
      <contour>
        <pt x="414" y="245" on="0"/>
        <pt x="458" y="192" on="0"/>
        <pt x="458" y="148" on="1"/>
        <pt x="458" y="-4" on="0"/>
        <pt x="208" y="-4" on="1"/>
        <pt x="148" y="-4" on="0"/>
        <pt x="44" y="0" on="1"/>
        <pt x="68" y="150" on="1"/>
        <pt x="107" y="505" on="1"/>
        <pt x="302" y="505" on="1"/>
        <pt x="378" y="505" on="0"/>
        <pt x="464" y="446" on="0"/>
        <pt x="464" y="390" on="1"/>
        <pt x="464" y="347" on="0"/>
        <pt x="415" y="280" on="0"/>
        <pt x="370" y="261" on="1"/>
      </contour>
      <contour>
        <pt x="335" y="309" on="0"/>
        <pt x="335" y="370" on="1"/>
        <pt x="335" y="397" on="0"/>
        <pt x="300" y="418" on="0"/>
        <pt x="260" y="418" on="1"/>
        <pt x="215" y="418" on="1"/>
        <pt x="198" y="297" on="1"/>
        <pt x="275" y="294" on="1"/>
      </contour>
      <contour>
        <pt x="277" y="82" on="0"/>
        <pt x="333" y="120" on="0"/>
        <pt x="333" y="156" on="1"/>
        <pt x="333" y="198" on="0"/>
        <pt x="278" y="211" on="1"/>
        <pt x="186" y="209" on="1"/>
        <pt x="179" y="161" on="1"/>
        <pt x="172" y="85" on="1"/>
        <pt x="202" y="82" on="0"/>
        <pt x="227" y="82" on="1"/>
      </contour>
    </TTGlyph>
    <TTGlyph name="b.sups" xMin="58" yMin="323" xMax="340" yMax="812">
      <contour>
        <pt x="307" y="632" on="0"/>
        <pt x="340" y="583" on="0"/>
        <pt x="340" y="540" on="1"/>
        <pt x="340" y="463" on="0"/>
        <pt x="256" y="341" on="0"/>
        <pt x="180" y="323" on="1"/>
        <pt x="176" y="323" on="1"/>
        <pt x="135" y="331" on="1"/>
        <pt x="58" y="343" on="1"/>
        <pt x="109" y="734" on="1"/>
        <pt x="113" y="805" on="1"/>
        <pt x="199" y="812" on="1"/>
        <pt x="162" y="526" on="1"/>
        <pt x="170" y="526" on="1"/>
        <pt x="208" y="599" on="0"/>
        <pt x="254" y="645" on="1"/>
        <pt x="266" y="645" on="1"/>
      </contour>
      <contour>
        <pt x="225" y="384" on="0"/>
        <pt x="261" y="453" on="0"/>
        <pt x="261" y="506" on="1"/>
        <pt x="261" y="539" on="0"/>
        <pt x="250" y="570" on="0"/>
        <pt x="243" y="570" on="1"/>
        <pt x="233" y="570" on="0"/>
        <pt x="179" y="492" on="0"/>
        <pt x="148" y="427" on="1"/>
        <pt x="144" y="396" on="1"/>
        <pt x="192" y="384" on="1"/>
      </contour>
    </TTGlyph>
    <TTGlyph name="backslash" xMin="35" yMin="-115" xMax="339" yMax="680">
      <contour>
        <pt x="339" y="-104" on="1"/>
        <pt x="331" y="-115" on="1"/>
        <pt x="242" y="-115" on="1"/>
        <pt x="35" y="668" on="1"/>
        <pt x="46" y="680" on="1"/>
        <pt x="133" y="680" on="1"/>
      </contour>
    </TTGlyph>
    <TTGlyph name="bar" xMin="45" yMin="-260" xMax="274" yMax="803">
      <contour>
        <pt x="209" y="290" on="1"/>
        <pt x="143" y="-253" on="1"/>
        <pt x="53" y="-260" on="1"/>
        <pt x="45" y="-248" on="1"/>
        <pt x="110" y="281" on="1"/>
        <pt x="174" y="795" on="1"/>
        <pt x="266" y="803" on="1"/>
        <pt x="274" y="794" on="1"/>
      </contour>
    </TTGlyph>
    <TTGlyph name="braceleft" xMin="32" yMin="-120" xMax="333" yMax="657">
      <contour>
        <pt x="293" y="657" on="0"/>
        <pt x="329" y="648" on="1"/>
        <pt x="333" y="638" on="1"/>
        <pt x="314" y="572" on="1"/>
        <pt x="294" y="577" on="0"/>
        <pt x="280" y="577" on="1"/>
        <pt x="216" y="577" on="0"/>
        <pt x="216" y="496" on="1"/>
        <pt x="216" y="479" on="0"/>
        <pt x="220" y="443" on="1"/>
        <pt x="224" y="405" on="0"/>
        <pt x="224" y="391" on="1"/>
        <pt x="224" y="307" on="0"/>
        <pt x="142" y="271" on="1"/>
        <pt x="141" y="266" on="1"/>
        <pt x="198" y="238" on="0"/>
        <pt x="198" y="176" on="1"/>
        <pt x="198" y="150" on="0"/>
        <pt x="176" y="92" on="1"/>
        <pt x="155" y="33" on="0"/>
        <pt x="155" y="10" on="1"/>
        <pt x="155" y="-41" on="0"/>
        <pt x="204" y="-41" on="1"/>
        <pt x="217" y="-41" on="0"/>
        <pt x="240" y="-36" on="1"/>
        <pt x="243" y="-102" on="1"/>
        <pt x="236" y="-111" on="1"/>
        <pt x="203" y="-120" on="0"/>
        <pt x="171" y="-120" on="1"/>
        <pt x="112" y="-120" on="0"/>
        <pt x="50" y="-68" on="0"/>
        <pt x="50" y="-19" on="1"/>
        <pt x="50" y="14" on="0"/>
        <pt x="74" y="90" on="1"/>
        <pt x="93" y="145" on="0"/>
        <pt x="93" y="168" on="1"/>
        <pt x="93" y="222" on="0"/>
        <pt x="32" y="238" on="1"/>
        <pt x="39" y="298" on="1"/>
        <pt x="120" y="319" on="0"/>
        <pt x="120" y="399" on="1"/>
        <pt x="120" y="412" on="0"/>
        <pt x="118" y="448" on="1"/>
        <pt x="115" y="477" on="0"/>
        <pt x="115" y="506" on="1"/>
        <pt x="115" y="657" on="0"/>
        <pt x="267" y="657" on="1"/>
      </contour>
    </TTGlyph>
    <TTGlyph name="braceright" xMin="-29" yMin="-121" xMax="272" yMax="656">
      <component glyphName="braceleft" x="304" y="536" scale="-1.0" flags="0x1000"/>
    </TTGlyph>
    <TTGlyph name="bracketleft" xMin="33" yMin="-127" xMax="339" yMax="648">
      <contour>
        <pt x="332" y="582" on="1"/>
        <pt x="222" y="569" on="1"/>
        <pt x="146" y="-48" on="1"/>
        <pt x="253" y="-61" on="1"/>
        <pt x="245" y="-120" on="1"/>
        <pt x="239" y="-127" on="1"/>
        <pt x="33" y="-117" on="1"/>
        <pt x="86" y="261" on="1"/>
        <pt x="125" y="638" on="1"/>
        <pt x="334" y="648" on="1"/>
        <pt x="339" y="641" on="1"/>
      </contour>
    </TTGlyph>
    <TTGlyph name="bracketright" xMin="-38" yMin="-127" xMax="268" yMax="648">
      <component glyphName="bracketleft" x="301" y="521" scale="-1.0" flags="0x1000"/>
    </TTGlyph>
    <TTGlyph name="breve" xMin="97" yMin="530" xMax="394" yMax="698">
      <contour>
        <pt x="374" y="598" on="0"/>
        <pt x="294" y="530" on="0"/>
        <pt x="236" y="530" on="1"/>
        <pt x="171" y="530" on="0"/>
        <pt x="104" y="598" on="0"/>
        <pt x="97" y="654" on="1"/>
        <pt x="132" y="698" on="1"/>
        <pt x="151" y="698" on="1"/>
        <pt x="166" y="621" on="0"/>
        <pt x="242" y="621" on="1"/>
        <pt x="318" y="621" on="0"/>
        <pt x="351" y="698" on="1"/>
        <pt x="370" y="698" on="1"/>
        <pt x="394" y="654" on="1"/>
      </contour>
    </TTGlyph>
    <TTGlyph name="breve.cap" xMin="97" yMin="542" xMax="395" yMax="688">
      <contour>
        <pt x="347" y="542" on="0"/>
        <pt x="242" y="542" on="1"/>
        <pt x="185" y="542" on="0"/>
        <pt x="110" y="596" on="0"/>
        <pt x="97" y="647" on="1"/>
        <pt x="132" y="688" on="1"/>
        <pt x="151" y="688" on="1"/>
        <pt x="161" y="661" on="0"/>
        <pt x="211" y="632" on="0"/>
        <pt x="246" y="632" on="1"/>
        <pt x="318" y="632" on="0"/>
        <pt x="351" y="688" on="1"/>
        <pt x="370" y="688" on="1"/>
        <pt x="395" y="647" on="1"/>
      </contour>
    </TTGlyph>
    <TTGlyph name="breveacute" xMin="94" yMin="522" xMax="392" yMax="816">
      <contour>
        <pt x="355" y="766" on="1"/>
        <pt x="295" y="706" on="0"/>
        <pt x="244" y="659" on="1"/>
        <pt x="233" y="657" on="1"/>
        <pt x="193" y="689" on="1"/>
        <pt x="242" y="754" on="0"/>
        <pt x="284" y="814" on="1"/>
        <pt x="294" y="816" on="1"/>
        <pt x="353" y="777" on="1"/>
      </contour>
      <contour>
        <pt x="344" y="522" on="0"/>
        <pt x="239" y="522" on="1"/>
        <pt x="182" y="522" on="0"/>
        <pt x="107" y="576" on="0"/>
        <pt x="94" y="627" on="1"/>
        <pt x="130" y="668" on="1"/>
        <pt x="149" y="668" on="1"/>
        <pt x="169" y="612" on="0"/>
        <pt x="243" y="612" on="1"/>
        <pt x="315" y="612" on="0"/>
        <pt x="349" y="668" on="1"/>
        <pt x="367" y="668" on="1"/>
        <pt x="392" y="627" on="1"/>
      </contour>
    </TTGlyph>
    <TTGlyph name="brevegrave" xMin="95" yMin="521" xMax="393" yMax="816">
      <contour>
        <pt x="243" y="659" on="1"/>
        <pt x="192" y="706" on="0"/>
        <pt x="132" y="766" on="1"/>
        <pt x="133" y="777" on="1"/>
        <pt x="193" y="816" on="1"/>
        <pt x="203" y="814" on="1"/>
        <pt x="250" y="747" on="0"/>
        <pt x="295" y="689" on="1"/>
        <pt x="254" y="657" on="1"/>
      </contour>
      <contour>
        <pt x="345" y="521" on="0"/>
        <pt x="240" y="521" on="1"/>
        <pt x="183" y="521" on="0"/>
        <pt x="108" y="575" on="0"/>
        <pt x="95" y="626" on="1"/>
        <pt x="130" y="667" on="1"/>
        <pt x="149" y="667" on="1"/>
        <pt x="159" y="640" on="0"/>
        <pt x="209" y="611" on="0"/>
        <pt x="244" y="611" on="1"/>
        <pt x="278" y="611" on="0"/>
        <pt x="333" y="641" on="0"/>
        <pt x="349" y="667" on="1"/>
        <pt x="368" y="667" on="1"/>
        <pt x="393" y="626" on="1"/>
      </contour>
    </TTGlyph>
    <TTGlyph name="brevehookabove" xMin="94" yMin="522" xMax="392" yMax="871">
      <contour>
        <pt x="274" y="871" on="0"/>
        <pt x="320" y="831" on="0"/>
        <pt x="320" y="801" on="1"/>
        <pt x="320" y="781" on="0"/>
        <pt x="295" y="745" on="0"/>
        <pt x="264" y="718" on="1"/>
        <pt x="287" y="680" on="1"/>
        <pt x="240" y="652" on="1"/>
        <pt x="198" y="718" on="1"/>
        <pt x="250" y="756" on="0"/>
        <pt x="250" y="788" on="1"/>
        <pt x="250" y="810" on="0"/>
        <pt x="222" y="810" on="1"/>
        <pt x="189" y="810" on="0"/>
        <pt x="159" y="785" on="1"/>
        <pt x="137" y="820" on="1"/>
        <pt x="185" y="871" on="0"/>
        <pt x="241" y="871" on="1"/>
      </contour>
      <contour>
        <pt x="343" y="522" on="0"/>
        <pt x="239" y="522" on="1"/>
        <pt x="182" y="522" on="0"/>
        <pt x="107" y="577" on="0"/>
        <pt x="94" y="627" on="1"/>
        <pt x="130" y="669" on="1"/>
        <pt x="149" y="669" on="1"/>
        <pt x="169" y="613" on="0"/>
        <pt x="243" y="613" on="1"/>
        <pt x="315" y="613" on="0"/>
        <pt x="349" y="669" on="1"/>
        <pt x="367" y="669" on="1"/>
        <pt x="392" y="627" on="1"/>
      </contour>
    </TTGlyph>
    <TTGlyph name="brevetilde" xMin="94" yMin="521" xMax="425" yMax="840">
      <contour>
        <pt x="425" y="794" on="1"/>
        <pt x="361" y="711" on="1"/>
        <pt x="349" y="706" on="1"/>
        <pt x="334" y="708" on="0"/>
        <pt x="273" y="724" on="1"/>
        <pt x="223" y="740" on="0"/>
        <pt x="206" y="740" on="1"/>
        <pt x="196" y="740" on="0"/>
        <pt x="175" y="722" on="0"/>
        <pt x="153" y="697" on="0"/>
        <pt x="149" y="692" on="1"/>
        <pt x="139" y="692" on="1"/>
        <pt x="103" y="728" on="1"/>
        <pt x="103" y="739" on="1"/>
        <pt x="167" y="820" on="1"/>
        <pt x="179" y="825" on="1"/>
        <pt x="206" y="821" on="0"/>
        <pt x="257" y="806" on="1"/>
        <pt x="308" y="791" on="0"/>
        <pt x="321" y="791" on="1"/>
        <pt x="332" y="791" on="0"/>
        <pt x="352" y="808" on="0"/>
        <pt x="373" y="834" on="0"/>
        <pt x="379" y="840" on="1"/>
        <pt x="390" y="840" on="1"/>
        <pt x="425" y="804" on="1"/>
      </contour>
      <contour>
        <pt x="332" y="521" on="0"/>
        <pt x="232" y="521" on="1"/>
        <pt x="178" y="521" on="0"/>
        <pt x="107" y="573" on="0"/>
        <pt x="94" y="621" on="1"/>
        <pt x="128" y="661" on="1"/>
        <pt x="146" y="661" on="1"/>
        <pt x="166" y="607" on="0"/>
        <pt x="236" y="607" on="1"/>
        <pt x="306" y="607" on="0"/>
        <pt x="337" y="661" on="1"/>
        <pt x="355" y="661" on="1"/>
        <pt x="379" y="621" on="1"/>
      </contour>
    </TTGlyph>
    <TTGlyph name="brokenbar" xMin="45" yMin="-260" xMax="274" yMax="803">
      <contour>
        <pt x="220" y="377" on="1"/>
        <pt x="130" y="366" on="1"/>
        <pt x="122" y="374" on="1"/>
        <pt x="173" y="795" on="1"/>
        <pt x="266" y="803" on="1"/>
        <pt x="274" y="794" on="1"/>
      </contour>
      <contour>
        <pt x="143" y="-253" on="1"/>
        <pt x="54" y="-260" on="1"/>
        <pt x="45" y="-248" on="1"/>
        <pt x="94" y="150" on="1"/>
        <pt x="183" y="160" on="1"/>
        <pt x="192" y="149" on="1"/>
      </contour>
    </TTGlyph>
    <TTGlyph name="bullet" xMin="65" yMin="195" xMax="234" yMax="367">
      <component glyphName="period" x="33" y="204" scale="1.234375" flags="0x1000"/>
    </TTGlyph>
    <TTGlyph name="bulletoperator" xMin="65" yMin="158" xMax="233" yMax="329">
      <contour>
        <pt x="190" y="329" on="0"/>
        <pt x="233" y="285" on="0"/>
        <pt x="233" y="247" on="1"/>
        <pt x="233" y="206" on="0"/>
        <pt x="186" y="158" on="0"/>
        <pt x="146" y="158" on="1"/>
        <pt x="107" y="158" on="0"/>
        <pt x="65" y="201" on="0"/>
        <pt x="65" y="241" on="1"/>
        <pt x="65" y="282" on="0"/>
        <pt x="112" y="329" on="0"/>
        <pt x="153" y="329" on="1"/>
      </contour>
    </TTGlyph>
    <TTGlyph name="c" xMin="33" yMin="-8" xMax="457" yMax="511">
      <contour>
        <pt x="402" y="511" on="0"/>
        <pt x="457" y="485" on="1"/>
        <pt x="423" y="379" on="1"/>
        <pt x="412" y="374" on="1"/>
        <pt x="369" y="411" on="0"/>
        <pt x="301" y="411" on="1"/>
        <pt x="163" y="411" on="0"/>
        <pt x="163" y="228" on="1"/>
        <pt x="163" y="94" on="0"/>
        <pt x="270" y="94" on="1"/>
        <pt x="335" y="94" on="0"/>
        <pt x="390" y="128" on="1"/>
        <pt x="401" y="122" on="1"/>
        <pt x="379" y="16" on="1"/>
        <pt x="315" y="-8" on="0"/>
        <pt x="259" y="-8" on="1"/>
        <pt x="147" y="-8" on="0"/>
        <pt x="33" y="106" on="0"/>
        <pt x="33" y="212" on="1"/>
        <pt x="33" y="352" on="0"/>
        <pt x="184" y="511" on="0"/>
        <pt x="320" y="511" on="1"/>
      </contour>
    </TTGlyph>
    <TTGlyph name="c.sups" xMin="53" yMin="324" xMax="287" yMax="648">
      <contour>
        <pt x="287" y="623" on="1"/>
        <pt x="264" y="562" on="1"/>
        <pt x="245" y="561" on="1"/>
        <pt x="223" y="584" on="0"/>
        <pt x="204" y="584" on="1"/>
        <pt x="134" y="584" on="0"/>
        <pt x="134" y="459" on="1"/>
        <pt x="134" y="424" on="0"/>
        <pt x="150" y="393" on="0"/>
        <pt x="169" y="393" on="1"/>
        <pt x="197" y="393" on="0"/>
        <pt x="227" y="444" on="1"/>
        <pt x="238" y="444" on="1"/>
        <pt x="266" y="409" on="1"/>
        <pt x="244" y="372" on="0"/>
        <pt x="195" y="333" on="0"/>
        <pt x="161" y="324" on="1"/>
        <pt x="149" y="324" on="1"/>
        <pt x="98" y="331" on="0"/>
        <pt x="53" y="387" on="0"/>
        <pt x="53" y="445" on="1"/>
        <pt x="53" y="533" on="0"/>
        <pt x="142" y="648" on="0"/>
        <pt x="230" y="648" on="1"/>
        <pt x="283" y="631" on="1"/>
      </contour>
    </TTGlyph>
    <TTGlyph name="cacute" xMin="33" yMin="-8" xMax="457" yMax="762">
      <component glyphName="c" x="0" y="0" flags="0x1000"/>
      <component glyphName="acute" x="66" y="40" flags="0x1000"/>
    </TTGlyph>
    <TTGlyph name="caron" xMin="95" yMin="524" xMax="401" yMax="714">
      <contour>
        <pt x="349" y="621" on="0"/>
        <pt x="269" y="544" on="1"/>
        <pt x="248" y="524" on="1"/>
        <pt x="220" y="524" on="1"/>
        <pt x="174" y="582" on="0"/>
        <pt x="95" y="665" on="1"/>
        <pt x="133" y="714" on="1"/>
        <pt x="146" y="714" on="1"/>
        <pt x="204" y="662" on="0"/>
        <pt x="241" y="621" on="1"/>
        <pt x="270" y="646" on="0"/>
        <pt x="361" y="714" on="1"/>
        <pt x="375" y="714" on="1"/>
        <pt x="401" y="665" on="1"/>
      </contour>
    </TTGlyph>
    <TTGlyph name="caron.alt" xMin="181" yMin="503" xMax="304" yMax="718">
      <contour>
        <pt x="248" y="512" on="1"/>
        <pt x="189" y="503" on="1"/>
        <pt x="181" y="510" on="1"/>
        <pt x="204" y="713" on="1"/>
        <pt x="297" y="718" on="1"/>
        <pt x="304" y="710" on="1"/>
      </contour>
    </TTGlyph>
    <TTGlyph name="caron.cap" xMin="99" yMin="540" xMax="391" yMax="695">
      <contour>
        <pt x="310" y="591" on="0"/>
        <pt x="251" y="540" on="1"/>
        <pt x="224" y="540" on="1"/>
        <pt x="171" y="590" on="0"/>
        <pt x="99" y="643" on="1"/>
        <pt x="130" y="695" on="1"/>
        <pt x="142" y="695" on="1"/>
        <pt x="176" y="675" on="0"/>
        <pt x="223" y="643" on="1"/>
        <pt x="242" y="631" on="1"/>
        <pt x="280" y="653" on="0"/>
        <pt x="360" y="695" on="1"/>
        <pt x="374" y="695" on="1"/>
        <pt x="391" y="643" on="1"/>
      </contour>
    </TTGlyph>
    <TTGlyph name="ccaron" xMin="33" yMin="-8" xMax="460" yMax="754">
      <component glyphName="c" x="0" y="0" flags="0x1000"/>
      <component glyphName="caron" x="59" y="40" flags="0x1000"/>
    </TTGlyph>
    <TTGlyph name="ccedilla" xMin="33" yMin="-200" xMax="457" yMax="511">
      <contour>
        <pt x="402" y="511" on="0"/>
        <pt x="457" y="485" on="1"/>
        <pt x="423" y="379" on="1"/>
        <pt x="412" y="374" on="1"/>
        <pt x="369" y="411" on="0"/>
        <pt x="301" y="411" on="1"/>
        <pt x="163" y="411" on="0"/>
        <pt x="163" y="228" on="1"/>
        <pt x="163" y="94" on="0"/>
        <pt x="270" y="94" on="1"/>
        <pt x="334" y="94" on="0"/>
        <pt x="391" y="128" on="1"/>
        <pt x="402" y="122" on="1"/>
        <pt x="379" y="16" on="1"/>
        <pt x="324" y="-4" on="0"/>
        <pt x="280" y="-7" on="1"/>
        <pt x="270" y="-47" on="1"/>
        <pt x="304" y="-66" on="1"/>
        <pt x="345" y="-88" on="0"/>
        <pt x="345" y="-125" on="1"/>
        <pt x="345" y="-158" on="0"/>
        <pt x="294" y="-200" on="0"/>
        <pt x="252" y="-200" on="1"/>
        <pt x="208" y="-200" on="0"/>
        <pt x="170" y="-171" on="1"/>
        <pt x="180" y="-116" on="1"/>
        <pt x="186" y="-114" on="1"/>
        <pt x="216" y="-144" on="0"/>
        <pt x="244" y="-144" on="1"/>
        <pt x="269" y="-144" on="0"/>
        <pt x="269" y="-122" on="1"/>
        <pt x="269" y="-110" on="0"/>
        <pt x="252" y="-102" on="1"/>
        <pt x="203" y="-74" on="1"/>
        <pt x="219" y="-6" on="1"/>
        <pt x="127" y="4" on="0"/>
        <pt x="33" y="116" on="0"/>
        <pt x="33" y="212" on="1"/>
        <pt x="33" y="352" on="0"/>
        <pt x="184" y="511" on="0"/>
        <pt x="320" y="511" on="1"/>
      </contour>
    </TTGlyph>
    <TTGlyph name="ccircumflex" xMin="33" yMin="-8" xMax="459" yMax="756">
      <component glyphName="c" x="0" y="0" flags="0x1000"/>
      <component glyphName="circumflex" x="69" y="40" flags="0x1000"/>
    </TTGlyph>
    <TTGlyph name="cdotaccent" xMin="33" yMin="-8" xMax="457" yMax="733">
      <component glyphName="c" x="0" y="0" flags="0x1000"/>
      <component glyphName="dotaccent" x="64" y="40" flags="0x1000"/>
    </TTGlyph>
    <TTGlyph name="cedilla" xMin="60" yMin="-201" xMax="235" yMax="25">
      <contour>
        <pt x="194" y="-67" on="1"/>
        <pt x="235" y="-89" on="0"/>
        <pt x="235" y="-126" on="1"/>
        <pt x="235" y="-159" on="0"/>
        <pt x="184" y="-201" on="0"/>
        <pt x="142" y="-201" on="1"/>
        <pt x="98" y="-201" on="0"/>
        <pt x="60" y="-172" on="1"/>
        <pt x="70" y="-117" on="1"/>
        <pt x="76" y="-115" on="1"/>
        <pt x="106" y="-145" on="0"/>
        <pt x="134" y="-145" on="1"/>
        <pt x="159" y="-145" on="0"/>
        <pt x="159" y="-123" on="1"/>
        <pt x="159" y="-112" on="0"/>
        <pt x="142" y="-103" on="1"/>
        <pt x="93" y="-75" on="1"/>
        <pt x="116" y="25" on="1"/>
        <pt x="179" y="25" on="1"/>
        <pt x="160" y="-48" on="1"/>
      </contour>
    </TTGlyph>
    <TTGlyph name="cent" xMin="29" yMin="-123" xMax="376" yMax="655">
      <contour>
        <pt x="197" y="427" on="0"/>
        <pt x="132" y="325" on="0"/>
        <pt x="132" y="233" on="1"/>
        <pt x="132" y="176" on="0"/>
        <pt x="161" y="125" on="0"/>
        <pt x="192" y="125" on="1"/>
        <pt x="244" y="125" on="0"/>
        <pt x="291" y="205" on="1"/>
        <pt x="306" y="204" on="1"/>
        <pt x="342" y="159" on="1"/>
        <pt x="291" y="76" on="0"/>
        <pt x="219" y="45" on="1"/>
        <pt x="192" y="-123" on="1"/>
        <pt x="128" y="-123" on="1"/>
        <pt x="121" y="-112" on="1"/>
        <pt x="143" y="38" on="1"/>
        <pt x="84" y="52" on="0"/>
        <pt x="29" y="133" on="0"/>
        <pt x="29" y="213" on="1"/>
        <pt x="29" y="322" on="0"/>
        <pt x="124" y="478" on="0"/>
        <pt x="217" y="501" on="1"/>
        <pt x="240" y="655" on="1"/>
        <pt x="303" y="655" on="1"/>
        <pt x="314" y="645" on="1"/>
        <pt x="293" y="510" on="1"/>
        <pt x="370" y="488" on="1"/>
        <pt x="376" y="475" on="1"/>
        <pt x="346" y="394" on="1"/>
        <pt x="323" y="392" on="1"/>
        <pt x="288" y="427" on="0"/>
        <pt x="255" y="427" on="1"/>
      </contour>
    </TTGlyph>
    <TTGlyph name="circle1" xMin="-7" yMin="-12" xMax="469" yMax="464">
      <contour>
        <pt x="295" y="464" on="0"/>
        <pt x="405" y="400" on="0"/>
        <pt x="469" y="290" on="0"/>
        <pt x="469" y="226" on="1"/>
        <pt x="469" y="162" on="0"/>
        <pt x="405" y="52" on="0"/>
        <pt x="295" y="-12" on="0"/>
        <pt x="231" y="-12" on="1"/>
        <pt x="167" y="-12" on="0"/>
        <pt x="57" y="52" on="0"/>
        <pt x="-7" y="162" on="0"/>
        <pt x="-7" y="226" on="1"/>
        <pt x="-7" y="290" on="0"/>
        <pt x="57" y="400" on="0"/>
        <pt x="167" y="464" on="0"/>
        <pt x="231" y="464" on="1"/>
      </contour>
    </TTGlyph>
    <TTGlyph name="circle2" xMin="-11" yMin="-14" xMax="652" yMax="649">
      <contour>
        <pt x="410" y="649" on="0"/>
        <pt x="563" y="560" on="0"/>
        <pt x="652" y="407" on="0"/>
        <pt x="652" y="317" on="1"/>
        <pt x="652" y="227" on="0"/>
        <pt x="563" y="75" on="0"/>
        <pt x="410" y="-14" on="0"/>
        <pt x="320" y="-14" on="1"/>
        <pt x="230" y="-14" on="0"/>
        <pt x="78" y="75" on="0"/>
        <pt x="-11" y="227" on="0"/>
        <pt x="-11" y="317" on="1"/>
        <pt x="-11" y="407" on="0"/>
        <pt x="78" y="560" on="0"/>
        <pt x="230" y="649" on="0"/>
        <pt x="320" y="649" on="1"/>
      </contour>
    </TTGlyph>
    <TTGlyph name="circumflex" xMin="84" yMin="526" xMax="390" yMax="716">
      <contour>
        <pt x="126" y="611" on="0"/>
        <pt x="215" y="694" on="1"/>
        <pt x="239" y="716" on="1"/>
        <pt x="267" y="716" on="1"/>
        <pt x="321" y="646" on="0"/>
        <pt x="390" y="575" on="1"/>
        <pt x="351" y="526" on="1"/>
        <pt x="338" y="526" on="1"/>
        <pt x="275" y="582" on="0"/>
        <pt x="242" y="619" on="1"/>
        <pt x="203" y="584" on="0"/>
        <pt x="123" y="526" on="1"/>
        <pt x="110" y="526" on="1"/>
        <pt x="84" y="575" on="1"/>
      </contour>
    </TTGlyph>
    <TTGlyph name="circumflex.cap" xMin="94" yMin="548" xMax="386" yMax="703">
      <contour>
        <pt x="175" y="652" on="0"/>
        <pt x="234" y="703" on="1"/>
        <pt x="262" y="703" on="1"/>
        <pt x="312" y="654" on="0"/>
        <pt x="386" y="600" on="1"/>
        <pt x="356" y="548" on="1"/>
        <pt x="343" y="548" on="1"/>
        <pt x="302" y="573" on="0"/>
        <pt x="244" y="612" on="1"/>
        <pt x="209" y="592" on="0"/>
        <pt x="165" y="569" on="1"/>
        <pt x="125" y="548" on="1"/>
        <pt x="112" y="548" on="1"/>
        <pt x="94" y="600" on="1"/>
      </contour>
    </TTGlyph>
    <TTGlyph name="circumflexacute" xMin="90" yMin="529" xMax="442" yMax="813">
      <contour>
        <pt x="442" y="774" on="1"/>
        <pt x="348" y="653" on="1"/>
        <pt x="339" y="653" on="1"/>
        <pt x="295" y="686" on="1"/>
        <pt x="365" y="809" on="1"/>
        <pt x="375" y="813" on="1"/>
        <pt x="439" y="784" on="1"/>
      </contour>
      <contour>
        <pt x="304" y="638" on="0"/>
        <pt x="382" y="581" on="1"/>
        <pt x="352" y="529" on="1"/>
        <pt x="339" y="529" on="1"/>
        <pt x="347" y="525" on="0"/>
        <pt x="266" y="575" on="1"/>
        <pt x="239" y="593" on="1"/>
        <pt x="205" y="573" on="0"/>
        <pt x="155" y="547" on="1"/>
        <pt x="121" y="529" on="1"/>
        <pt x="108" y="529" on="1"/>
        <pt x="90" y="581" on="1"/>
        <pt x="171" y="633" on="0"/>
        <pt x="230" y="684" on="1"/>
        <pt x="257" y="684" on="1"/>
      </contour>
    </TTGlyph>
    <TTGlyph name="circumflexgrave" xMin="90" yMin="528" xMax="397" yMax="813">
      <contour>
        <pt x="397" y="686" on="1"/>
        <pt x="353" y="653" on="1"/>
        <pt x="344" y="653" on="1"/>
        <pt x="250" y="774" on="1"/>
        <pt x="252" y="784" on="1"/>
        <pt x="318" y="813" on="1"/>
        <pt x="327" y="809" on="1"/>
      </contour>
      <contour>
        <pt x="304" y="637" on="0"/>
        <pt x="382" y="580" on="1"/>
        <pt x="352" y="528" on="1"/>
        <pt x="339" y="528" on="1"/>
        <pt x="347" y="523" on="0"/>
        <pt x="266" y="574" on="1"/>
        <pt x="239" y="592" on="1"/>
        <pt x="205" y="572" on="0"/>
        <pt x="155" y="546" on="1"/>
        <pt x="121" y="528" on="1"/>
        <pt x="108" y="528" on="1"/>
        <pt x="90" y="580" on="1"/>
        <pt x="171" y="632" on="0"/>
        <pt x="230" y="683" on="1"/>
        <pt x="257" y="683" on="1"/>
      </contour>
    </TTGlyph>
    <TTGlyph name="circumflexhookabove" xMin="89" yMin="529" xMax="411" yMax="857">
      <contour>
        <pt x="368" y="857" on="0"/>
        <pt x="411" y="820" on="0"/>
        <pt x="411" y="790" on="1"/>
        <pt x="411" y="772" on="0"/>
        <pt x="388" y="738" on="0"/>
        <pt x="359" y="712" on="1"/>
        <pt x="380" y="676" on="1"/>
        <pt x="335" y="649" on="1"/>
        <pt x="296" y="712" on="1"/>
        <pt x="318" y="728" on="0"/>
        <pt x="345" y="765" on="0"/>
        <pt x="345" y="779" on="1"/>
        <pt x="345" y="800" on="0"/>
        <pt x="318" y="800" on="1"/>
        <pt x="288" y="800" on="0"/>
        <pt x="258" y="776" on="1"/>
        <pt x="237" y="810" on="1"/>
        <pt x="282" y="857" on="0"/>
        <pt x="336" y="857" on="1"/>
      </contour>
      <contour>
        <pt x="307" y="635" on="0"/>
        <pt x="381" y="581" on="1"/>
        <pt x="351" y="529" on="1"/>
        <pt x="338" y="529" on="1"/>
        <pt x="297" y="554" on="0"/>
        <pt x="239" y="593" on="1"/>
        <pt x="204" y="573" on="0"/>
        <pt x="160" y="550" on="1"/>
        <pt x="120" y="529" on="1"/>
        <pt x="107" y="529" on="1"/>
        <pt x="89" y="581" on="1"/>
        <pt x="170" y="633" on="0"/>
        <pt x="229" y="684" on="1"/>
        <pt x="257" y="684" on="1"/>
      </contour>
    </TTGlyph>
    <TTGlyph name="circumflextilde" xMin="85" yMin="529" xMax="422" yMax="838">
      <contour>
        <pt x="422" y="792" on="1"/>
        <pt x="358" y="709" on="1"/>
        <pt x="347" y="704" on="1"/>
        <pt x="332" y="706" on="0"/>
        <pt x="271" y="722" on="1"/>
        <pt x="215" y="738" on="0"/>
        <pt x="203" y="738" on="1"/>
        <pt x="193" y="738" on="0"/>
        <pt x="172" y="720" on="0"/>
        <pt x="150" y="695" on="0"/>
        <pt x="146" y="690" on="1"/>
        <pt x="136" y="690" on="1"/>
        <pt x="100" y="726" on="1"/>
        <pt x="100" y="737" on="1"/>
        <pt x="164" y="818" on="1"/>
        <pt x="176" y="823" on="1"/>
        <pt x="201" y="819" on="0"/>
        <pt x="253" y="804" on="1"/>
        <pt x="305" y="789" on="0"/>
        <pt x="319" y="789" on="1"/>
        <pt x="329" y="789" on="0"/>
        <pt x="348" y="806" on="0"/>
        <pt x="370" y="831" on="0"/>
        <pt x="376" y="838" on="1"/>
        <pt x="387" y="838" on="1"/>
        <pt x="422" y="802" on="1"/>
      </contour>
      <contour>
        <pt x="305" y="635" on="0"/>
        <pt x="377" y="582" on="1"/>
        <pt x="347" y="529" on="1"/>
        <pt x="334" y="529" on="1"/>
        <pt x="299" y="551" on="1"/>
        <pt x="235" y="593" on="1"/>
        <pt x="251" y="602" on="0"/>
        <pt x="176" y="561" on="1"/>
        <pt x="156" y="551" on="0"/>
        <pt x="116" y="529" on="1"/>
        <pt x="103" y="529" on="1"/>
        <pt x="85" y="582" on="1"/>
        <pt x="159" y="629" on="0"/>
        <pt x="225" y="684" on="1"/>
        <pt x="253" y="684" on="1"/>
      </contour>
    </TTGlyph>
    <TTGlyph name="colon" xMin="26" yMin="-7" xMax="194" yMax="395">
      <component glyphName="period" x="0" y="0" flags="0x1000"/>
      <component glyphName="period" x="32" y="263" flags="0x1000"/>
    </TTGlyph>
    <TTGlyph name="comma" xMin="2" yMin="-126" xMax="164" yMax="129">
      <contour>
        <pt x="164" y="94" on="0"/>
        <pt x="164" y="45" on="1"/>
        <pt x="164" y="-42" on="0"/>
        <pt x="45" y="-126" on="1"/>
        <pt x="3" y="-89" on="1"/>
        <pt x="2" y="-79" on="1"/>
        <pt x="57" y="-34" on="0"/>
        <pt x="57" y="18" on="1"/>
        <pt x="57" y="52" on="0"/>
        <pt x="26" y="77" on="1"/>
        <pt x="26" y="89" on="1"/>
        <pt x="73" y="117" on="0"/>
        <pt x="120" y="129" on="1"/>
      </contour>
    </TTGlyph>
    <TTGlyph name="commaaccentcomb" xMin="70" yMin="-275" xMax="214" yMax="-48">
      <contour>
        <pt x="214" y="-80" on="0"/>
        <pt x="214" y="-123" on="1"/>
        <pt x="214" y="-200" on="0"/>
        <pt x="108" y="-275" on="1"/>
        <pt x="71" y="-242" on="1"/>
        <pt x="70" y="-233" on="1"/>
        <pt x="120" y="-192" on="0"/>
        <pt x="120" y="-147" on="1"/>
        <pt x="120" y="-118" on="0"/>
        <pt x="92" y="-93" on="1"/>
        <pt x="92" y="-84" on="1"/>
        <pt x="132" y="-60" on="0"/>
        <pt x="175" y="-48" on="1"/>
      </contour>
    </TTGlyph>
    <TTGlyph name="copyright" xMin="54" yMin="-12" xMax="653" yMax="598">
      <contour>
        <pt x="442" y="598" on="0"/>
        <pt x="578" y="522" on="0"/>
        <pt x="653" y="384" on="0"/>
        <pt x="653" y="293" on="1"/>
        <pt x="653" y="202" on="0"/>
        <pt x="578" y="64" on="0"/>
        <pt x="442" y="-12" on="0"/>
        <pt x="353" y="-12" on="1"/>
        <pt x="264" y="-12" on="0"/>
        <pt x="129" y="64" on="0"/>
        <pt x="54" y="202" on="0"/>
        <pt x="54" y="293" on="1"/>
        <pt x="54" y="384" on="0"/>
        <pt x="129" y="522" on="0"/>
        <pt x="264" y="598" on="0"/>
        <pt x="353" y="598" on="1"/>
      </contour>
      <contour>
        <pt x="278" y="552" on="0"/>
        <pt x="163" y="488" on="0"/>
        <pt x="100" y="370" on="0"/>
        <pt x="100" y="293" on="1"/>
        <pt x="100" y="216" on="0"/>
        <pt x="163" y="98" on="0"/>
        <pt x="278" y="34" on="0"/>
        <pt x="353" y="34" on="1"/>
        <pt x="428" y="34" on="0"/>
        <pt x="544" y="98" on="0"/>
        <pt x="607" y="216" on="0"/>
        <pt x="607" y="293" on="1"/>
        <pt x="607" y="370" on="0"/>
        <pt x="544" y="488" on="0"/>
        <pt x="428" y="552" on="0"/>
        <pt x="353" y="552" on="1"/>
      </contour>
      <contour>
        <pt x="418" y="465" on="0"/>
        <pt x="464" y="448" on="1"/>
        <pt x="448" y="379" on="1"/>
        <pt x="443" y="376" on="1"/>
        <pt x="412" y="393" on="0"/>
        <pt x="372" y="393" on="1"/>
        <pt x="332" y="393" on="0"/>
        <pt x="294" y="350" on="0"/>
        <pt x="294" y="302" on="1"/>
        <pt x="294" y="199" on="0"/>
        <pt x="375" y="199" on="1"/>
        <pt x="415" y="199" on="0"/>
        <pt x="449" y="213" on="1"/>
        <pt x="457" y="210" on="1"/>
        <pt x="450" y="141" on="1"/>
        <pt x="412" y="127" on="0"/>
        <pt x="369" y="127" on="1"/>
        <pt x="286" y="127" on="0"/>
        <pt x="203" y="212" on="0"/>
        <pt x="203" y="293" on="1"/>
        <pt x="203" y="375" on="0"/>
        <pt x="293" y="465" on="0"/>
        <pt x="375" y="465" on="1"/>
      </contour>
    </TTGlyph>
    <TTGlyph name="currency" xMin="9" yMin="144" xMax="453" yMax="557">
      <contour>
        <pt x="451" y="489" on="1"/>
        <pt x="375" y="427" on="1"/>
        <pt x="388" y="402" on="0"/>
        <pt x="388" y="365" on="1"/>
        <pt x="388" y="317" on="0"/>
        <pt x="358" y="278" on="1"/>
        <pt x="421" y="218" on="1"/>
        <pt x="421" y="206" on="1"/>
        <pt x="358" y="147" on="1"/>
        <pt x="346" y="148" on="1"/>
        <pt x="293" y="216" on="1"/>
        <pt x="255" y="193" on="0"/>
        <pt x="212" y="193" on="1"/>
        <pt x="172" y="193" on="0"/>
        <pt x="141" y="214" on="1"/>
        <pt x="74" y="145" on="1"/>
        <pt x="62" y="144" on="1"/>
        <pt x="9" y="200" on="1"/>
        <pt x="12" y="212" on="1"/>
        <pt x="87" y="273" on="1"/>
        <pt x="73" y="299" on="0"/>
        <pt x="73" y="335" on="1"/>
        <pt x="73" y="380" on="0"/>
        <pt x="104" y="424" on="1"/>
        <pt x="43" y="483" on="1"/>
        <pt x="43" y="495" on="1"/>
        <pt x="106" y="554" on="1"/>
        <pt x="117" y="553" on="1"/>
        <pt x="171" y="484" on="1"/>
        <pt x="209" y="506" on="0"/>
        <pt x="250" y="506" on="1"/>
        <pt x="290" y="506" on="0"/>
        <pt x="319" y="486" on="1"/>
        <pt x="388" y="556" on="1"/>
        <pt x="401" y="557" on="1"/>
        <pt x="453" y="501" on="1"/>
      </contour>
      <contour>
        <pt x="201" y="436" on="0"/>
        <pt x="144" y="381" on="0"/>
        <pt x="144" y="340" on="1"/>
        <pt x="144" y="305" on="0"/>
        <pt x="186" y="263" on="0"/>
        <pt x="220" y="263" on="1"/>
        <pt x="262" y="263" on="0"/>
        <pt x="319" y="318" on="0"/>
        <pt x="319" y="360" on="1"/>
        <pt x="319" y="394" on="0"/>
        <pt x="276" y="436" on="0"/>
        <pt x="242" y="436" on="1"/>
      </contour>
    </TTGlyph>
    <TTGlyph name="d" xMin="44" yMin="-6" xMax="534" yMax="508">
      <contour>
        <pt x="420" y="508" on="0"/>
        <pt x="534" y="404" on="0"/>
        <pt x="534" y="308" on="1"/>
        <pt x="534" y="160" on="0"/>
        <pt x="380" y="-6" on="0"/>
        <pt x="237" y="-6" on="1"/>
        <pt x="156" y="-6" on="0"/>
        <pt x="44" y="0" on="1"/>
        <pt x="68" y="150" on="1"/>
        <pt x="107" y="505" on="1"/>
        <pt x="317" y="508" on="1"/>
      </contour>
      <contour>
        <pt x="405" y="88" on="0"/>
        <pt x="405" y="287" on="1"/>
        <pt x="405" y="351" on="0"/>
        <pt x="353" y="410" on="0"/>
        <pt x="301" y="410" on="1"/>
        <pt x="254" y="410" on="0"/>
        <pt x="217" y="406" on="1"/>
        <pt x="181" y="161" on="1"/>
        <pt x="175" y="94" on="1"/>
        <pt x="259" y="88" on="0"/>
        <pt x="263" y="88" on="1"/>
      </contour>
    </TTGlyph>
    <TTGlyph name="d.sups" xMin="49" yMin="323" xMax="354" yMax="812">
      <contour>
        <pt x="300" y="404" on="1"/>
        <pt x="296" y="331" on="1"/>
        <pt x="210" y="325" on="1"/>
        <pt x="226" y="441" on="1"/>
        <pt x="219" y="441" on="1"/>
        <pt x="179" y="366" on="0"/>
        <pt x="136" y="323" on="1"/>
        <pt x="123" y="323" on="1"/>
        <pt x="82" y="336" on="0"/>
        <pt x="49" y="386" on="0"/>
        <pt x="49" y="428" on="1"/>
        <pt x="49" y="504" on="0"/>
        <pt x="134" y="627" on="0"/>
        <pt x="213" y="645" on="1"/>
        <pt x="217" y="645" on="1"/>
        <pt x="252" y="640" on="1"/>
        <pt x="265" y="734" on="1"/>
        <pt x="267" y="805" on="1"/>
        <pt x="354" y="812" on="1"/>
      </contour>
      <contour>
        <pt x="157" y="399" on="0"/>
        <pt x="209" y="474" on="0"/>
        <pt x="239" y="538" on="1"/>
        <pt x="244" y="576" on="1"/>
        <pt x="200" y="585" on="1"/>
        <pt x="166" y="585" on="0"/>
        <pt x="128" y="516" on="0"/>
        <pt x="128" y="460" on="1"/>
        <pt x="128" y="430" on="0"/>
        <pt x="139" y="399" on="0"/>
        <pt x="146" y="399" on="1"/>
      </contour>
    </TTGlyph>
    <TTGlyph name="dagger" xMin="52" yMin="-94" xMax="482" yMax="591">
      <contour>
        <pt x="304" y="324" on="1"/>
        <pt x="299" y="289" on="1"/>
        <pt x="253" y="-89" on="1"/>
        <pt x="172" y="-94" on="1"/>
        <pt x="165" y="-85" on="1"/>
        <pt x="210" y="281" on="1"/>
        <pt x="215" y="324" on="1"/>
        <pt x="60" y="324" on="1"/>
        <pt x="52" y="334" on="1"/>
        <pt x="69" y="411" on="1"/>
        <pt x="226" y="411" on="1"/>
        <pt x="247" y="585" on="1"/>
        <pt x="331" y="591" on="1"/>
        <pt x="337" y="584" on="1"/>
        <pt x="315" y="411" on="1"/>
        <pt x="475" y="411" on="1"/>
        <pt x="482" y="402" on="1"/>
        <pt x="466" y="324" on="1"/>
      </contour>
    </TTGlyph>
    <TTGlyph name="daggerdbl" xMin="21" yMin="-94" xMax="483" yMax="591">
      <contour>
        <pt x="282" y="156" on="1"/>
        <pt x="443" y="156" on="1"/>
        <pt x="450" y="148" on="1"/>
        <pt x="435" y="69" on="1"/>
        <pt x="272" y="69" on="1"/>
        <pt x="252" y="-89" on="1"/>
        <pt x="172" y="-94" on="1"/>
        <pt x="165" y="-85" on="1"/>
        <pt x="184" y="69" on="1"/>
        <pt x="28" y="69" on="1"/>
        <pt x="21" y="79" on="1"/>
        <pt x="37" y="156" on="1"/>
        <pt x="194" y="156" on="1"/>
        <pt x="209" y="281" on="1"/>
        <pt x="216" y="335" on="1"/>
        <pt x="61" y="335" on="1"/>
        <pt x="53" y="344" on="1"/>
        <pt x="70" y="422" on="1"/>
        <pt x="227" y="422" on="1"/>
        <pt x="247" y="585" on="1"/>
        <pt x="331" y="591" on="1"/>
        <pt x="337" y="584" on="1"/>
        <pt x="316" y="422" on="1"/>
        <pt x="475" y="422" on="1"/>
        <pt x="483" y="413" on="1"/>
        <pt x="467" y="335" on="1"/>
        <pt x="305" y="335" on="1"/>
        <pt x="299" y="289" on="1"/>
      </contour>
    </TTGlyph>
    <TTGlyph name="dcaron" xMin="44" yMin="-6" xMax="534" yMax="754">
      <component glyphName="d" x="0" y="0" flags="0x1000"/>
      <component glyphName="caron" x="69" y="40" flags="0x1000"/>
    </TTGlyph>
    <TTGlyph name="dcroat" xMin="44" yMin="-6" xMax="534" yMax="699">
      <component glyphName="d" x="0" y="0" flags="0x1000"/>
      <component glyphName="macron" x="75" y="40" flags="0x1000"/>
    </TTGlyph>
    <TTGlyph name="degree" xMin="51" yMin="394" xMax="313" yMax="652">
      <contour>
        <pt x="248" y="652" on="0"/>
        <pt x="313" y="586" on="0"/>
        <pt x="313" y="537" on="1"/>
        <pt x="313" y="498" on="0"/>
        <pt x="272" y="433" on="0"/>
        <pt x="205" y="394" on="0"/>
        <pt x="167" y="394" on="1"/>
        <pt x="117" y="394" on="0"/>
        <pt x="51" y="461" on="0"/>
        <pt x="51" y="510" on="1"/>
        <pt x="51" y="548" on="0"/>
        <pt x="92" y="613" on="0"/>
        <pt x="160" y="652" on="0"/>
        <pt x="198" y="652" on="1"/>
      </contour>
      <contour>
        <pt x="157" y="596" on="0"/>
        <pt x="108" y="549" on="0"/>
        <pt x="108" y="516" on="1"/>
        <pt x="108" y="488" on="0"/>
        <pt x="145" y="451" on="0"/>
        <pt x="173" y="451" on="1"/>
        <pt x="207" y="451" on="0"/>
        <pt x="256" y="498" on="0"/>
        <pt x="256" y="531" on="1"/>
        <pt x="256" y="559" on="0"/>
        <pt x="219" y="596" on="0"/>
        <pt x="191" y="596" on="1"/>
      </contour>
    </TTGlyph>
    <TTGlyph name="dieresis" xMin="93" yMin="553" xMax="390" yMax="680">
      <contour>
        <pt x="185" y="680" on="0"/>
        <pt x="216" y="648" on="0"/>
        <pt x="216" y="620" on="1"/>
        <pt x="216" y="589" on="0"/>
        <pt x="182" y="554" on="0"/>
        <pt x="153" y="554" on="1"/>
        <pt x="93" y="554" on="0"/>
        <pt x="93" y="615" on="1"/>
        <pt x="93" y="645" on="0"/>
        <pt x="128" y="680" on="0"/>
        <pt x="158" y="680" on="1"/>
      </contour>
      <contour>
        <pt x="360" y="679" on="0"/>
        <pt x="390" y="647" on="0"/>
        <pt x="390" y="619" on="1"/>
        <pt x="390" y="589" on="0"/>
        <pt x="356" y="553" on="0"/>
        <pt x="327" y="553" on="1"/>
        <pt x="268" y="553" on="0"/>
        <pt x="268" y="614" on="1"/>
        <pt x="268" y="644" on="0"/>
        <pt x="302" y="679" on="0"/>
        <pt x="332" y="679" on="1"/>
      </contour>
    </TTGlyph>
    <TTGlyph name="dieresis.i" xMin="105" yMin="553" xMax="379" yMax="679">
      <contour>
        <pt x="197" y="679" on="0"/>
        <pt x="228" y="647" on="0"/>
        <pt x="228" y="619" on="1"/>
        <pt x="228" y="589" on="0"/>
        <pt x="194" y="553" on="0"/>
        <pt x="165" y="553" on="1"/>
        <pt x="105" y="553" on="0"/>
        <pt x="105" y="614" on="1"/>
        <pt x="105" y="644" on="0"/>
        <pt x="139" y="679" on="0"/>
        <pt x="169" y="679" on="1"/>
      </contour>
      <contour>
        <pt x="348" y="679" on="0"/>
        <pt x="379" y="647" on="0"/>
        <pt x="379" y="619" on="1"/>
        <pt x="379" y="589" on="0"/>
        <pt x="345" y="553" on="0"/>
        <pt x="316" y="553" on="1"/>
        <pt x="256" y="553" on="0"/>
        <pt x="256" y="614" on="1"/>
        <pt x="256" y="644" on="0"/>
        <pt x="290" y="679" on="0"/>
        <pt x="321" y="679" on="1"/>
      </contour>
    </TTGlyph>
    <TTGlyph name="dieresisacute" xMin="92" yMin="536" xMax="385" yMax="842">
      <contour>
        <pt x="374" y="756" on="1"/>
        <pt x="368" y="744" on="1"/>
        <pt x="262" y="723" on="0"/>
        <pt x="144" y="705" on="1"/>
        <pt x="132" y="711" on="1"/>
        <pt x="120" y="768" on="1"/>
        <pt x="238" y="803" on="0"/>
        <pt x="343" y="842" on="1"/>
        <pt x="354" y="837" on="1"/>
      </contour>
      <contour>
        <pt x="182" y="658" on="0"/>
        <pt x="212" y="628" on="0"/>
        <pt x="212" y="600" on="1"/>
        <pt x="212" y="571" on="0"/>
        <pt x="179" y="536" on="0"/>
        <pt x="150" y="536" on="1"/>
        <pt x="122" y="536" on="0"/>
        <pt x="92" y="567" on="0"/>
        <pt x="92" y="595" on="1"/>
        <pt x="92" y="624" on="0"/>
        <pt x="126" y="658" on="0"/>
        <pt x="155" y="658" on="1"/>
      </contour>
      <contour>
        <pt x="355" y="658" on="0"/>
        <pt x="385" y="628" on="0"/>
        <pt x="385" y="600" on="1"/>
        <pt x="385" y="571" on="0"/>
        <pt x="352" y="536" on="0"/>
        <pt x="323" y="536" on="1"/>
        <pt x="295" y="536" on="0"/>
        <pt x="265" y="567" on="0"/>
        <pt x="265" y="595" on="1"/>
        <pt x="265" y="624" on="0"/>
        <pt x="299" y="658" on="0"/>
        <pt x="328" y="658" on="1"/>
      </contour>
    </TTGlyph>
    <TTGlyph name="dieresiscaron" xMin="96" yMin="536" xMax="399" yMax="828">
      <contour>
        <pt x="319" y="724" on="0"/>
        <pt x="259" y="673" on="1"/>
        <pt x="231" y="673" on="1"/>
        <pt x="185" y="716" on="0"/>
        <pt x="107" y="775" on="1"/>
        <pt x="137" y="828" on="1"/>
        <pt x="150" y="828" on="1"/>
        <pt x="200" y="796" on="1"/>
        <pt x="249" y="764" on="1"/>
        <pt x="315" y="800" on="1"/>
        <pt x="368" y="828" on="1"/>
        <pt x="381" y="828" on="1"/>
        <pt x="399" y="775" on="1"/>
      </contour>
      <contour>
        <pt x="186" y="658" on="0"/>
        <pt x="217" y="628" on="0"/>
        <pt x="217" y="600" on="1"/>
        <pt x="217" y="571" on="0"/>
        <pt x="183" y="536" on="0"/>
        <pt x="155" y="536" on="1"/>
        <pt x="127" y="536" on="0"/>
        <pt x="96" y="567" on="0"/>
        <pt x="96" y="595" on="1"/>
        <pt x="96" y="624" on="0"/>
        <pt x="130" y="658" on="0"/>
        <pt x="159" y="658" on="1"/>
      </contour>
      <contour>
        <pt x="359" y="658" on="0"/>
        <pt x="389" y="628" on="0"/>
        <pt x="389" y="600" on="1"/>
        <pt x="389" y="571" on="0"/>
        <pt x="356" y="536" on="0"/>
        <pt x="327" y="536" on="1"/>
        <pt x="299" y="536" on="0"/>
        <pt x="269" y="567" on="0"/>
        <pt x="269" y="595" on="1"/>
        <pt x="269" y="624" on="0"/>
        <pt x="303" y="658" on="0"/>
        <pt x="332" y="658" on="1"/>
      </contour>
    </TTGlyph>
    <TTGlyph name="dieresisgrave" xMin="91" yMin="536" xMax="388" yMax="842">
      <contour>
        <pt x="262" y="808" on="0"/>
        <pt x="388" y="768" on="1"/>
        <pt x="370" y="711" on="1"/>
        <pt x="357" y="705" on="1"/>
        <pt x="238" y="723" on="0"/>
        <pt x="139" y="744" on="1"/>
        <pt x="133" y="756" on="1"/>
        <pt x="163" y="837" on="1"/>
        <pt x="175" y="842" on="1"/>
      </contour>
      <contour>
        <pt x="184" y="658" on="0"/>
        <pt x="212" y="629" on="0"/>
        <pt x="212" y="603" on="1"/>
        <pt x="212" y="573" on="0"/>
        <pt x="176" y="536" on="0"/>
        <pt x="146" y="536" on="1"/>
        <pt x="91" y="536" on="0"/>
        <pt x="91" y="592" on="1"/>
        <pt x="91" y="622" on="0"/>
        <pt x="127" y="658" on="0"/>
        <pt x="158" y="658" on="1"/>
      </contour>
      <contour>
        <pt x="356" y="658" on="0"/>
        <pt x="385" y="629" on="0"/>
        <pt x="385" y="603" on="1"/>
        <pt x="385" y="573" on="0"/>
        <pt x="349" y="536" on="0"/>
        <pt x="319" y="536" on="1"/>
        <pt x="264" y="536" on="0"/>
        <pt x="264" y="592" on="1"/>
        <pt x="264" y="622" on="0"/>
        <pt x="300" y="658" on="0"/>
        <pt x="330" y="658" on="1"/>
      </contour>
    </TTGlyph>
    <TTGlyph name="dieresismacron" xMin="101" yMin="536" xMax="406" yMax="798">
      <contour>
        <pt x="399" y="716" on="1"/>
        <pt x="122" y="716" on="1"/>
        <pt x="112" y="725" on="1"/>
        <pt x="119" y="798" on="1"/>
        <pt x="397" y="798" on="1"/>
        <pt x="406" y="789" on="1"/>
      </contour>
      <contour>
        <pt x="191" y="658" on="0"/>
        <pt x="221" y="628" on="0"/>
        <pt x="221" y="600" on="1"/>
        <pt x="221" y="571" on="0"/>
        <pt x="188" y="536" on="0"/>
        <pt x="159" y="536" on="1"/>
        <pt x="131" y="536" on="0"/>
        <pt x="101" y="567" on="0"/>
        <pt x="101" y="595" on="1"/>
        <pt x="101" y="624" on="0"/>
        <pt x="135" y="658" on="0"/>
        <pt x="164" y="658" on="1"/>
      </contour>
      <contour>
        <pt x="364" y="658" on="0"/>
        <pt x="394" y="628" on="0"/>
        <pt x="394" y="600" on="1"/>
        <pt x="394" y="571" on="0"/>
        <pt x="361" y="536" on="0"/>
        <pt x="332" y="536" on="1"/>
        <pt x="304" y="536" on="0"/>
        <pt x="274" y="567" on="0"/>
        <pt x="274" y="595" on="1"/>
        <pt x="274" y="624" on="0"/>
        <pt x="308" y="658" on="0"/>
        <pt x="337" y="658" on="1"/>
      </contour>
    </TTGlyph>
    <TTGlyph name="divide" xMin="26" yMin="26" xMax="459" yMax="451">
      <component glyphName="minus" x="0" y="0" flags="0x1000"/>
      <component glyphName="period" x="122" y="33" scale="0.887084960938" flags="0x1000"/>
      <component glyphName="period" x="159" y="334" scale="0.887084960938" flags="0x1000"/>
    </TTGlyph>
    <TTGlyph name="divisionslash" xMin="-26" yMin="-115" xMax="332" yMax="680">
      <component glyphName="slash" x="0" y="0" flags="0x1000"/>
    </TTGlyph>
    <TTGlyph name="dollar" xMin="15" yMin="-134" xMax="407" yMax="643">
      <contour>
        <pt x="187" y="348" on="0"/>
        <pt x="223" y="322" on="0"/>
        <pt x="261" y="305" on="1"/>
        <pt x="299" y="288" on="0"/>
        <pt x="349" y="257" on="0"/>
        <pt x="385" y="204" on="0"/>
        <pt x="385" y="165" on="1"/>
        <pt x="385" y="109" on="0"/>
        <pt x="309" y="15" on="0"/>
        <pt x="238" y="-1" on="1"/>
        <pt x="222" y="-134" on="1"/>
        <pt x="158" y="-134" on="1"/>
        <pt x="149" y="-124" on="1"/>
        <pt x="162" y="-8" on="1"/>
        <pt x="82" y="-6" on="0"/>
        <pt x="15" y="23" on="1"/>
        <pt x="43" y="138" on="1"/>
        <pt x="57" y="146" on="1"/>
        <pt x="86" y="116" on="0"/>
        <pt x="163" y="81" on="0"/>
        <pt x="194" y="81" on="1"/>
        <pt x="223" y="81" on="0"/>
        <pt x="262" y="113" on="0"/>
        <pt x="262" y="135" on="1"/>
        <pt x="262" y="155" on="0"/>
        <pt x="225" y="182" on="0"/>
        <pt x="187" y="199" on="1"/>
        <pt x="148" y="217" on="0"/>
        <pt x="99" y="248" on="0"/>
        <pt x="63" y="301" on="0"/>
        <pt x="63" y="340" on="1"/>
        <pt x="63" y="402" on="0"/>
        <pt x="151" y="496" on="0"/>
        <pt x="226" y="508" on="1"/>
        <pt x="241" y="643" on="1"/>
        <pt x="304" y="643" on="1"/>
        <pt x="315" y="632" on="1"/>
        <pt x="300" y="511" on="1"/>
        <pt x="358" y="506" on="0"/>
        <pt x="407" y="486" on="1"/>
        <pt x="377" y="377" on="1"/>
        <pt x="358" y="372" on="1"/>
        <pt x="304" y="419" on="0"/>
        <pt x="250" y="419" on="1"/>
        <pt x="221" y="419" on="0"/>
        <pt x="187" y="389" on="0"/>
        <pt x="187" y="368" on="1"/>
      </contour>
    </TTGlyph>
    <TTGlyph name="dotaccent" xMin="174" yMin="554" xMax="310" yMax="693">
      <contour>
        <pt x="276" y="693" on="0"/>
        <pt x="310" y="658" on="0"/>
        <pt x="310" y="626" on="1"/>
        <pt x="310" y="593" on="0"/>
        <pt x="272" y="554" on="0"/>
        <pt x="240" y="554" on="1"/>
        <pt x="209" y="554" on="0"/>
        <pt x="174" y="589" on="0"/>
        <pt x="174" y="621" on="1"/>
        <pt x="174" y="654" on="0"/>
        <pt x="212" y="693" on="0"/>
        <pt x="245" y="693" on="1"/>
      </contour>
    </TTGlyph>
    <TTGlyph name="dotbelowcomb" xMin="82" yMin="-195" xMax="218" yMax="-56">
      <contour>
        <pt x="184" y="-56" on="0"/>
        <pt x="218" y="-91" on="0"/>
        <pt x="218" y="-122" on="1"/>
        <pt x="218" y="-156" on="0"/>
        <pt x="180" y="-195" on="0"/>
        <pt x="148" y="-195" on="1"/>
        <pt x="116" y="-195" on="0"/>
        <pt x="82" y="-160" on="0"/>
        <pt x="82" y="-128" on="1"/>
        <pt x="82" y="-95" on="0"/>
        <pt x="120" y="-56" on="0"/>
        <pt x="153" y="-56" on="1"/>
      </contour>
    </TTGlyph>
    <TTGlyph name="dotlessi" xMin="45" yMin="0" xMax="231" yMax="505">
      <component glyphName="i" x="0" y="0" flags="0x1000"/>
    </TTGlyph>
    <TTGlyph name="dotlessj" xMin="-6" yMin="-88" xMax="259" yMax="505">
      <component glyphName="j" x="0" y="0" flags="0x1000"/>
    </TTGlyph>
    <TTGlyph name="down" xMin="62" yMin="72" xMax="358" yMax="368">
      <contour>
        <pt x="62" y="368" on="1"/>
        <pt x="358" y="368" on="1"/>
        <pt x="210" y="72" on="1"/>
      </contour>
    </TTGlyph>
    <TTGlyph name="e" xMin="44" yMin="0" xMax="454" yMax="505">
      <contour>
        <pt x="202" y="304" on="1"/>
        <pt x="291" y="303" on="1"/>
        <pt x="376" y="306" on="1"/>
        <pt x="381" y="297" on="1"/>
        <pt x="363" y="205" on="1"/>
        <pt x="270" y="208" on="1"/>
        <pt x="188" y="207" on="1"/>
        <pt x="181" y="161" on="1"/>
        <pt x="175" y="96" on="1"/>
        <pt x="261" y="96" on="1"/>
        <pt x="395" y="100" on="1"/>
        <pt x="401" y="91" on="1"/>
        <pt x="382" y="0" on="1"/>
        <pt x="44" y="0" on="1"/>
        <pt x="68" y="150" on="1"/>
        <pt x="107" y="505" on="1"/>
        <pt x="449" y="505" on="1"/>
        <pt x="454" y="495" on="1"/>
        <pt x="434" y="404" on="1"/>
        <pt x="309" y="409" on="1"/>
        <pt x="217" y="409" on="1"/>
      </contour>
    </TTGlyph>
    <TTGlyph name="e.sups" xMin="53" yMin="323" xMax="301" yMax="649">
      <contour>
        <pt x="285" y="402" on="1"/>
        <pt x="238" y="339" on="0"/>
        <pt x="169" y="323" on="1"/>
        <pt x="160" y="323" on="1"/>
        <pt x="53" y="334" on="0"/>
        <pt x="53" y="443" on="1"/>
        <pt x="53" y="534" on="0"/>
        <pt x="144" y="645" on="0"/>
        <pt x="221" y="649" on="1"/>
        <pt x="230" y="649" on="1"/>
        <pt x="301" y="636" on="0"/>
        <pt x="301" y="576" on="1"/>
        <pt x="301" y="535" on="0"/>
        <pt x="221" y="473" on="0"/>
        <pt x="133" y="448" on="1"/>
        <pt x="135" y="414" on="0"/>
        <pt x="155" y="386" on="0"/>
        <pt x="175" y="386" on="1"/>
        <pt x="215" y="386" on="0"/>
        <pt x="246" y="437" on="1"/>
        <pt x="257" y="436" on="1"/>
      </contour>
      <contour>
        <pt x="174" y="595" on="0"/>
        <pt x="138" y="543" on="0"/>
        <pt x="134" y="497" on="1"/>
        <pt x="225" y="525" on="0"/>
        <pt x="225" y="571" on="1"/>
        <pt x="225" y="595" on="0"/>
        <pt x="201" y="595" on="1"/>
      </contour>
    </TTGlyph>
    <TTGlyph name="eacute" xMin="44" yMin="0" xMax="454" yMax="762">
      <component glyphName="e" x="0" y="0" flags="0x1000"/>
      <component glyphName="acute" x="49" y="40" flags="0x1000"/>
    </TTGlyph>
    <TTGlyph name="ebreve" xMin="44" yMin="0" xMax="454" yMax="738">
      <component glyphName="e" x="0" y="0" flags="0x1000"/>
      <component glyphName="breve" x="42" y="40" flags="0x1000"/>
    </TTGlyph>
    <TTGlyph name="ecaron" xMin="44" yMin="0" xMax="454" yMax="754">
      <component glyphName="e" x="0" y="0" flags="0x1000"/>
      <component glyphName="caron" x="41" y="40" flags="0x1000"/>
    </TTGlyph>
    <TTGlyph name="ecircumflex" xMin="44" yMin="0" xMax="454" yMax="756">
      <component glyphName="e" x="0" y="0" flags="0x1000"/>
      <component glyphName="circumflex" x="52" y="40" flags="0x1000"/>
    </TTGlyph>
    <TTGlyph name="ecircumflexacute" xMin="44" yMin="0" xMax="490" yMax="853">
      <component glyphName="e" x="0" y="0" flags="0x1000"/>
      <component glyphName="circumflexacute" x="48" y="40" flags="0x1000"/>
    </TTGlyph>
    <TTGlyph name="ecircumflexdotbelow" xMin="44" yMin="-195" xMax="454" yMax="756">
      <component glyphName="e" x="0" y="0" flags="0x1000"/>
      <component glyphName="dotbelowcomb" x="65" y="0" flags="0x1000"/>
      <component glyphName="circumflex" x="52" y="40" flags="0x1000"/>
    </TTGlyph>
    <TTGlyph name="ecircumflexgrave" xMin="44" yMin="0" xMax="454" yMax="853">
      <component glyphName="e" x="0" y="0" flags="0x1000"/>
      <component glyphName="circumflexgrave" x="48" y="40" flags="0x1000"/>
    </TTGlyph>
    <TTGlyph name="ecircumflexhookabove" xMin="44" yMin="0" xMax="459" yMax="897">
      <component glyphName="e" x="0" y="0" flags="0x1000"/>
      <component glyphName="circumflexhookabove" x="48" y="40" flags="0x1000"/>
    </TTGlyph>
    <TTGlyph name="ecircumflextilde" xMin="44" yMin="0" xMax="484" yMax="878">
      <component glyphName="e" x="0" y="0" flags="0x1000"/>
      <component glyphName="circumflextilde" x="62" y="40" flags="0x1000"/>
    </TTGlyph>
    <TTGlyph name="edieresis" xMin="44" yMin="0" xMax="454" yMax="720">
      <component glyphName="e" x="0" y="0" flags="0x1000"/>
      <component glyphName="dieresis" x="46" y="40" flags="0x1000"/>
    </TTGlyph>
    <TTGlyph name="edotaccent" xMin="44" yMin="0" xMax="454" yMax="733">
      <component glyphName="e" x="0" y="0" flags="0x1000"/>
      <component glyphName="dotaccent" x="47" y="40" flags="0x1000"/>
    </TTGlyph>
    <TTGlyph name="edotbelow" xMin="44" yMin="-195" xMax="454" yMax="505">
      <component glyphName="e" x="0" y="0" flags="0x1000"/>
      <component glyphName="dotbelowcomb" x="65" y="0" flags="0x1000"/>
    </TTGlyph>
    <TTGlyph name="egrave" xMin="44" yMin="0" xMax="454" yMax="762">
      <component glyphName="e" x="0" y="0" flags="0x1000"/>
      <component glyphName="grave" x="35" y="40" flags="0x1000"/>
    </TTGlyph>
    <TTGlyph name="ehookabove" xMin="44" yMin="0" xMax="454" yMax="779">
      <component glyphName="e" x="0" y="0" flags="0x1000"/>
      <component glyphName="hookabove" x="9" y="40" flags="0x1000"/>
    </TTGlyph>
    <TTGlyph name="eight" xMin="32" yMin="-9" xMax="455" yMax="594">
      <contour>
        <pt x="363" y="594" on="0"/>
        <pt x="455" y="521" on="0"/>
        <pt x="455" y="457" on="1"/>
        <pt x="455" y="366" on="0"/>
        <pt x="349" y="311" on="1"/>
        <pt x="348" y="304" on="1"/>
        <pt x="393" y="280" on="0"/>
        <pt x="441" y="220" on="0"/>
        <pt x="441" y="168" on="1"/>
        <pt x="441" y="116" on="0"/>
        <pt x="388" y="36" on="0"/>
        <pt x="291" y="-9" on="0"/>
        <pt x="227" y="-9" on="1"/>
        <pt x="137" y="-9" on="0"/>
        <pt x="32" y="71" on="0"/>
        <pt x="32" y="137" on="1"/>
        <pt x="32" y="192" on="0"/>
        <pt x="98" y="261" on="0"/>
        <pt x="159" y="287" on="1"/>
        <pt x="160" y="293" on="1"/>
        <pt x="123" y="315" on="0"/>
        <pt x="83" y="374" on="0"/>
        <pt x="83" y="422" on="1"/>
        <pt x="83" y="473" on="0"/>
        <pt x="133" y="551" on="0"/>
        <pt x="224" y="594" on="0"/>
        <pt x="284" y="594" on="1"/>
      </contour>
      <contour>
        <pt x="238" y="505" on="0"/>
        <pt x="189" y="463" on="0"/>
        <pt x="189" y="430" on="1"/>
        <pt x="189" y="398" on="0"/>
        <pt x="229" y="360" on="0"/>
        <pt x="270" y="343" on="1"/>
        <pt x="309" y="363" on="0"/>
        <pt x="351" y="408" on="0"/>
        <pt x="351" y="441" on="1"/>
        <pt x="351" y="505" on="0"/>
        <pt x="278" y="505" on="1"/>
      </contour>
      <contour>
        <pt x="191" y="234" on="0"/>
        <pt x="142" y="192" on="0"/>
        <pt x="142" y="155" on="1"/>
        <pt x="142" y="118" on="0"/>
        <pt x="187" y="78" on="0"/>
        <pt x="230" y="78" on="1"/>
        <pt x="277" y="78" on="0"/>
        <pt x="334" y="126" on="0"/>
        <pt x="334" y="161" on="1"/>
        <pt x="334" y="194" on="0"/>
        <pt x="288" y="231" on="0"/>
        <pt x="238" y="252" on="1"/>
      </contour>
    </TTGlyph>
    <TTGlyph name="eight.dnom" xMin="18" yMin="-6" xMax="320" yMax="390">
      <contour>
        <pt x="255" y="390" on="0"/>
        <pt x="320" y="342" on="0"/>
        <pt x="320" y="301" on="1"/>
        <pt x="320" y="269" on="0"/>
        <pt x="282" y="225" on="0"/>
        <pt x="245" y="206" on="1"/>
        <pt x="244" y="202" on="1"/>
        <pt x="276" y="186" on="0"/>
        <pt x="308" y="148" on="0"/>
        <pt x="308" y="118" on="1"/>
        <pt x="308" y="62" on="0"/>
        <pt x="221" y="-6" on="0"/>
        <pt x="148" y="-6" on="1"/>
        <pt x="87" y="-6" on="0"/>
        <pt x="18" y="45" on="0"/>
        <pt x="18" y="88" on="1"/>
        <pt x="18" y="153" on="0"/>
        <pt x="107" y="185" on="1"/>
        <pt x="107" y="188" on="1"/>
        <pt x="52" y="217" on="0"/>
        <pt x="52" y="271" on="1"/>
        <pt x="52" y="325" on="0"/>
        <pt x="133" y="390" on="0"/>
        <pt x="200" y="390" on="1"/>
      </contour>
      <contour>
        <pt x="167" y="324" on="0"/>
        <pt x="137" y="299" on="0"/>
        <pt x="137" y="278" on="1"/>
        <pt x="137" y="261" on="0"/>
        <pt x="164" y="239" on="0"/>
        <pt x="189" y="228" on="1"/>
        <pt x="213" y="241" on="0"/>
        <pt x="237" y="268" on="0"/>
        <pt x="237" y="288" on="1"/>
        <pt x="237" y="305" on="0"/>
        <pt x="214" y="324" on="0"/>
        <pt x="193" y="324" on="1"/>
      </contour>
      <contour>
        <pt x="104" y="141" on="0"/>
        <pt x="104" y="101" on="1"/>
        <pt x="104" y="81" on="0"/>
        <pt x="131" y="58" on="0"/>
        <pt x="157" y="58" on="1"/>
        <pt x="188" y="58" on="0"/>
        <pt x="223" y="87" on="0"/>
        <pt x="223" y="108" on="1"/>
        <pt x="223" y="126" on="0"/>
        <pt x="192" y="148" on="0"/>
        <pt x="163" y="160" on="1"/>
      </contour>
    </TTGlyph>
    <TTGlyph name="eight.lf" xMin="32" yMin="-9" xMax="455" yMax="594">
      <component glyphName="eight" x="0" y="0" flags="0x1000"/>
    </TTGlyph>
    <TTGlyph name="eight.numr" xMin="50" yMin="253" xMax="352" yMax="649">
      <component glyphName="eight.dnom" x="32" y="259" flags="0x1000"/>
    </TTGlyph>
    <TTGlyph name="eight.sinf" xMin="-3" yMin="-126" xMax="299" yMax="270">
      <component glyphName="eight.dnom" x="-21" y="-120" flags="0x1000"/>
    </TTGlyph>
    <TTGlyph name="eight.tf" xMin="27" yMin="-9" xMax="446" yMax="594">
      <contour>
        <pt x="355" y="594" on="0"/>
        <pt x="446" y="521" on="0"/>
        <pt x="446" y="457" on="1"/>
        <pt x="446" y="366" on="0"/>
        <pt x="342" y="311" on="1"/>
        <pt x="341" y="304" on="1"/>
        <pt x="385" y="280" on="0"/>
        <pt x="432" y="220" on="0"/>
        <pt x="432" y="169" on="1"/>
        <pt x="432" y="117" on="0"/>
        <pt x="379" y="36" on="0"/>
        <pt x="283" y="-9" on="0"/>
        <pt x="220" y="-9" on="1"/>
        <pt x="131" y="-9" on="0"/>
        <pt x="27" y="70" on="0"/>
        <pt x="27" y="137" on="1"/>
        <pt x="27" y="192" on="0"/>
        <pt x="91" y="261" on="0"/>
        <pt x="152" y="287" on="1"/>
        <pt x="153" y="293" on="1"/>
        <pt x="117" y="315" on="0"/>
        <pt x="77" y="374" on="0"/>
        <pt x="77" y="421" on="1"/>
        <pt x="77" y="472" on="0"/>
        <pt x="127" y="551" on="0"/>
        <pt x="218" y="594" on="0"/>
        <pt x="278" y="594" on="1"/>
      </contour>
      <contour>
        <pt x="231" y="505" on="0"/>
        <pt x="183" y="463" on="0"/>
        <pt x="183" y="430" on="1"/>
        <pt x="183" y="398" on="0"/>
        <pt x="223" y="361" on="0"/>
        <pt x="263" y="343" on="1"/>
        <pt x="301" y="363" on="0"/>
        <pt x="342" y="408" on="0"/>
        <pt x="342" y="441" on="1"/>
        <pt x="342" y="505" on="0"/>
        <pt x="271" y="505" on="1"/>
      </contour>
      <contour>
        <pt x="184" y="235" on="0"/>
        <pt x="136" y="192" on="0"/>
        <pt x="136" y="155" on="1"/>
        <pt x="136" y="119" on="0"/>
        <pt x="180" y="78" on="0"/>
        <pt x="222" y="78" on="1"/>
        <pt x="268" y="78" on="0"/>
        <pt x="325" y="126" on="0"/>
        <pt x="325" y="161" on="1"/>
        <pt x="325" y="194" on="0"/>
        <pt x="279" y="231" on="0"/>
        <pt x="230" y="252" on="1"/>
      </contour>
    </TTGlyph>
    <TTGlyph name="eight.tosf" xMin="28" yMin="-9" xMax="445" yMax="594">
      <contour>
        <pt x="354" y="594" on="0"/>
        <pt x="445" y="521" on="0"/>
        <pt x="445" y="457" on="1"/>
        <pt x="445" y="366" on="0"/>
        <pt x="341" y="311" on="1"/>
        <pt x="340" y="304" on="1"/>
        <pt x="384" y="280" on="0"/>
        <pt x="431" y="220" on="0"/>
        <pt x="431" y="169" on="1"/>
        <pt x="431" y="117" on="0"/>
        <pt x="378" y="36" on="0"/>
        <pt x="283" y="-9" on="0"/>
        <pt x="220" y="-9" on="1"/>
        <pt x="131" y="-9" on="0"/>
        <pt x="28" y="71" on="0"/>
        <pt x="28" y="137" on="1"/>
        <pt x="28" y="192" on="0"/>
        <pt x="92" y="261" on="0"/>
        <pt x="153" y="287" on="1"/>
        <pt x="154" y="293" on="1"/>
        <pt x="118" y="315" on="0"/>
        <pt x="78" y="374" on="0"/>
        <pt x="78" y="421" on="1"/>
        <pt x="78" y="472" on="0"/>
        <pt x="128" y="551" on="0"/>
        <pt x="218" y="594" on="0"/>
        <pt x="277" y="594" on="1"/>
      </contour>
      <contour>
        <pt x="231" y="506" on="0"/>
        <pt x="184" y="464" on="0"/>
        <pt x="184" y="430" on="1"/>
        <pt x="184" y="397" on="0"/>
        <pt x="224" y="359" on="0"/>
        <pt x="263" y="343" on="1"/>
        <pt x="301" y="363" on="0"/>
        <pt x="342" y="408" on="0"/>
        <pt x="342" y="441" on="1"/>
        <pt x="342" y="506" on="0"/>
        <pt x="271" y="506" on="1"/>
      </contour>
      <contour>
        <pt x="184" y="234" on="0"/>
        <pt x="137" y="193" on="0"/>
        <pt x="137" y="155" on="1"/>
        <pt x="137" y="118" on="0"/>
        <pt x="181" y="77" on="0"/>
        <pt x="222" y="77" on="1"/>
        <pt x="268" y="77" on="0"/>
        <pt x="325" y="126" on="0"/>
        <pt x="325" y="161" on="1"/>
        <pt x="325" y="194" on="0"/>
        <pt x="278" y="233" on="0"/>
        <pt x="230" y="252" on="1"/>
      </contour>
    </TTGlyph>
    <TTGlyph name="eightsuperior" xMin="57" yMin="310" xMax="359" yMax="706">
      <component glyphName="eight.dnom" x="39" y="316" flags="0x1000"/>
    </TTGlyph>
    <TTGlyph name="ellipsis" xMin="2" yMin="-7" xMax="536" yMax="132">
      <component glyphName="period" x="175" y="0" flags="0x1000"/>
      <component glyphName="period" x="374" y="0" flags="0x1000"/>
      <component glyphName="period" x="-24" y="0" flags="0x1000"/>
    </TTGlyph>
    <TTGlyph name="emacron" xMin="44" yMin="0" xMax="454" yMax="699">
      <component glyphName="e" x="0" y="0" flags="0x1000"/>
      <component glyphName="macron" x="46" y="40" flags="0x1000"/>
    </TTGlyph>
    <TTGlyph name="emdash" xMin="-18" yMin="213" xMax="916" yMax="302">
      <contour>
        <pt x="900" y="213" on="1"/>
        <pt x="-11" y="213" on="1"/>
        <pt x="-18" y="223" on="1"/>
        <pt x="-2" y="302" on="1"/>
        <pt x="908" y="302" on="1"/>
        <pt x="916" y="292" on="1"/>
      </contour>
    </TTGlyph>
    <TTGlyph name="endash" xMin="-16" yMin="213" xMax="489" yMax="302">
      <contour>
        <pt x="473" y="213" on="1"/>
        <pt x="-9" y="213" on="1"/>
        <pt x="-16" y="223" on="1"/>
        <pt x="0" y="302" on="1"/>
        <pt x="482" y="302" on="1"/>
        <pt x="489" y="292" on="1"/>
      </contour>
    </TTGlyph>
    <TTGlyph name="eng" xMin="45" yMin="-134" xMax="555" yMax="507">
      <contour>
        <pt x="493" y="40" on="1"/>
        <pt x="485" y="-24" on="0"/>
        <pt x="415" y="-101" on="0"/>
        <pt x="335" y="-134" on="1"/>
        <pt x="302" y="-83" on="1"/>
        <pt x="303" y="-72" on="1"/>
        <pt x="355" y="-41" on="0"/>
        <pt x="369" y="-4" on="1"/>
        <pt x="199" y="318" on="1"/>
        <pt x="191" y="318" on="1"/>
        <pt x="174" y="176" on="1"/>
        <pt x="156" y="0" on="1"/>
        <pt x="45" y="0" on="1"/>
        <pt x="69" y="148" on="1"/>
        <pt x="108" y="505" on="1"/>
        <pt x="240" y="505" on="1"/>
        <pt x="399" y="200" on="1"/>
        <pt x="407" y="200" on="1"/>
        <pt x="441" y="500" on="1"/>
        <pt x="555" y="507" on="1"/>
        <pt x="504" y="159" on="1"/>
      </contour>
    </TTGlyph>
    <TTGlyph name="eogonek" xMin="44" yMin="-197" xMax="455" yMax="505">
      <contour>
        <pt x="201" y="304" on="1"/>
        <pt x="291" y="303" on="1"/>
        <pt x="376" y="306" on="1"/>
        <pt x="381" y="297" on="1"/>
        <pt x="363" y="205" on="1"/>
        <pt x="270" y="208" on="1"/>
        <pt x="188" y="207" on="1"/>
        <pt x="181" y="161" on="1"/>
        <pt x="175" y="96" on="1"/>
        <pt x="262" y="96" on="1"/>
        <pt x="395" y="100" on="1"/>
        <pt x="402" y="91" on="1"/>
        <pt x="382" y="0" on="1"/>
        <pt x="303" y="0" on="1"/>
        <pt x="277" y="-39" on="1"/>
        <pt x="261" y="-66" on="0"/>
        <pt x="261" y="-86" on="1"/>
        <pt x="261" y="-123" on="0"/>
        <pt x="299" y="-123" on="1"/>
        <pt x="329" y="-123" on="0"/>
        <pt x="364" y="-93" on="1"/>
        <pt x="371" y="-93" on="1"/>
        <pt x="382" y="-147" on="1"/>
        <pt x="329" y="-197" on="0"/>
        <pt x="279" y="-197" on="1"/>
        <pt x="239" y="-197" on="0"/>
        <pt x="189" y="-148" on="0"/>
        <pt x="189" y="-110" on="1"/>
        <pt x="189" y="-69" on="0"/>
        <pt x="218" y="-28" on="1"/>
        <pt x="238" y="0" on="1"/>
        <pt x="44" y="0" on="1"/>
        <pt x="68" y="150" on="1"/>
        <pt x="106" y="505" on="1"/>
        <pt x="449" y="505" on="1"/>
        <pt x="455" y="495" on="1"/>
        <pt x="435" y="404" on="1"/>
        <pt x="310" y="409" on="1"/>
        <pt x="216" y="409" on="1"/>
      </contour>
    </TTGlyph>
    <TTGlyph name="equal" xMin="17" yMin="124" xMax="473" yMax="397">
      <component glyphName="minus" x="14" y="92" flags="0x1000"/>
      <component glyphName="minus" x="-9" y="-93" flags="0x1000"/>
    </TTGlyph>
    <TTGlyph name="estimated" xMin="49" yMin="-12" xMax="786" yMax="651">
      <contour>
        <pt x="518" y="651" on="0"/>
        <pt x="687" y="562" on="0"/>
        <pt x="786" y="409" on="0"/>
        <pt x="786" y="319" on="1"/>
        <pt x="786" y="311" on="1"/>
        <pt x="189" y="311" on="1"/>
        <pt x="184" y="311" on="0"/>
        <pt x="184" y="307" on="1"/>
        <pt x="184" y="126" on="1"/>
        <pt x="184" y="116" on="0"/>
        <pt x="193" y="105" on="1"/>
        <pt x="236" y="59" on="0"/>
        <pt x="353" y="8" on="0"/>
        <pt x="419" y="8" on="1"/>
        <pt x="489" y="8" on="0"/>
        <pt x="612" y="66" on="0"/>
        <pt x="656" y="117" on="1"/>
        <pt x="710" y="117" on="1"/>
        <pt x="659" y="57" on="0"/>
        <pt x="505" y="-12" on="0"/>
        <pt x="418" y="-12" on="1"/>
        <pt x="318" y="-12" on="0"/>
        <pt x="149" y="77" on="0"/>
        <pt x="49" y="229" on="0"/>
        <pt x="49" y="319" on="1"/>
        <pt x="49" y="409" on="0"/>
        <pt x="149" y="562" on="0"/>
        <pt x="318" y="651" on="0"/>
        <pt x="418" y="651" on="1"/>
      </contour>
      <contour>
        <pt x="354" y="631" on="0"/>
        <pt x="238" y="580" on="0"/>
        <pt x="194" y="535" on="1"/>
        <pt x="184" y="525" on="0"/>
        <pt x="184" y="512" on="1"/>
        <pt x="184" y="334" on="1"/>
        <pt x="184" y="329" on="0"/>
        <pt x="189" y="329" on="1"/>
        <pt x="647" y="329" on="1"/>
        <pt x="652" y="329" on="0"/>
        <pt x="652" y="334" on="1"/>
        <pt x="652" y="516" on="1"/>
        <pt x="652" y="528" on="0"/>
        <pt x="642" y="538" on="1"/>
        <pt x="598" y="582" on="0"/>
        <pt x="483" y="631" on="0"/>
        <pt x="419" y="631" on="1"/>
      </contour>
    </TTGlyph>
    <TTGlyph name="eth" xMin="3" yMin="-6" xMax="542" yMax="508">
      <contour>
        <pt x="428" y="508" on="0"/>
        <pt x="542" y="404" on="0"/>
        <pt x="542" y="308" on="1"/>
        <pt x="542" y="160" on="0"/>
        <pt x="388" y="-6" on="0"/>
        <pt x="245" y="-6" on="1"/>
        <pt x="164" y="-6" on="0"/>
        <pt x="52" y="0" on="1"/>
        <pt x="76" y="150" on="1"/>
        <pt x="82" y="209" on="1"/>
        <pt x="9" y="209" on="1"/>
        <pt x="3" y="218" on="1"/>
        <pt x="17" y="288" on="1"/>
        <pt x="91" y="288" on="1"/>
        <pt x="115" y="505" on="1"/>
        <pt x="325" y="508" on="1"/>
      </contour>
      <contour>
        <pt x="413" y="88" on="0"/>
        <pt x="413" y="287" on="1"/>
        <pt x="413" y="351" on="0"/>
        <pt x="361" y="410" on="0"/>
        <pt x="309" y="410" on="1"/>
        <pt x="262" y="410" on="0"/>
        <pt x="225" y="406" on="1"/>
        <pt x="207" y="288" on="1"/>
        <pt x="312" y="288" on="1"/>
        <pt x="317" y="279" on="1"/>
        <pt x="304" y="209" on="1"/>
        <pt x="196" y="209" on="1"/>
        <pt x="189" y="161" on="1"/>
        <pt x="183" y="94" on="1"/>
        <pt x="241" y="88" on="0"/>
        <pt x="271" y="88" on="1"/>
      </contour>
    </TTGlyph>
    <TTGlyph name="etilde" xMin="44" yMin="0" xMax="463" yMax="739">
      <component glyphName="e" x="0" y="0" flags="0x1000"/>
      <component glyphName="tilde" x="47" y="40" flags="0x1000"/>
    </TTGlyph>
    <TTGlyph name="exclam" xMin="52" yMin="-7" xMax="267" yMax="665">
      <contour>
        <pt x="181" y="236" on="1"/>
        <pt x="106" y="226" on="1"/>
        <pt x="94" y="239" on="1"/>
        <pt x="137" y="644" on="1"/>
        <pt x="150" y="659" on="1"/>
        <pt x="254" y="665" on="1"/>
        <pt x="267" y="650" on="1"/>
      </contour>
      <contour>
        <pt x="154" y="132" on="0"/>
        <pt x="188" y="97" on="0"/>
        <pt x="188" y="66" on="1"/>
        <pt x="188" y="32" on="0"/>
        <pt x="150" y="-7" on="0"/>
        <pt x="118" y="-7" on="1"/>
        <pt x="87" y="-7" on="0"/>
        <pt x="52" y="28" on="0"/>
        <pt x="52" y="60" on="1"/>
        <pt x="52" y="93" on="0"/>
        <pt x="90" y="132" on="0"/>
        <pt x="123" y="132" on="1"/>
      </contour>
    </TTGlyph>
    <TTGlyph name="exclamdown" xMin="11" yMin="-197" xMax="226" yMax="475">
      <component glyphName="exclam" x="278" y="468" scale="-1.0" flags="0x1000"/>
    </TTGlyph>
    <TTGlyph name="f" xMin="40" yMin="0" xMax="429" yMax="505">
      <contour>
        <pt x="195" y="287" on="1"/>
        <pt x="264" y="287" on="1"/>
        <pt x="355" y="290" on="1"/>
        <pt x="361" y="280" on="1"/>
        <pt x="342" y="189" on="1"/>
        <pt x="243" y="191" on="1"/>
        <pt x="181" y="190" on="1"/>
        <pt x="177" y="161" on="1"/>
        <pt x="162" y="0" on="1"/>
        <pt x="40" y="0" on="1"/>
        <pt x="63" y="150" on="1"/>
        <pt x="102" y="505" on="1"/>
        <pt x="423" y="505" on="1"/>
        <pt x="429" y="495" on="1"/>
        <pt x="409" y="404" on="1"/>
        <pt x="284" y="409" on="1"/>
        <pt x="212" y="409" on="1"/>
      </contour>
    </TTGlyph>
    <TTGlyph name="f.sups" xMin="61" yMin="238" xMax="329" yMax="810">
      <contour>
        <pt x="313" y="739" on="1"/>
        <pt x="301" y="734" on="1"/>
        <pt x="269" y="750" on="0"/>
        <pt x="250" y="750" on="1"/>
        <pt x="211" y="750" on="0"/>
        <pt x="204" y="689" on="1"/>
        <pt x="197" y="638" on="1"/>
        <pt x="263" y="638" on="1"/>
        <pt x="269" y="630" on="1"/>
        <pt x="263" y="590" on="1"/>
        <pt x="190" y="590" on="1"/>
        <pt x="173" y="465" on="1"/>
        <pt x="154" y="316" on="1"/>
        <pt x="150" y="243" on="1"/>
        <pt x="64" y="238" on="1"/>
        <pt x="93" y="456" on="1"/>
        <pt x="108" y="590" on="1"/>
        <pt x="66" y="590" on="1"/>
        <pt x="61" y="595" on="1"/>
        <pt x="68" y="638" on="1"/>
        <pt x="113" y="638" on="1"/>
        <pt x="116" y="667" on="1"/>
        <pt x="125" y="736" on="0"/>
        <pt x="201" y="810" on="0"/>
        <pt x="262" y="810" on="1"/>
        <pt x="326" y="801" on="1"/>
        <pt x="329" y="796" on="1"/>
      </contour>
    </TTGlyph>
    <TTGlyph name="firstofchinese" xMin="94" yMin="577" xMax="390" yMax="659">
      <component glyphName="macron" x="0" y="0" flags="0x1000"/>
    </TTGlyph>
    <TTGlyph name="firsttonechinese" xMin="94" yMin="577" xMax="390" yMax="659">
      <contour>
        <pt x="383" y="577" on="1"/>
        <pt x="103" y="577" on="1"/>
        <pt x="94" y="586" on="1"/>
        <pt x="101" y="659" on="1"/>
        <pt x="381" y="659" on="1"/>
        <pt x="390" y="650" on="1"/>
      </contour>
    </TTGlyph>
    <TTGlyph name="five" xMin="-7" yMin="-97" xMax="427" yMax="511">
      <contour>
        <pt x="402" y="402" on="1"/>
        <pt x="392" y="393" on="1"/>
        <pt x="303" y="402" on="1"/>
        <pt x="185" y="402" on="1"/>
        <pt x="170" y="288" on="1"/>
        <pt x="231" y="275" on="1"/>
        <pt x="379" y="244" on="0"/>
        <pt x="379" y="126" on="1"/>
        <pt x="379" y="63" on="0"/>
        <pt x="307" y="-39" on="0"/>
        <pt x="181" y="-97" on="0"/>
        <pt x="104" y="-97" on="1"/>
        <pt x="51" y="-97" on="0"/>
        <pt x="-7" y="-85" on="1"/>
        <pt x="-3" y="17" on="1"/>
        <pt x="7" y="26" on="1"/>
        <pt x="66" y="3" on="0"/>
        <pt x="123" y="3" on="1"/>
        <pt x="182" y="3" on="0"/>
        <pt x="254" y="60" on="0"/>
        <pt x="254" y="105" on="1"/>
        <pt x="254" y="165" on="0"/>
        <pt x="170" y="181" on="1"/>
        <pt x="69" y="199" on="1"/>
        <pt x="61" y="209" on="1"/>
        <pt x="96" y="493" on="1"/>
        <pt x="114" y="508" on="1"/>
        <pt x="171" y="505" on="1"/>
        <pt x="317" y="505" on="1"/>
        <pt x="420" y="511" on="1"/>
        <pt x="427" y="502" on="1"/>
      </contour>
    </TTGlyph>
</ttFont>
